<svg width="112" height="112" viewBox="0 0 112 112" fill="none" xmlns="http://www.w3.org/2000/svg">
<g filter="url(#filter0_d_1013_3891)">
<rect x="24" y="24" width="64" height="64" rx="32" fill="#0036E5"/>
<path d="M54.3427 47.6019C54.6139 47.3613 54.8918 47.1443 55.1765 46.9681C55.4579 46.7918 55.7595 46.6901 56.0002 46.6969V44.5276C55.2647 44.5242 54.7596 44.7751 54.3461 45.0089C53.9326 45.2598 53.5835 45.5343 53.2581 45.8122C52.6141 46.3749 52.0378 46.9443 51.5125 47.5612C51.082 48.0527 50.6753 48.5544 50.2787 49.0628C50.5295 49.7576 50.76 50.4423 50.9769 51.1101C51.004 51.1982 51.0312 51.2863 51.0617 51.3744C51.6277 50.6321 52.2005 49.9068 52.7903 49.2051C53.2818 48.6222 53.8038 48.0832 54.3427 47.6019Z" fill="white"/>
<path d="M57.6575 47.6019C57.3863 47.3613 57.1084 47.1443 56.8237 46.9681C56.5423 46.7918 56.2407 46.6901 56 46.6969V44.5276C56.7355 44.5242 57.2406 44.7751 57.6541 45.0089C58.0676 45.2598 58.4167 45.5343 58.7421 45.8122C59.3861 46.3749 59.9623 46.9443 60.4877 47.5612C60.9182 48.0527 61.3249 48.5544 61.7215 49.0628C61.4707 49.7576 61.2402 50.4423 61.0233 51.1101C60.9961 51.1982 60.969 51.2863 60.9385 51.3744C60.3725 50.6321 59.7996 49.9068 59.2099 49.2051C58.7218 48.6222 58.1964 48.0832 57.6575 47.6019Z" fill="white"/>
<path d="M44.5162 60.5602L48.5701 54.8184C48.3803 54.0151 48.2006 53.2185 48.0074 52.4389C47.9905 52.3711 47.9735 52.3 47.9566 52.2322C47.2651 53.2253 46.5805 54.2184 45.9161 55.2217C45.0382 56.5165 44.1671 57.8045 43.3536 59.1502" fill="white"/>
<path d="M67.4835 60.5602L63.4297 54.8184C63.6195 54.0151 63.7991 53.2185 63.9923 52.4389C64.0093 52.3711 64.0262 52.3 64.0432 52.2322C64.7346 53.2253 65.4193 54.2184 66.0837 55.2217C66.9616 56.5165 67.8327 57.8045 68.6461 59.1502" fill="white"/>
<g clip-path="url(#clip0_1013_3891)">
<path d="M70.8884 40.9561L70.5211 40.8066C70.571 40.8584 70.6253 40.9059 70.6832 40.9485C71.1595 41.3741 72.525 42.7218 72.8391 44.3533C72.8405 44.3727 72.8405 44.3922 72.8391 44.4116C72.864 44.5531 72.8793 44.6961 72.8847 44.8397C72.9067 45.1993 72.8564 45.5597 72.7367 45.8995C72.6171 46.2393 72.4305 46.5517 72.188 46.8182C71.9939 47.0288 71.7585 47.1969 71.4964 47.3122C71.1616 47.4497 70.8011 47.5132 70.4395 47.4984C70.0779 47.4835 69.7237 47.3906 69.4014 47.2261C69.9258 48.2546 70.4856 50.0913 69.5863 51.1528C69.5052 45.9721 67.2202 47.2793 65.8395 46.6865C64.4588 46.0937 63.6912 46.0253 62.1459 46.1798C62.0515 46.186 61.9625 46.2257 61.8947 46.2916C61.8269 46.3575 61.7849 46.4454 61.776 46.5396C61.7254 47.596 61.624 49.5796 60.0888 50.2762C60.5828 49.5162 61.2111 48.5029 60.9046 47.0842C60.7374 46.3242 59.9875 46.1393 59.0198 46.0405C52.309 45.0272 53.986 41.2272 54.4598 40.3836L54.2267 40.7636C54.3154 40.5938 54.4218 40.414 54.5434 40.229C54.5282 40.2544 54.4952 40.305 54.4547 40.3785L54.5535 40.2113C52.7422 41.2829 51.663 44.48 53.0867 46.955C54.2622 48.9994 56.0786 49.7012 58.769 50.56C57.249 57.063 60.9071 57.0124 62.7032 58.6388C63.0478 58.9504 63.1668 59.2594 63.443 59.609C63.8315 59.521 64.1877 59.3263 64.4715 59.0466C64.5758 58.935 64.6529 58.8008 64.6968 58.6545C64.7407 58.5081 64.7503 58.3537 64.7248 58.203C64.5196 56.9364 63.7495 55.31 62.9135 54.9097C62.0775 54.5094 61.3935 54.4993 61.4112 53.5848C61.4264 52.8248 61.6088 52.7057 61.0566 51.5581C62.8679 52.3181 64.7806 55.3885 65.3176 58.165C65.3298 58.4503 65.2783 58.7346 65.167 58.9975C65.0558 59.2604 64.8874 59.4952 64.6742 59.685C64.3678 59.98 64.0014 60.2055 63.6 60.3462C63.7318 62.9429 64.3752 62.231 66.8022 62.34C68.0536 62.3957 68.0511 62.4844 68.6084 61.6281C69.0164 61.0853 69.2584 60.4359 69.3051 59.7585C69.338 59.5812 69.1328 57.6533 69.0112 56.5386C68.931 55.8322 68.9166 55.1198 68.9682 54.4106C69.01 53.5545 69.2282 52.7162 69.6091 51.9482C71.4027 51.7329 72.2412 51.282 73.0418 50.6233C77.0976 47.3046 74.0779 41.9846 70.8884 40.9561Z" fill="white"/>
<path d="M64.9908 45.6022C65.5405 45.7593 66.1156 45.9923 66.5792 46.0734C67.2682 46.195 67.6837 46.1038 68.393 46.2963C67.4582 45.0297 66.5361 42.6002 61.2794 41.6958C61.705 42.3773 62.8932 43.1043 63.3973 43.6921C61.9862 43.1069 60.3396 41.8047 58.7182 40.5001C57.7936 39.7578 56.9854 39.3879 55.8834 39.9199C55.012 40.3329 54.3989 41.6097 54.9993 43.0005C56.3749 46.1874 62.351 44.8498 64.9908 45.6022Z" fill="white"/>
<path d="M63.0933 61.8663C62.8704 61.1468 62.9565 60.3615 62.7311 59.8117C61.9179 57.8357 56.6511 58.236 57.7657 51.1756C53.6263 50.1623 51.2449 47.9431 51.7921 43.5503C51.9467 42.6053 51.0853 41.8732 49.8465 42.1772C48.02 42.6281 44.8533 44.8473 43.1408 45.4452C42.0363 45.8353 39.926 46.0025 39.8475 44.4319C41.5195 45.2096 43.84 43.3045 43.3485 41.1562C43.0319 42.58 42.5885 42.5141 41.2129 42.3191C40.2933 42.2 39.2471 42.7978 39.1356 43.7732C39.0793 44.1521 39.1115 44.5389 39.2297 44.9033C39.348 45.2676 39.549 45.5997 39.8171 45.8733C41.8159 48.0039 45.4132 45.7391 47.1637 44.7131C47.7439 44.3711 50.0163 42.5825 50.8903 43.2133C50.9812 43.2842 51.05 43.3795 51.0885 43.4881C51.1271 43.5967 51.1339 43.7141 51.1081 43.8264C50.9789 44.4648 50.0289 45.2248 49.5881 45.5668C48.2328 46.6587 47.3461 47.14 46.5203 48.8348C46.0967 49.667 45.7523 50.5373 45.4917 51.434C46.6697 50.9907 47.4981 49.8836 48.2252 49.2756C47.6552 50.9121 44.1719 52.9667 42.9685 56.7033C42.1857 59.148 42.0667 62.3248 41.0255 64.4173C40.6733 65.1267 40.0907 65.8335 39.8728 66.3655C40.9241 66.9203 41.3447 66.9051 42.0616 67.9159C41.6028 67.6494 41.1126 67.4409 40.6024 67.2952C39.4219 66.8924 39.2319 66.7885 38.6796 67.5485C38.1273 68.3085 37.0684 70.1173 37 71.3029L42.8267 71.3333L42.9204 68.6809C42.9231 68.5773 42.9469 68.4752 42.9905 68.3811C43.034 68.287 43.0964 68.2028 43.1737 68.1337C44.5088 66.9456 43.4499 64.5592 46.7052 61.8004C47.3284 61.2709 47.9592 60.5084 48.5013 59.9739C47.9592 58.5425 47.6071 58.2233 47.6831 55.9889C47.8705 57.1695 48.8687 59.2417 49.6413 60.2956C50.1885 61.0556 50.4368 61.7751 50.7433 62.5579C51.8301 65.3268 51.9315 66.1577 55.0829 65.1647C58.7867 63.9867 58.5333 62.8188 61.8672 61.6383C61.3867 62.3282 60.7777 62.9191 60.0736 63.3787C59.7816 63.5728 59.5554 63.8511 59.4251 64.1767L58.3889 66.7531C59.4251 66.7431 60.4268 67.1249 61.1933 67.8221C60.2636 67.5688 58.3687 66.8696 57.6289 67.7487C57.1223 68.3592 56.5497 70.3175 56.6612 71.3131H62.3156C62.536 70.206 62.1788 69.674 62.1712 68.7797C62.1636 67.8855 62.7159 68.0375 62.7285 66.6517C62.7412 65.266 63.7419 63.7536 64.4031 62.9683C64.0357 62.7327 63.4809 63.0975 63.0933 61.8663Z" fill="white"/>
<path d="M69.6268 67.7689C68.7604 67.3078 67.9067 67.4598 66.298 68.5821C66.5995 67.8677 67.5064 67.3357 68.1828 67.0621C69.2569 66.6086 69.8827 67.2318 68.0764 63.0087L64.9604 62.9733C64.5855 64.2019 64.7501 63.4039 64.9477 65.1621C64.9984 65.6181 64.9908 66.1754 65.0339 66.7429C65.0699 67.5139 65.1914 68.2786 65.3961 69.0229C65.5405 69.5042 65.2517 70.1755 65.3277 71.2877L71.0607 71.3257C70.8529 70.0666 70.3032 68.1311 69.6268 67.7689Z" fill="white"/>
<path d="M47.1689 65.7118C45.5475 67.6219 48.6889 66.6922 49.4033 68.4427C48.1239 68.0475 46.5913 66.6136 45.3499 68.4427C44.8027 69.2559 44.6254 69.9323 44.2986 71.2927H50.2038C50.1481 70.5124 50.0037 69.3192 50.2038 68.5364C50.2378 68.4138 50.2881 68.2962 50.3533 68.1868C50.7367 67.494 50.9787 66.7319 51.0651 65.9448C51.169 65.1646 49.9226 62.1119 49.5629 61.5951C49.0236 63.1023 48.2121 64.4977 47.1689 65.7118Z" fill="white"/>
</g>
<rect x="22" y="22" width="68" height="68" rx="34" stroke="white" stroke-width="4"/>
</g>
<defs>
<filter id="filter0_d_1013_3891" x="0" y="0" width="112" height="112" filterUnits="userSpaceOnUse" color-interpolation-filters="sRGB">
<feFlood flood-opacity="0" result="BackgroundImageFix"/>
<feColorMatrix in="SourceAlpha" type="matrix" values="0 0 0 0 0 0 0 0 0 0 0 0 0 0 0 0 0 0 127 0" result="hardAlpha"/>
<feOffset/>
<feGaussianBlur stdDeviation="10"/>
<feComposite in2="hardAlpha" operator="out"/>
<feColorMatrix type="matrix" values="0 0 0 0 0 0 0 0 0 0.450294 0 0 0 0 0.479036 0 0 0 0.15 0"/>
<feBlend mode="normal" in2="BackgroundImageFix" result="effect1_dropShadow_1013_3891"/>
<feBlend mode="normal" in="SourceGraphic" in2="effect1_dropShadow_1013_3891" result="shape"/>
</filter>
<clipPath id="clip0_1013_3891">
<rect width="38" height="31.6667" fill="white" transform="translate(37 39.6666)"/>
</clipPath>
</defs>
</svg>
