<svg width="20" height="20" viewBox="0 0 20 20" fill="none" xmlns="http://www.w3.org/2000/svg">
<path d="M0 10C0 4.47715 4.47715 0 10 0C15.5228 0 20 4.47715 20 10C20 15.5228 15.5228 20 10 20C4.47715 20 0 15.5228 0 10Z" fill="#FFCC00"/>
<path d="M10 3.4375L11.6259 5.09763L7.53172 9.17959L5.90579 7.55852L10 3.4375Z" fill="white" stroke="white"/>
<path d="M12.4683 5.89844L14.0942 7.55856L7.53172 14.1014L5.90579 12.4804L12.4683 5.89844Z" fill="white" stroke="white"/>
<path d="M5.06343 8.35938L6.68937 10.0195L5.06343 11.6406L3.4375 10.0195L5.06343 8.35938Z" fill="white" stroke="white"/>
<path d="M14.9366 8.35938L16.5625 10.0195L9.99999 16.5624L8.37405 14.9413L14.9366 8.35938Z" fill="white" stroke="white"/>
</svg>
