<svg width="24" height="24" viewBox="0 0 24 24" fill="none" xmlns="http://www.w3.org/2000/svg">
<g clip-path="url(#clip0_4534_208676)">
<path d="M12 24C18.6274 24 24 18.6274 24 12C24 5.37258 18.6274 0 12 0C5.37258 0 0 5.37258 0 12C0 18.6274 5.37258 24 12 24Z" fill="#0036E5"/>
<path d="M13.5588 9.51514L12.0004 10.6337L10.4419 9.51514L8.05719 9.92966L7.05469 13.4207L8.83782 15.6328L9.7665 14.4332L8.79741 14.1171L8.55554 12.9882L10.193 14.3574L9.03768 15.8918L9.92975 18.9058L12.0004 20.2189L14.071 18.9058L14.9631 15.8918L13.8079 14.3574L15.4452 12.9882L15.2035 14.1171L14.2344 14.4332L15.1631 15.6328L16.9461 13.4207L15.9438 9.92966L13.5588 9.51514Z" fill="white"/>
<path d="M11.9993 0.754395C5.79862 0.754395 0.753906 5.79911 0.753906 11.9998C0.753906 18.2004 5.79862 23.2453 11.9993 23.2453C18.1999 23.2453 23.2449 18.2006 23.2449 11.9998C23.2449 5.79891 18.2001 0.754395 11.9993 0.754395ZM11.9993 22.5381C6.18854 22.5381 1.46112 17.8107 1.46112 11.9998C1.46092 11.5496 1.48952 11.0999 1.54674 10.6534C1.69132 10.9662 1.89467 11.2483 2.14572 11.4844C2.71489 12.019 3.52134 12.2246 4.37679 12.5381C5.11001 12.8064 5.86644 13.0201 6.58906 13.3154C6.87274 12.1868 7.20764 11.1781 7.49213 10.0496C7.49213 10.0496 6.0629 10.3155 5.36069 10.3669C5.36069 10.3669 2.76831 10.764 1.99648 10.4419C1.99648 10.4419 2.7247 10.4383 3.63237 10.3383C3.44366 10.2871 3.26132 10.2148 3.08881 10.1228C2.4106 9.7697 2.15013 8.92945 2.21434 8.18782C2.21835 8.14121 2.22375 8.0942 2.23035 8.04778C3.79642 4.19022 7.58516 1.46161 11.9993 1.46161C16.4134 1.46161 20.2017 4.19022 21.7684 8.04898C21.7749 8.09513 21.7803 8.14181 21.7844 8.18902C21.8486 8.93065 21.588 9.7709 20.91 10.1238C20.7375 10.2158 20.5551 10.2879 20.3664 10.3389C21.2741 10.4389 22.0023 10.4425 22.0023 10.4425C21.2302 10.765 18.6381 10.3675 18.6381 10.3675C17.9365 10.3167 16.5072 10.0508 16.5072 10.0508C16.7907 11.1793 17.1258 12.188 17.4103 13.3166C18.1329 13.0213 18.8893 12.8074 19.6226 12.5393C20.4772 12.2266 21.2831 12.0192 21.8536 11.4856C22.1045 11.2493 22.3076 10.9671 22.452 10.6542C22.509 11.1006 22.5376 11.5501 22.5376 12.0002C22.5376 17.8107 17.8102 22.5381 11.9993 22.5381Z" fill="white"/>
<path d="M8.85584 5.99796L8.88185 6.44489L7.60367 4.31445H6.75781V7.82471H7.51964V6.01396L7.49343 5.56703L8.84724 7.82471H9.62227V4.31445H8.85584V5.99796Z" fill="white"/>
<path d="M11.1992 7.82471H11.9702V6.4765H13.3233V5.73808H11.9702V5.05247H13.4741V4.31445H11.1992V7.82471Z" fill="white"/>
<path d="M14.5859 4.31445V5.05247H15.529V7.82471H16.3001V5.05247H17.2429V4.31445H14.5859Z" fill="white"/>
</g>
<defs>
<clipPath id="clip0_4534_208676">
<rect width="24" height="24" fill="white"/>
</clipPath>
</defs>
</svg>
