<svg width="13" height="12" viewBox="0 0 13 12" fill="none" xmlns="http://www.w3.org/2000/svg">
<path fill-rule="evenodd" clip-rule="evenodd" d="M3.56251 1.64583H7.68751C7.81356 1.64583 7.91668 1.74896 7.91668 1.87501V4.85418C7.91668 4.98023 7.81356 5.08335 7.68751 5.08335H3.56251C3.43646 5.08335 3.33333 4.98023 3.33333 4.85418V1.87501C3.33333 1.74896 3.43646 1.64583 3.56251 1.64583ZM3.79168 4.62501H7.45835V2.10418H3.79168V4.62501Z" fill="#1E293B"/>
<path d="M5.8793 7.36577L6.4545 7.52847C6.47283 7.53305 6.48658 7.54222 6.50263 7.55368C6.55075 7.59493 6.55533 7.67055 6.51408 7.71868L5.06113 9.3985C5.02448 9.44202 4.96261 9.4512 4.91218 9.4237C4.86178 9.39392 4.83886 9.33432 4.85948 9.28162L5.36136 7.9135L4.79303 7.75307C4.77698 7.74847 4.76323 7.7416 4.74948 7.73015C4.69906 7.6889 4.69448 7.61557 4.73573 7.56515L6.02823 6.04347C6.06491 6.00222 6.12448 5.99077 6.17491 6.01597C6.22303 6.04118 6.24825 6.09847 6.2322 6.15118L5.8793 7.36577Z" fill="#1E293B"/>
<path fill-rule="evenodd" clip-rule="evenodd" d="M10.5269 2.3746L11.2281 3.18355C11.3954 3.37605 11.5833 3.59375 11.5833 3.9375V9.20833C11.5833 9.58875 11.2762 9.89583 10.8958 9.89583H10.3894C10.025 9.89583 9.74998 9.6002 9.74998 9.20833V6.2177C9.74998 6.1077 9.61248 6 9.47268 6H9.06248V10.5673C9.06248 10.7987 8.87685 10.8033 8.56748 10.8079C8.4002 10.8102 8.17103 10.8125 7.91665 10.8125H3.33333C3.08125 10.8125 2.8498 10.8102 2.6825 10.8079L2.67529 10.8077C2.37024 10.801 2.1875 10.7969 2.1875 10.5673V1.64583C2.1875 1.01333 2.70083 0.5 3.33333 0.5H7.91665C8.54915 0.5 9.06248 1.01333 9.06246 1.64583V5.54165H9.47266C9.82786 5.54165 10.2083 5.81437 10.2083 6.2177V9.20833C10.2083 9.31375 10.2564 9.4375 10.3893 9.4375H10.8958C11.0218 9.4375 11.125 9.33438 11.125 9.20833V5.77083H10.6666C10.4146 5.77083 10.2083 5.56458 10.2083 5.3125V4.21252C10.2083 4.06127 10.3321 3.93752 10.4833 3.93752H11.125C11.125 3.77252 11.0356 3.66252 10.8798 3.48377L10.2129 2.71377C10.0937 2.57627 10.1694 2.33105 10.4192 2.32647C10.4604 2.32417 10.4994 2.34252 10.5269 2.3746ZM7.91665 10.3542C8.22145 10.3542 8.4529 10.3519 8.60415 10.3496V1.64583C8.60415 1.2654 8.29708 0.958326 7.91665 0.958326H3.33333C2.9529 0.958326 2.64583 1.2654 2.64583 1.64583V10.3496C2.79708 10.3519 3.02853 10.3542 3.33333 10.3542H7.91665ZM10.6667 5.3125H11.125V4.39583H10.6667V5.3125Z" fill="#1E293B"/>
<path d="M9.52085 11.0417H1.72917C1.60312 11.0417 1.5 11.1448 1.5 11.2708C1.5 11.3969 1.60312 11.5 1.72917 11.5H9.52085C9.6469 11.5 9.75002 11.3969 9.75002 11.2708C9.75 11.1448 9.64687 11.0417 9.52085 11.0417Z" fill="#1E293B"/>
</svg>
