<svg width="12" height="12" viewBox="0 0 12 12" fill="none" xmlns="http://www.w3.org/2000/svg">
<path d="M6 1C3.24291 1 1 3.24303 1 6C1 8.75697 3.24291 11 6 11C8.75709 11 11 8.75697 11 6C11 3.24303 8.75709 1 6 1ZM6 10.3478C3.60254 10.3478 1.65217 8.39734 1.65217 6C1.65217 3.60266 3.60254 1.65217 6 1.65217C8.39746 1.65217 10.3478 3.60266 10.3478 6C10.3478 8.39734 8.39746 10.3478 6 10.3478Z" fill="#0F1629"/>
<path d="M5.7364 1.13159H6.26271L6.26264 2.75H5.73633L5.7364 1.13159Z" fill="#0F1629"/>
<path d="M2.37114 2.7436L2.74331 2.37144L3.88764 3.51588L3.51548 3.88804L2.37114 2.7436Z" fill="#0F1629"/>
<path d="M9.62886 2.7436L9.25669 2.37144L8.11236 3.51588L8.48452 3.88804L9.62886 2.7436Z" fill="#0F1629"/>
<path d="M10.8691 5.73682L10.8691 6.26313L9.50073 6.26313L9.50073 5.73682L10.8691 5.73682Z" fill="#0F1629"/>
<path d="M5.73633 9.5H6.26264V10.8684H5.73633L5.73633 9.5Z" fill="#0F1629"/>
<path d="M8.28906 8.66089L8.66122 8.28873L9.62886 9.25637L9.2567 9.62853L8.28906 8.66089Z" fill="#0F1629"/>
<path d="M3.71094 8.66089L3.33878 8.28873L2.37114 9.25637L2.7433 9.62853L3.71094 8.66089Z" fill="#0F1629"/>
<path d="M2.5 5.73682L2.5 6.26313L1.13155 6.26313L1.13155 5.73682L2.5 5.73682Z" fill="#0F1629"/>
<path fill-rule="evenodd" clip-rule="evenodd" d="M9.09469 6.00018C9.09469 7.7095 7.70901 9.09518 5.99969 9.09518C4.29037 9.09518 2.90469 7.7095 2.90469 6.00018C2.90469 4.29085 4.29037 2.90518 5.99969 2.90518C7.70901 2.90518 9.09469 4.29085 9.09469 6.00018ZM9.69469 6.00018C9.69469 8.04087 8.04038 9.69518 5.99969 9.69518C3.959 9.69518 2.30469 8.04087 2.30469 6.00018C2.30469 3.95948 3.959 2.30518 5.99969 2.30518C8.04038 2.30518 9.69469 3.95948 9.69469 6.00018ZM6.1528 5.71188C6.61753 5.95751 7.19603 6.26331 7.19603 6.86964C7.19603 7.41575 6.82749 7.87649 6.32646 8.01892V8.17397C6.32646 8.35411 6.18038 8.50007 6.00036 8.50007C5.82034 8.50007 5.67427 8.35411 5.67427 8.17397V8.01892C5.17325 7.87648 4.8047 7.41573 4.8047 6.86964C4.8047 6.6895 4.95077 6.54355 5.13079 6.54355C5.31081 6.54355 5.45689 6.6895 5.45689 6.86964C5.45689 7.16929 5.7006 7.41312 6.00036 7.41312C6.30013 7.41312 6.54384 7.16929 6.54384 6.86964C6.54384 6.6563 6.19015 6.46925 5.84792 6.28849L5.84769 6.28836C5.383 6.04264 4.8047 5.73684 4.8047 5.13052C4.8047 4.5844 5.17323 4.12366 5.67427 3.98124V3.82618C5.67427 3.64604 5.82034 3.50009 6.00036 3.50009C6.18038 3.50009 6.32646 3.64604 6.32646 3.82618V3.98124C6.82747 4.12368 7.19603 4.58442 7.19603 5.13052C7.19603 5.31065 7.04995 5.45661 6.86993 5.45661C6.68991 5.45661 6.54384 5.31065 6.54384 5.13052C6.54384 4.83087 6.30013 4.58704 6.00036 4.58704C5.7006 4.58704 5.45689 4.83087 5.45689 5.13052C5.45689 5.34397 5.81058 5.53103 6.1528 5.71188Z" fill="#0F1629"/>
</svg>
