<svg width="16" height="16" viewBox="0 0 16 16" fill="none" xmlns="http://www.w3.org/2000/svg">
<path d="M1.5 13.5C1.5 14.6046 2.39543 15.5 3.5 15.5H12.5C13.6046 15.5 14.5 14.6046 14.5 13.5V10.5H1.5V13.5Z" fill="#194FFF"/>
<g filter="url(#filter0_bi_2398_1669)">
<path d="M0.5 10C0.5 11.6569 1.84315 13 3.5 13H12.5C14.1569 13 15.5 11.6569 15.5 10V3C15.5 1.34315 14.1569 0 12.5 0H3.5C1.84315 0 0.5 1.34315 0.5 3V10Z" fill="#BCCBF1" fill-opacity="0.5"/>
</g>
<path fill-rule="evenodd" clip-rule="evenodd" d="M4.4356 8.93134C4.54021 9.02289 4.70981 9.02289 4.81441 8.93134L6.42156 7.52492C6.52616 7.43338 6.52616 7.28497 6.42156 7.19343C6.31695 7.10189 6.14736 7.10189 6.04275 7.19343L4.89286 8.1997V4.73439C4.89286 4.60493 4.77294 4.49998 4.62501 4.49998C4.47707 4.49998 4.35715 4.60493 4.35715 4.73439V8.1997L3.20726 7.19343C3.10266 7.10189 2.93306 7.10189 2.82845 7.19343C2.72385 7.28497 2.72385 7.43338 2.82845 7.52492L4.4356 8.93134Z" fill="#194FFF"/>
<path d="M4.81441 8.93134L4.97905 9.11948V9.11948L4.81441 8.93134ZM4.4356 8.93134L4.27097 9.11948V9.11948L4.4356 8.93134ZM6.42156 7.52492L6.25692 7.33679V7.33679L6.42156 7.52492ZM6.42156 7.19343L6.25692 7.38156V7.38156L6.42156 7.19343ZM6.04275 7.19343L6.20739 7.38156L6.20739 7.38156L6.04275 7.19343ZM4.89286 8.1997L5.0575 8.38783C4.98368 8.45243 4.8789 8.46789 4.78957 8.42736C4.70024 8.38682 4.64286 8.29779 4.64286 8.1997H4.89286ZM4.35715 8.1997H4.60715C4.60715 8.29779 4.54978 8.38682 4.46045 8.42736C4.37111 8.46789 4.26633 8.45243 4.19251 8.38783L4.35715 8.1997ZM3.20726 7.19343L3.3719 7.00529L3.3719 7.00529L3.20726 7.19343ZM2.82845 7.19343L2.66382 7.00529L2.66382 7.00529L2.82845 7.19343ZM2.82845 7.52492L2.66382 7.71306H2.66382L2.82845 7.52492ZM4.97905 9.11948C4.78018 9.29351 4.46983 9.29351 4.27097 9.11948L4.60024 8.74321C4.60215 8.74488 4.61029 8.75 4.62501 8.75C4.63972 8.75 4.64787 8.74488 4.64977 8.74321L4.97905 9.11948ZM6.5862 7.71306L4.97905 9.11948L4.64977 8.74321L6.25692 7.33679L6.5862 7.71306ZM6.5862 7.00529C6.80462 7.19643 6.80462 7.52191 6.5862 7.71306L6.25692 7.33679C6.25766 7.33614 6.25568 7.33771 6.25357 7.34227C6.25149 7.34675 6.25001 7.3526 6.25001 7.35917C6.25001 7.36575 6.25149 7.3716 6.25357 7.37608C6.25568 7.38064 6.25766 7.3822 6.25692 7.38156L6.5862 7.00529ZM5.87811 7.00529C6.07698 6.83126 6.38733 6.83126 6.5862 7.00529L6.25692 7.38156C6.25501 7.37989 6.24687 7.37477 6.23216 7.37477C6.21744 7.37477 6.2093 7.37989 6.20739 7.38156L5.87811 7.00529ZM4.72823 8.01156L5.87811 7.00529L6.20739 7.38156L5.0575 8.38783L4.72823 8.01156ZM5.14286 4.73439V8.1997H4.64286V4.73439H5.14286ZM4.62501 4.24998C4.87864 4.24998 5.14286 4.43657 5.14286 4.73439H4.64286C4.64286 4.74126 4.64458 4.74749 4.64673 4.75194C4.64872 4.75606 4.65039 4.75732 4.64977 4.75677C4.64819 4.75539 4.64018 4.74998 4.62501 4.74998V4.24998ZM4.10715 4.73439C4.10715 4.43657 4.37137 4.24998 4.62501 4.24998V4.74998C4.60983 4.74998 4.60182 4.75539 4.60024 4.75677C4.59962 4.75732 4.6013 4.75606 4.60329 4.75194C4.60544 4.74749 4.60715 4.74126 4.60715 4.73439H4.10715ZM4.10715 8.1997V4.73439H4.60715V8.1997H4.10715ZM3.3719 7.00529L4.52179 8.01156L4.19251 8.38783L3.04263 7.38156L3.3719 7.00529ZM2.66382 7.00529C2.86268 6.83126 3.17303 6.83126 3.3719 7.00529L3.04263 7.38156C3.04072 7.37989 3.03257 7.37477 3.01786 7.37477C3.00314 7.37477 2.995 7.37989 2.99309 7.38156L2.66382 7.00529ZM2.66382 7.71306C2.44539 7.52191 2.44539 7.19643 2.66382 7.00529L2.99309 7.38156C2.99236 7.3822 2.99433 7.38064 2.99644 7.37608C2.99852 7.3716 3 7.36575 3 7.35917C3 7.3526 2.99852 7.34675 2.99644 7.34227C2.99433 7.33771 2.99236 7.33614 2.99309 7.33679L2.66382 7.71306ZM4.27097 9.11948L2.66382 7.71306L2.99309 7.33679L4.60024 8.74321L4.27097 9.11948Z" fill="#194FFF"/>
<path d="M15.5 5L12 5C11.1716 5 10.5 5.67157 10.5 6.5C10.5 7.32843 11.1716 8 12 8L15.5 8L15.5 5Z" fill="#194FFF"/>
<path d="M12.5 6.5C12.5 6.22386 12.2761 6 12 6C11.7239 6 11.5 6.22386 11.5 6.5C11.5 6.77615 11.7239 7 12 7C12.2761 7 12.5 6.77615 12.5 6.5Z" fill="white"/>
<defs>
<filter id="filter0_bi_2398_1669" x="-3.5" y="-4" width="23" height="21" filterUnits="userSpaceOnUse" color-interpolation-filters="sRGB">
<feFlood flood-opacity="0" result="BackgroundImageFix"/>
<feGaussianBlur in="BackgroundImage" stdDeviation="2"/>
<feComposite in2="SourceAlpha" operator="in" result="effect1_backgroundBlur_2398_1669"/>
<feBlend mode="normal" in="SourceGraphic" in2="effect1_backgroundBlur_2398_1669" result="shape"/>
<feColorMatrix in="SourceAlpha" type="matrix" values="0 0 0 0 0 0 0 0 0 0 0 0 0 0 0 0 0 0 127 0" result="hardAlpha"/>
<feOffset dx="0.2" dy="0.1"/>
<feGaussianBlur stdDeviation="0.5"/>
<feComposite in2="hardAlpha" operator="arithmetic" k2="-1" k3="1"/>
<feColorMatrix type="matrix" values="0 0 0 0 1 0 0 0 0 1 0 0 0 0 1 0 0 0 0.6 0"/>
<feBlend mode="normal" in2="shape" result="effect2_innerShadow_2398_1669"/>
</filter>
</defs>
</svg>
