<svg width="20" height="20" viewBox="0 0 20 20" fill="none" xmlns="http://www.w3.org/2000/svg">
<path d="M2.5 5.62495H11.3574C11.4867 5.99039 11.7262 6.30676 12.0427 6.53051C12.3592 6.75427 12.7374 6.87442 13.125 6.87442C13.5126 6.87442 13.8908 6.75427 14.2073 6.53051C14.5238 6.30676 14.7633 5.99039 14.8926 5.62495H17.5C17.6658 5.62495 17.8247 5.55911 17.9419 5.4419C18.0592 5.32469 18.125 5.16571 18.125 4.99995C18.125 4.83419 18.0592 4.67522 17.9419 4.55801C17.8247 4.4408 17.6658 4.37495 17.5 4.37495H14.8926C14.7633 4.00952 14.5238 3.69315 14.2073 3.46939C13.8908 3.24564 13.5126 3.12549 13.125 3.12549C12.7374 3.12549 12.3592 3.24564 12.0427 3.46939C11.7262 3.69315 11.4867 4.00952 11.3574 4.37495H2.5C2.33424 4.37495 2.17527 4.4408 2.05806 4.55801C1.94085 4.67522 1.875 4.83419 1.875 4.99995C1.875 5.16571 1.94085 5.32469 2.05806 5.4419C2.17527 5.55911 2.33424 5.62495 2.5 5.62495Z" fill="#64748B"/>
<path d="M17.5 14.375H14.8926C14.7633 14.0095 14.5238 13.6932 14.2073 13.4694C13.8908 13.2456 13.5126 13.1255 13.125 13.1255C12.7374 13.1255 12.3592 13.2456 12.0427 13.4694C11.7262 13.6932 11.4867 14.0095 11.3574 14.375H2.5C2.33424 14.375 2.17527 14.4408 2.05806 14.558C1.94085 14.6752 1.875 14.8342 1.875 15C1.875 15.1657 1.94085 15.3247 2.05806 15.4419C2.17527 15.5591 2.33424 15.625 2.5 15.625H11.3574C11.4867 15.9904 11.7262 16.3068 12.0427 16.5305C12.3592 16.7543 12.7374 16.8744 13.125 16.8744C13.5126 16.8744 13.8908 16.7543 14.2073 16.5305C14.5238 16.3068 14.7633 15.9904 14.8926 15.625H17.5C17.6658 15.625 17.8247 15.5591 17.9419 15.4419C18.0592 15.3247 18.125 15.1657 18.125 15C18.125 14.8342 18.0592 14.6752 17.9419 14.558C17.8247 14.4408 17.6658 14.375 17.5 14.375Z" fill="#64748B"/>
<path d="M17.5 9.37495H8.64258C8.51325 9.00952 8.27384 8.69315 7.9573 8.46939C7.64076 8.24564 7.26264 8.12549 6.875 8.12549C6.48736 8.12549 6.10924 8.24564 5.7927 8.46939C5.47616 8.69315 5.23675 9.00952 5.10742 9.37495H2.5C2.33424 9.37495 2.17527 9.4408 2.05806 9.55801C1.94085 9.67522 1.875 9.83419 1.875 9.99995C1.875 10.1657 1.94085 10.3247 2.05806 10.4419C2.17527 10.5591 2.33424 10.625 2.5 10.625H5.10742C5.23675 10.9904 5.47616 11.3068 5.7927 11.5305C6.10924 11.7543 6.48736 11.8744 6.875 11.8744C7.26264 11.8744 7.64076 11.7543 7.9573 11.5305C8.27384 11.3068 8.51325 10.9904 8.64258 10.625H17.5C17.6658 10.625 17.8247 10.5591 17.9419 10.4419C18.0592 10.3247 18.125 10.1657 18.125 9.99995C18.125 9.83419 18.0592 9.67522 17.9419 9.55801C17.8247 9.4408 17.6658 9.37495 17.5 9.37495Z" fill="#64748B"/>
</svg>
