<svg width="24" height="24" viewBox="0 0 24 24" fill="none" xmlns="http://www.w3.org/2000/svg">
<path d="M0 12C0 5.37258 5.37258 0 12 0C18.6274 0 24 5.37258 24 12C24 18.6274 18.6274 24 12 24C5.37258 24 0 18.6274 0 12Z" fill="#FFCC00"/>
<path d="M8.94228 10.743L12.0012 7.68527L15.0614 10.7455L16.8403 8.96533L12.0012 4.125L7.16215 8.96408L8.94228 10.743Z" fill="white"/>
<path d="M4.125 12.0005L5.90449 10.221L7.68397 12.0005L5.90449 13.78L4.125 12.0005Z" fill="white"/>
<path d="M8.94229 13.2571L12.0012 16.3161L15.0614 13.2559L16.8416 15.0335L16.8403 15.0348L12.0012 19.8751L7.16215 15.0372L7.15966 15.0348L8.94229 13.2571Z" fill="white"/>
<path d="M16.3156 12.0005L18.0951 10.221L19.8746 12.0005L18.0951 13.78L16.3156 12.0005Z" fill="white"/>
<path d="M13.8063 11.9996L12.0013 10.1934L10.6665 11.5282L10.5122 11.6812L10.1963 11.9971L10.1938 11.9996L10.1963 12.0034L12.0013 13.8071L13.8063 12.0009L13.8075 11.9996H13.8063Z" fill="white"/>
</svg>
