<svg width="32" height="32" viewBox="0 0 32 32" fill="none" xmlns="http://www.w3.org/2000/svg">
<g clip-path="url(#clip0_2463_17450)">
<g filter="url(#filter0_bi_2463_17450)">
<path d="M20.2195 17.1356H14.2551C14.0793 17.1356 13.9107 17.2057 13.7864 17.3304C13.6622 17.4552 13.5923 17.6244 13.5923 17.8009C13.5923 18.3302 13.3829 18.8378 13.01 19.2121C12.6372 19.5864 12.1315 19.7966 11.6042 19.7966C11.0769 19.7966 10.5712 19.5864 10.1984 19.2121C9.82551 18.8378 9.61604 18.3302 9.61604 17.8009C9.61604 17.6244 9.54622 17.4552 9.42194 17.3304C9.29765 17.2057 9.12909 17.1356 8.95333 17.1356H2.98889C2.81312 17.1356 2.64456 17.2057 2.52028 17.3304C2.39599 17.4552 2.32617 17.6244 2.32617 17.8009V20.4619C2.32694 21.1674 2.60647 21.8438 3.10344 22.3427C3.60041 22.8416 4.27422 23.1222 4.97703 23.123H18.2313C18.9342 23.1222 19.608 22.8416 20.1049 22.3427C20.6019 21.8438 20.8814 21.1674 20.8822 20.4619V17.8009C20.8822 17.6244 20.8124 17.4552 20.6881 17.3304C20.5638 17.2057 20.3953 17.1356 20.2195 17.1356Z" fill="#0036E5"/>
<path d="M20.8598 10.3116L19.5406 5.34586C19.278 3.97957 18.2951 3.16504 16.9059 3.16504H6.30247C5.60661 3.16504 5.01845 3.36004 4.5587 3.74465C4.09894 4.12926 3.8032 4.66188 3.66817 5.34378L2.34854 10.3116C2.33365 10.3675 2.32613 10.4251 2.32617 10.4829V12.4787C2.32617 13.9461 3.51533 15.8051 4.97703 15.8051H18.2313C19.693 15.8051 20.8822 13.9461 20.8822 12.4787V10.4829C20.8822 10.4251 20.8747 10.3675 20.8598 10.3116ZM19.249 9.81768H14.2551C14.0803 9.8168 13.9124 9.88558 13.7881 10.0089C13.6638 10.1322 13.5934 10.3001 13.5923 10.4755C13.5923 11.0048 13.3829 11.5124 13.01 11.8867C12.6372 12.261 12.1315 12.4713 11.6042 12.4713C11.0769 12.4713 10.5712 12.261 10.1984 11.8867C9.82551 11.5124 9.61604 11.0048 9.61604 10.4755C9.61495 10.3001 9.54454 10.1322 9.42028 10.0089C9.29602 9.88558 9.12807 9.8168 8.95333 9.81768H3.95935C3.94664 9.81768 3.9341 9.81473 3.92271 9.80908C3.91131 9.80343 3.90136 9.79522 3.89364 9.78509C3.88591 9.77496 3.8806 9.76318 3.87814 9.75066C3.87567 9.73814 3.87611 9.72522 3.87941 9.7129L4.96502 5.6182C5.11206 4.85273 5.53703 4.49557 6.30247 4.49557H16.9059C17.6759 4.49557 18.1005 4.85024 18.2417 5.61196L19.329 9.7129C19.3323 9.72522 19.3327 9.73814 19.3302 9.75066C19.3278 9.76318 19.3225 9.77496 19.3147 9.78509C19.307 9.79522 19.2971 9.80343 19.2857 9.80908C19.2743 9.81473 19.2617 9.81768 19.249 9.81768Z" fill="#0036E5"/>
</g>
</g>
<g filter="url(#filter1_bi_2463_17450)">
<path d="M21.5 13.875C17.0129 13.875 13.375 17.5129 13.375 22C13.375 26.4871 17.0129 30.125 21.5 30.125C25.9871 30.125 29.625 26.4871 29.625 22C29.625 17.5129 25.9871 13.875 21.5 13.875ZM25.25 23.25H21.5C21.3342 23.25 21.1753 23.1842 21.0581 23.0669C20.9408 22.9497 20.875 22.7908 20.875 22.625V17C20.875 16.8342 20.9408 16.6753 21.0581 16.5581C21.1753 16.4408 21.3342 16.375 21.5 16.375C21.6658 16.375 21.8247 16.4408 21.9419 16.5581C22.0592 16.6753 22.125 16.8342 22.125 17V22H25.25C25.4158 22 25.5747 22.0658 25.6919 22.1831C25.8092 22.3003 25.875 22.4592 25.875 22.625C25.875 22.7908 25.8092 22.9497 25.6919 23.0669C25.5747 23.1842 25.4158 23.25 25.25 23.25Z" fill="#BCCBF1" fill-opacity="0.5"/>
</g>
<defs>
<filter id="filter0_bi_2463_17450" x="-2.67383" y="-1.83496" width="28.5566" height="29.958" filterUnits="userSpaceOnUse" color-interpolation-filters="sRGB">
<feFlood flood-opacity="0" result="BackgroundImageFix"/>
<feGaussianBlur in="BackgroundImage" stdDeviation="2.5"/>
<feComposite in2="SourceAlpha" operator="in" result="effect1_backgroundBlur_2463_17450"/>
<feBlend mode="normal" in="SourceGraphic" in2="effect1_backgroundBlur_2463_17450" result="shape"/>
<feColorMatrix in="SourceAlpha" type="matrix" values="0 0 0 0 0 0 0 0 0 0 0 0 0 0 0 0 0 0 127 0" result="hardAlpha"/>
<feOffset dx="0.2" dy="0.1"/>
<feGaussianBlur stdDeviation="0.5"/>
<feComposite in2="hardAlpha" operator="arithmetic" k2="-1" k3="1"/>
<feColorMatrix type="matrix" values="0 0 0 0 1 0 0 0 0 1 0 0 0 0 1 0 0 0 0.6 0"/>
<feBlend mode="normal" in2="shape" result="effect2_innerShadow_2463_17450"/>
</filter>
<filter id="filter1_bi_2463_17450" x="8.375" y="8.875" width="26.25" height="26.25" filterUnits="userSpaceOnUse" color-interpolation-filters="sRGB">
<feFlood flood-opacity="0" result="BackgroundImageFix"/>
<feGaussianBlur in="BackgroundImage" stdDeviation="2.5"/>
<feComposite in2="SourceAlpha" operator="in" result="effect1_backgroundBlur_2463_17450"/>
<feBlend mode="normal" in="SourceGraphic" in2="effect1_backgroundBlur_2463_17450" result="shape"/>
<feColorMatrix in="SourceAlpha" type="matrix" values="0 0 0 0 0 0 0 0 0 0 0 0 0 0 0 0 0 0 127 0" result="hardAlpha"/>
<feOffset dx="0.2" dy="0.1"/>
<feGaussianBlur stdDeviation="0.5"/>
<feComposite in2="hardAlpha" operator="arithmetic" k2="-1" k3="1"/>
<feColorMatrix type="matrix" values="0 0 0 0 1 0 0 0 0 1 0 0 0 0 1 0 0 0 0.6 0"/>
<feBlend mode="normal" in2="shape" result="effect2_innerShadow_2463_17450"/>
</filter>
<clipPath id="clip0_2463_17450">
<rect width="21.2069" height="21.2885" fill="white" transform="translate(1 2.5)"/>
</clipPath>
</defs>
</svg>
