<svg width="20" height="20" viewBox="0 0 20 20" fill="none" xmlns="http://www.w3.org/2000/svg">
<path d="M0 10C0 4.47715 4.47715 0 10 0C15.5228 0 20 4.47715 20 10C20 15.5228 15.5228 20 10 20C4.47715 20 0 15.5228 0 10Z" fill="#334155"/>
<path d="M9.88458 8.01186L14.4567 10.0862L9.88458 2.5V8.01186Z" fill="white" fill-opacity="0.5"/>
<path d="M9.88461 8.00829V2.5L5.3125 10.0862L9.88461 8.00829Z" fill="white"/>
<path d="M9.88458 17.396L14.4594 10.9531L9.88462 13.6543L9.88458 17.396Z" fill="white" fill-opacity="0.5"/>
<path d="M5.3125 10.9531L9.88461 17.396V13.6543L5.3125 10.9531Z" fill="white"/>
<path d="M9.88458 8.00781V12.7885L14.4566 10.086L9.88458 8.00781Z" fill="white" fill-opacity="0.25"/>
<path d="M9.88453 8.00781L5.3125 10.0859L9.88453 12.7884V8.00781Z" fill="white" fill-opacity="0.5"/>
</svg>
