<svg width="20" height="20" viewBox="0 0 20 20" fill="none" xmlns="http://www.w3.org/2000/svg">
<path d="M0 10C0 4.47715 4.47715 0 10 0C15.5228 0 20 4.47715 20 10C20 15.5228 15.5228 20 10 20C4.47715 20 0 15.5228 0 10Z" fill="#FFAB36"/>
<path d="M14.4102 8.57551C14.609 7.24478 13.5958 6.52936 12.2101 6.05214L12.6602 4.2496L11.5625 3.97619L11.1241 5.73134C10.8359 5.65953 10.5397 5.59133 10.2453 5.52453L10.6853 3.75778L9.58877 3.48438L9.14006 5.28622L6.9268 4.73801L6.63479 5.91014C6.63479 5.91014 7.44902 6.09675 7.43182 6.10835C7.87623 6.21935 7.95683 6.51336 7.94323 6.74656L6.7118 11.6847C6.6574 11.8197 6.51959 12.0221 6.20898 11.9447C6.21998 11.9607 5.41136 11.7447 5.41136 11.7447L4.86655 13.0026L7.07661 13.5606L6.62239 15.3842L7.71842 15.6576L8.16844 13.8537C8.46844 13.9349 8.75845 14.0099 9.04266 14.0805L8.59445 15.876L9.69188 16.1494L10.1461 14.3294C12.0174 14.6834 13.4247 14.5406 14.0162 12.8493C14.4934 11.4868 13.9928 10.7008 13.0082 10.188C13.7252 10.022 14.2652 9.55054 14.4093 8.57621L14.4102 8.57551ZM11.9021 12.0915C11.5621 13.454 9.26857 12.7177 8.52435 12.5327L9.12696 10.1172C9.87078 10.3028 12.2559 10.6704 11.9025 12.0913L11.9021 12.0915ZM12.2425 8.55621C11.9331 9.79625 10.0234 9.16623 9.40357 9.01162L9.94918 6.82017C10.5692 6.97497 12.5644 7.26318 12.2417 8.55611" fill="white"/>
</svg>
