<svg width="81" height="24" viewBox="0 0 81 24" fill="none" xmlns="http://www.w3.org/2000/svg">
<path d="M76.1094 17.3745C76.1094 16.2013 77.0607 15.25 78.2339 15.25C79.4072 15.25 80.3584 16.2013 80.3584 17.3745C80.3584 18.5478 79.4072 19.4991 78.2339 19.4991C77.0607 19.5308 76.1094 18.5478 76.1094 17.3745Z" fill="white"/>
<path d="M12.2082 11.6035C12.2082 14.0768 11.5423 15.9477 10.2105 17.2795C8.87869 18.6113 7.03952 19.2772 4.62959 19.2772H0V4.53223H4.97841C7.2615 4.53223 9.06894 5.13471 10.3373 6.33967C11.574 7.57635 12.2082 9.32038 12.2082 11.6035ZM8.18107 11.762C8.18107 10.3985 7.92739 9.4155 7.38833 8.7496C6.88098 8.0837 6.08824 7.79832 5.01011 7.79832H3.86857V16.0428H4.75644C5.9614 16.0428 6.78586 15.694 7.35663 14.9964C7.89569 14.2354 8.18107 13.1889 8.18107 11.762Z" fill="white"/>
<path d="M28.8272 4.5H25.1172V19.3084H28.8272V4.5Z" fill="white"/>
<path d="M40.9366 13.7591C40.9366 15.5348 40.4609 16.9618 39.5097 17.9447C38.5584 18.9277 37.2266 19.4351 35.546 19.4351C33.9288 19.4351 32.6287 18.9277 31.6774 17.913C30.7261 16.8983 30.2188 15.5031 30.2188 13.7591C30.2188 11.9833 30.6944 10.5881 31.6457 9.60513C32.597 8.62213 33.9288 8.14648 35.6094 8.14648C36.6558 8.14648 37.6071 8.36845 38.4315 8.81239C39.256 9.25632 39.8585 9.92222 40.3024 10.8101C40.7146 11.6028 40.9366 12.5858 40.9366 13.7591ZM33.9922 13.7591C33.9922 14.7104 34.119 15.4397 34.3727 15.9153C34.6264 16.391 35.0386 16.6447 35.6094 16.6447C36.1802 16.6447 36.5924 16.391 36.8143 15.9153C37.0363 15.4397 37.1949 14.7104 37.1949 13.7591C37.1949 12.8078 37.068 12.1102 36.8143 11.6345C36.5924 11.1589 36.1484 10.9369 35.6094 10.9369C35.0703 10.9369 34.6581 11.1589 34.4044 11.6345C34.119 12.1102 33.9922 12.8395 33.9922 13.7591Z" fill="white"/>
<path d="M46.1397 8.30664H42.4297V19.3099H46.1397V8.30664Z" fill="white"/>
<path d="M46.1397 4.5H42.4297V6.97335H46.1397V4.5Z" fill="white"/>
<path d="M53.619 16.4856C54.1264 16.4856 54.7289 16.3588 55.3948 16.1051V18.8955C54.8874 19.1175 54.4435 19.276 53.9678 19.3712C53.5239 19.4663 52.9848 19.498 52.3824 19.498C51.1457 19.498 50.2578 19.1809 49.687 18.5467C49.148 17.9125 48.8626 16.9612 48.8626 15.6929V11.1901H47.5625V8.36794H48.8626V5.54578L52.6043 4.87988V8.27281H54.9508V11.095H52.6043V15.3758C52.636 16.1051 52.9531 16.4856 53.619 16.4856Z" fill="white"/>
<path d="M62.1815 16.4866C62.6889 16.4866 63.2914 16.3598 63.9573 16.1061V18.8966C63.4499 19.1185 63.006 19.2771 62.5303 19.3722C62.0864 19.4673 61.5473 19.499 60.9449 19.499C59.7082 19.499 58.8203 19.1819 58.2495 18.5478C57.7105 17.9136 57.4251 16.9623 57.4251 15.6939V11.1911H56.125V8.36897H57.4251V5.54682L61.1668 4.94434V8.30555H63.5133V11.1277H61.1668V15.4085C61.1985 16.1061 61.5156 16.4866 62.1815 16.4866Z" fill="white"/>
<path d="M73.8493 9.3831C72.9614 8.52694 71.7247 8.08301 70.1075 8.08301C68.3952 8.08301 67.0951 8.55865 66.2073 9.57336C65.2877 10.5564 64.8438 11.9833 64.8438 13.8542C64.8438 15.6299 65.3194 17.0251 66.3024 18.0081C67.2854 18.9594 68.6806 19.4668 70.4564 19.4668C71.3125 19.4668 72.0418 19.4033 72.676 19.3082C73.3102 19.1814 73.881 18.9911 74.4518 18.674L73.881 16.2007C73.4688 16.3592 73.0565 16.5178 72.676 16.6129C72.137 16.7397 71.5345 16.8031 70.9003 16.8031C70.2027 16.8031 69.6319 16.6446 69.188 16.2958C68.7757 15.947 68.5538 15.4713 68.5221 14.8372H75.1176V13.0931C75.1811 11.5076 74.7371 10.2393 73.8493 9.3831ZM68.6489 12.4272C68.7123 11.8247 68.8709 11.3808 69.1562 11.0954C69.4416 10.81 69.8221 10.6832 70.2661 10.6832C70.7417 10.6832 71.1223 10.8417 71.4076 11.1588C71.693 11.4759 71.8199 11.8882 71.8516 12.4272H68.6489Z" fill="white"/>
<path d="M22.3493 9.3831C21.4614 8.52694 20.2247 8.08301 18.6076 8.08301C16.8952 8.08301 15.5951 8.55865 14.7073 9.57336C13.7877 10.5564 13.3438 11.9833 13.3438 13.8542C13.3438 15.6299 13.8194 17.0251 14.8024 18.0081C15.7854 18.9594 17.1806 19.4668 18.9564 19.4668C19.8125 19.4668 20.5418 19.4033 21.176 19.3082C21.8102 19.1814 22.381 18.9911 22.9518 18.674L22.381 16.2007C21.9688 16.3592 21.5565 16.5178 21.176 16.6129C20.637 16.7397 20.0345 16.8031 19.4003 16.8031C18.7027 16.8031 18.1319 16.6446 17.688 16.2958C17.2757 15.947 17.0538 15.4713 17.0221 14.8372H23.6177V13.0931C23.6494 11.5076 23.2372 10.2393 22.3493 9.3831ZM17.1172 12.4272C17.1806 11.8247 17.3392 11.3808 17.6245 11.0954C17.9099 10.81 18.2904 10.6832 18.7344 10.6832C19.21 10.6832 19.5906 10.8417 19.8759 11.1588C20.1613 11.4759 20.2882 11.8882 20.3199 12.4272H17.1172Z" fill="white"/>
</svg>
