<svg width="61" height="24" viewBox="0 0 61 24" fill="none" xmlns="http://www.w3.org/2000/svg">
<path d="M27.4258 11.7481C29.3288 11.1045 29.6646 9.50932 29.6646 8.22201C29.6646 6.23507 28.2654 4.5 24.0956 4.5H16.3438V19.472H24.0676C28.2654 19.472 29.8046 17.3172 29.8046 15.1623C29.8046 12.5597 27.4258 11.7481 27.4258 11.7481ZM20.0098 7.74627H25.215H25.243H25.271C25.8587 7.85821 26.2784 8.36194 26.2784 8.94962C26.2784 9.5653 25.8307 10.125 25.215 10.209H20.0098V7.74627ZM24.9911 15.9739H20.0098V13.4552H25.1031H25.1311C25.7747 13.5392 26.2505 14.0429 26.2505 14.6866C26.2505 15.3862 25.6628 15.9739 24.9911 15.9739Z" fill="white"/>
<path d="M47.1797 4.5H60.3047V7.77426H50.8177L50.8457 10.181H59.3812V13.4552H50.8457V16.0858H60.3047V19.5H47.1797V4.5Z" fill="white"/>
<path d="M39.5448 4.52832H31.625V19.5003H35.2631V13.4556H39.2649C40.4123 13.4835 41.3078 14.4071 41.3078 15.5824V19.5003H44.8619V14.6589C44.8619 12.4201 42.7071 11.7485 42.7071 11.7485C42.7071 11.7485 44.9179 11.0768 44.9179 8.44623C44.9179 5.19996 42.1474 4.52832 39.5448 4.52832ZM41.5597 9.17384C41.5037 9.67757 41 10.2093 40.3843 10.2093H35.2631V7.80257H40.3843C41 7.80257 41.4757 8.25033 41.5597 8.83802V9.17384Z" fill="white"/>
<path d="M13.9645 15.8619C13.9086 15.8619 8.98321 15.9459 7.27612 15.806C4.53358 15.5261 3.5541 13.5112 3.5541 11.8601C3.5541 9.78917 4.95336 8.27798 7.13619 7.99813C8.17164 7.85821 13.8526 7.91418 13.9086 7.91418H14.0205V4.5H13.9086H7.47201C6.7444 4.55597 5.56903 4.61194 4.36567 5.11567C3.1903 5.64739 2.18284 6.45896 1.42724 7.49441C0.503731 8.8097 0 10.3489 0 11.972C0 12.4757 0.0279851 12.9795 0.11194 13.4832C0.587686 15.75 2.07089 17.625 4.19776 18.6325C4.92537 18.9403 6.01679 19.3321 8.25559 19.444L9.45895 19.472H13.9366H14.0485V15.8619H13.9645Z" fill="white"/>
</svg>
