<svg width="101" height="24" viewBox="0 0 101 24" fill="none" xmlns="http://www.w3.org/2000/svg">
<g clip-path="url(#clip0_4445_208464)">
<path fill-rule="evenodd" clip-rule="evenodd" d="M20.7561 3.68478L20.8824 4.44827C20.982 5.15853 21.028 5.87526 21.0204 6.59243C21.0195 8.17727 20.8284 9.75623 20.4509 11.2955C19.9405 13.3867 19.0514 15.3667 17.8278 17.1375C16.4137 19.1713 14.3692 21.1716 11.389 22.7789L11.0244 22.9754L10.6598 22.7789C7.6796 21.1716 5.63589 19.1713 4.22104 17.1375C2.99738 15.3667 2.10833 13.3867 1.59787 11.2955C1.22051 9.75653 1.02932 8.17781 1.02842 6.59327C1.02071 5.87609 1.06683 5.15936 1.16639 4.44911L1.29266 3.68561C1.30343 3.62335 1.30178 3.55956 1.2878 3.49794C1.27382 3.43632 1.24778 3.37807 1.21118 3.32655C1.17459 3.27504 1.12816 3.23127 1.07457 3.19779C1.02099 3.1643 0.961306 3.14174 0.898966 3.13143C0.836626 3.12111 0.772864 3.12323 0.711346 3.13767C0.649828 3.15211 0.59178 3.17859 0.540541 3.21557C0.489301 3.25254 0.445887 3.2993 0.412798 3.35313C0.379709 3.40697 0.3576 3.46682 0.347746 3.52923L0.22148 4.29273C0.112873 5.05463 0.0622765 5.82368 0.0701269 6.59327C0.0707287 8.25587 0.271183 9.91235 0.667174 11.5271C1.20621 13.7323 2.14459 15.82 3.43584 17.6869C4.92847 19.8353 7.0934 21.9476 10.2091 23.6243L10.8011 23.9429C10.8709 23.9806 10.9489 24.0004 11.0281 24.0004C11.1074 24.0004 11.1855 23.9806 11.2552 23.9429L11.8464 23.6243C14.9587 21.9468 17.1245 19.8353 18.6196 17.6869C19.9102 15.8201 20.848 13.7327 21.3866 11.528C21.7826 9.91319 21.9831 8.25671 21.9837 6.59411C21.9915 5.82452 21.9409 5.05547 21.8323 4.29357L21.706 3.53007C21.6962 3.46765 21.6741 3.4078 21.641 3.35397C21.6079 3.30013 21.5645 3.25338 21.5133 3.2164C21.462 3.17942 21.4039 3.15295 21.3424 3.13851C21.2809 3.12407 21.2172 3.12195 21.1548 3.13226C21.0925 3.14258 21.0328 3.16513 20.9792 3.19862C20.9256 3.23211 20.8792 3.27587 20.8426 3.32739C20.806 3.3789 20.78 3.43715 20.766 3.49878C20.752 3.5604 20.7504 3.62418 20.7612 3.68645L20.7561 3.68478Z" fill="white"/>
<path fill-rule="evenodd" clip-rule="evenodd" d="M3.90925 3.1645L11.0256 0.990266L18.3007 3.21133C18.4225 3.24774 18.5538 3.23442 18.6658 3.17428C18.7778 3.11415 18.8614 3.01209 18.8983 2.89045C18.9353 2.7688 18.9225 2.63749 18.8629 2.52523C18.8032 2.41297 18.7015 2.32891 18.58 2.29146L11.1652 0.0277527C11.0742 -0.000136317 10.9769 -0.000136317 10.8859 0.0277527L3.62912 2.24296C3.56847 2.26109 3.51201 2.29102 3.46296 2.33103C3.41391 2.37104 3.37326 2.42034 3.34331 2.47611C3.31337 2.53187 3.29474 2.593 3.28848 2.65599C3.28223 2.71897 3.28848 2.78257 3.30687 2.84314C3.32526 2.90371 3.35543 2.96004 3.39564 3.00892C3.43586 3.05779 3.48534 3.09824 3.54123 3.12795C3.59712 3.15765 3.65834 3.17602 3.72134 3.18201C3.78435 3.18799 3.84793 3.18147 3.90842 3.16282L3.90925 3.1645Z" fill="white"/>
<path fill-rule="evenodd" clip-rule="evenodd" d="M0.395086 3.82526L10.5974 23.738C10.6372 23.8158 10.6976 23.8813 10.7719 23.9272C10.8463 23.9732 10.9318 23.9979 11.0192 23.9987C11.1065 23.9994 11.1925 23.9763 11.2676 23.9316C11.3428 23.887 11.4043 23.8226 11.4454 23.7455L17.6672 12.1091L17.6764 12.0908L21.6587 3.81188C21.7126 3.69763 21.7193 3.56669 21.6773 3.44753C21.6353 3.32837 21.5479 3.23061 21.4342 3.17552C21.3205 3.12043 21.1896 3.11245 21.07 3.15331C20.9504 3.19418 20.8519 3.28059 20.7956 3.39375L16.82 11.6659L11.0381 22.487L1.24723 3.38706C1.21902 3.33036 1.17983 3.27981 1.13193 3.23835C1.08404 3.1969 1.0284 3.16536 0.968221 3.14556C0.908053 3.12576 0.844555 3.11811 0.781399 3.12303C0.718249 3.12795 0.656701 3.14536 0.600325 3.17424C0.543947 3.20312 0.493862 3.2429 0.452969 3.29128C0.412078 3.33965 0.381192 3.39566 0.362102 3.45605C0.343013 3.51646 0.336098 3.58004 0.34176 3.64313C0.347422 3.70622 0.365548 3.76755 0.395086 3.82359V3.82526Z" fill="white"/>
<path fill-rule="evenodd" clip-rule="evenodd" d="M5.27953 12.6932H16.6248C16.7517 12.6932 16.8735 12.6428 16.9633 12.5529C17.0531 12.4632 17.1035 12.3414 17.1035 12.2144C17.1035 12.0875 17.0531 11.9657 16.9633 11.8759C16.8735 11.7861 16.7517 11.7357 16.6248 11.7357H5.27953C5.15256 11.7357 5.03079 11.7861 4.941 11.8759C4.85122 11.9657 4.80078 12.0875 4.80078 12.2144C4.80078 12.3414 4.85122 12.4632 4.941 12.5529C5.03079 12.6428 5.15256 12.6932 5.27953 12.6932ZM36.9244 8.56215H29.5438C29.4162 8.56281 29.2941 8.61381 29.2039 8.70399C29.1137 8.79417 29.0628 8.91627 29.0621 9.04383V14.9678C29.063 15.0952 29.114 15.2172 29.2041 15.3074C29.2943 15.3975 29.4163 15.4485 29.5438 15.4494H36.9244V16.4529H29.5438C29.349 16.4538 29.1561 16.4161 28.976 16.342C28.7959 16.2678 28.6323 16.1588 28.4946 16.0211C28.3569 15.8834 28.2479 15.7198 28.1737 15.5397C28.0996 15.3596 28.0619 15.1667 28.0628 14.972V9.04803C28.0619 8.85327 28.0996 8.66031 28.1737 8.48025C28.2479 8.30013 28.3569 8.13651 28.4946 7.99881C28.6323 7.86111 28.7959 7.75209 28.976 7.67799C29.1561 7.60383 29.349 7.56615 29.5438 7.56705H36.9244V8.56215ZM50.7834 7.56201V8.56551H43.6754V11.4982H49.3885V12.51H43.6745V15.4478H50.7825V16.4513H42.671V7.56201H50.7834Z" fill="white"/>
<path d="M65.4196 9.0557V11.6598C65.4208 11.8545 65.383 12.0474 65.3086 12.2274C65.2342 12.4074 65.1256 12.571 64.9876 12.7087C64.8502 12.8464 64.6864 12.9554 64.5064 13.0296C64.3264 13.1037 64.1332 13.1415 63.9388 13.1407H62.5816L65.3704 16.4481H64.0498L61.273 13.1407H58.0115C57.8503 13.1325 57.6895 13.1161 57.5299 13.0914V16.4481H56.5264V7.57472H63.931C64.126 7.57394 64.3186 7.61174 64.4986 7.6859C64.6792 7.76006 64.8424 7.86908 64.9804 8.00678C65.1178 8.14448 65.227 8.30804 65.3008 8.48804C65.3752 8.6681 65.413 8.861 65.4124 9.0557H65.4196ZM58.0149 12.1289H63.9388C64.0006 12.1297 64.0618 12.1181 64.1194 12.0948C64.1764 12.0715 64.2286 12.037 64.2724 11.9932C64.3162 11.9495 64.3504 11.8975 64.3738 11.8402C64.3972 11.7829 64.4086 11.7216 64.408 11.6598V9.0557C64.4086 8.993 64.3972 8.93066 64.3744 8.8724C64.351 8.81414 64.3162 8.76104 64.2724 8.71622C64.2298 8.67032 64.1782 8.6339 64.1206 8.60942C64.063 8.58488 64.0006 8.57288 63.9382 8.57402H58.0141C57.8865 8.57468 57.7644 8.62568 57.6742 8.71586C57.584 8.80604 57.533 8.9282 57.5324 9.0557V11.6598C57.5311 11.7224 57.5431 11.7846 57.5676 11.8422C57.5921 11.8999 57.6286 11.9517 57.6745 11.9943C57.7195 12.0382 57.7727 12.0727 57.8311 12.0958C57.8896 12.119 57.952 12.1302 58.0149 12.1289Z" fill="white"/>
<path fill-rule="evenodd" clip-rule="evenodd" d="M70.7275 7.56201H79.6099V8.56551H75.6799V16.452H74.6761V8.56551H70.7275V7.56201ZM84.9937 16.4479V7.56201H85.9975V16.4479H84.9937ZM99.3343 7.56201H100.618L96.9037 12.005L100.63 16.4479H99.3343L96.0271 12.5109H93.1639V16.4479H92.1535V7.56201H93.1657V11.4982H96.0289L99.3343 7.56201Z" fill="white"/>
</g>
<defs>
<clipPath id="clip0_4445_208464">
<rect width="100.8" height="24" fill="white"/>
</clipPath>
</defs>
</svg>
