<?xml version="1.0" encoding="utf-8"?>
<!-- Generator: Adobe Illustrator 24.3.0, SVG Export Plug-In . SVG Version: 6.00 Build 0)  -->
<svg version="1.1" id="Layer_1" xmlns="http://www.w3.org/2000/svg" xmlns:xlink="http://www.w3.org/1999/xlink" x="0px" y="0px"
	 viewBox="0 0 384 384" style="enable-background:new 0 0 384 384;" xml:space="preserve">
<style type="text/css">
	.st0{display:none;}
	.st1{display:inline;fill:none;stroke:#231F20;stroke-width:0.25;stroke-miterlimit:10;}
	.st2{display:none;opacity:0.2;}
	.st3{fill:url(#SVGID_1_);}
	.st4{fill:url(#SVGID_2_);}
	.st5{fill:url(#SVGID_3_);}
	.st6{fill:url(#SVGID_4_);}
	.st7{fill:url(#SVGID_5_);}
</style>
<g class="st0">
	<line class="st1" x1="496" y1="795.3" x2="496" y2="987.3"/>
	<line class="st1" x1="504" y1="795.3" x2="504" y2="987.3"/>
	<line class="st1" x1="512" y1="795.3" x2="512" y2="987.3"/>
	<line class="st1" x1="520" y1="795.3" x2="520" y2="987.3"/>
	<line class="st1" x1="528" y1="795.3" x2="528" y2="987.3"/>
	<line class="st1" x1="536" y1="795.3" x2="536" y2="987.3"/>
	<line class="st1" x1="544" y1="795.3" x2="544" y2="987.3"/>
	<line class="st1" x1="552" y1="795.3" x2="552" y2="987.3"/>
	<line class="st1" x1="560" y1="795.3" x2="560" y2="987.3"/>
	<line class="st1" x1="568" y1="795.3" x2="568" y2="987.3"/>
	<line class="st1" x1="576" y1="795.3" x2="576" y2="987.3"/>
	<line class="st1" x1="584" y1="795.3" x2="584" y2="987.3"/>
	<line class="st1" x1="592" y1="795.3" x2="592" y2="987.3"/>
	<line class="st1" x1="600" y1="795.3" x2="600" y2="987.3"/>
	<line class="st1" x1="608" y1="795.3" x2="608" y2="987.3"/>
	<line class="st1" x1="616" y1="795.3" x2="616" y2="987.3"/>
	<line class="st1" x1="624" y1="795.3" x2="624" y2="987.3"/>
	<line class="st1" x1="632" y1="795.3" x2="632" y2="987.3"/>
	<line class="st1" x1="640" y1="795.3" x2="640" y2="987.3"/>
	<line class="st1" x1="648" y1="795.3" x2="648" y2="987.3"/>
	<line class="st1" x1="656" y1="795.3" x2="656" y2="987.3"/>
	<line class="st1" x1="664" y1="795.3" x2="664" y2="987.3"/>
	<line class="st1" x1="672" y1="795.3" x2="672" y2="987.3"/>
	<line class="st1" x1="680" y1="795.3" x2="680" y2="987.3"/>
	<line class="st1" x1="688" y1="795.3" x2="688" y2="987.3"/>
	<line class="st1" x1="696" y1="795.3" x2="696" y2="987.3"/>
	<line class="st1" x1="704" y1="795.3" x2="704" y2="987.3"/>
	<line class="st1" x1="712" y1="795.3" x2="712" y2="987.3"/>
	<line class="st1" x1="720" y1="795.3" x2="720" y2="987.3"/>
	<line class="st1" x1="728" y1="795.3" x2="728" y2="987.3"/>
	<line class="st1" x1="736" y1="795.3" x2="736" y2="987.3"/>
	<line class="st1" x1="744" y1="795.3" x2="744" y2="987.3"/>
	<line class="st1" x1="752" y1="795.3" x2="752" y2="987.3"/>
	<line class="st1" x1="760" y1="795.3" x2="760" y2="987.3"/>
	<line class="st1" x1="768" y1="795.3" x2="768" y2="987.3"/>
	<line class="st1" x1="776" y1="795.3" x2="776" y2="987.3"/>
	<line class="st1" x1="784" y1="795.3" x2="784" y2="987.3"/>
	<line class="st1" x1="792" y1="795.3" x2="792" y2="987.3"/>
	<line class="st1" x1="800" y1="795.3" x2="800" y2="987.3"/>
	<line class="st1" x1="808" y1="795.3" x2="808" y2="987.3"/>
	<line class="st1" x1="816" y1="795.3" x2="816" y2="987.3"/>
	<line class="st1" x1="824" y1="795.3" x2="824" y2="987.3"/>
	<line class="st1" x1="832" y1="795.3" x2="832" y2="987.3"/>
	<line class="st1" x1="840" y1="795.3" x2="840" y2="987.3"/>
	<line class="st1" x1="848" y1="795.3" x2="848" y2="987.3"/>
	<line class="st1" x1="856" y1="795.3" x2="856" y2="987.3"/>
	<line class="st1" x1="864" y1="795.3" x2="864" y2="987.3"/>
	<line class="st1" x1="872" y1="795.3" x2="872" y2="987.3"/>
	<line class="st1" x1="880" y1="795.3" x2="880" y2="987.3"/>
	<line class="st1" x1="888" y1="795.3" x2="888" y2="987.3"/>
	<line class="st1" x1="896" y1="795.3" x2="896" y2="987.3"/>
	<line class="st1" x1="904" y1="795.3" x2="904" y2="987.3"/>
	<line class="st1" x1="912" y1="795.3" x2="912" y2="987.3"/>
	<line class="st1" x1="920" y1="795.3" x2="920" y2="987.3"/>
	<line class="st1" x1="920" y1="803.3" x2="496" y2="803.3"/>
	<line class="st1" x1="920" y1="811.3" x2="496" y2="811.3"/>
	<line class="st1" x1="920" y1="819.3" x2="496" y2="819.3"/>
	<line class="st1" x1="920" y1="827.3" x2="496" y2="827.3"/>
	<line class="st1" x1="920" y1="835.3" x2="496" y2="835.3"/>
	<line class="st1" x1="920" y1="843.3" x2="496" y2="843.3"/>
	<line class="st1" x1="920" y1="851.3" x2="496" y2="851.3"/>
	<line class="st1" x1="920" y1="859.3" x2="496" y2="859.3"/>
	<line class="st1" x1="920" y1="867.3" x2="496" y2="867.3"/>
	<line class="st1" x1="920" y1="875.3" x2="496" y2="875.3"/>
	<line class="st1" x1="920" y1="883.3" x2="496" y2="883.3"/>
	<line class="st1" x1="920" y1="891.3" x2="496" y2="891.3"/>
	<line class="st1" x1="920" y1="899.3" x2="496" y2="899.3"/>
	<line class="st1" x1="920" y1="907.3" x2="496" y2="907.3"/>
	<line class="st1" x1="920" y1="915.3" x2="496" y2="915.3"/>
	<line class="st1" x1="920" y1="923.3" x2="496" y2="923.3"/>
	<line class="st1" x1="920" y1="931.3" x2="496" y2="931.3"/>
	<line class="st1" x1="920" y1="939.3" x2="496" y2="939.3"/>
	<line class="st1" x1="920" y1="947.3" x2="496" y2="947.3"/>
	<line class="st1" x1="920" y1="955.3" x2="496" y2="955.3"/>
	<line class="st1" x1="920" y1="963.3" x2="496" y2="963.3"/>
	<line class="st1" x1="920" y1="971.3" x2="496" y2="971.3"/>
	<line class="st1" x1="920" y1="979.3" x2="496" y2="979.3"/>
</g>
<g class="st0">
	<line class="st1" x1="496.1" y1="211.3" x2="496.1" y2="403.3"/>
	<line class="st1" x1="504.1" y1="211.3" x2="504.1" y2="403.3"/>
	<line class="st1" x1="512.1" y1="211.3" x2="512.1" y2="403.3"/>
	<line class="st1" x1="520.1" y1="211.3" x2="520.1" y2="403.3"/>
	<line class="st1" x1="528.1" y1="211.3" x2="528.1" y2="403.3"/>
	<line class="st1" x1="536.1" y1="211.3" x2="536.1" y2="403.3"/>
	<line class="st1" x1="544.1" y1="211.3" x2="544.1" y2="403.3"/>
	<line class="st1" x1="552.1" y1="211.3" x2="552.1" y2="403.3"/>
	<line class="st1" x1="560.1" y1="211.3" x2="560.1" y2="403.3"/>
	<line class="st1" x1="568.1" y1="211.3" x2="568.1" y2="403.3"/>
	<line class="st1" x1="576.1" y1="211.3" x2="576.1" y2="403.3"/>
	<line class="st1" x1="584.1" y1="211.3" x2="584.1" y2="403.3"/>
	<line class="st1" x1="592.1" y1="211.3" x2="592.1" y2="403.3"/>
	<line class="st1" x1="600.1" y1="211.3" x2="600.1" y2="403.3"/>
	<line class="st1" x1="608.1" y1="211.3" x2="608.1" y2="403.3"/>
	<line class="st1" x1="616.1" y1="211.3" x2="616.1" y2="403.3"/>
	<line class="st1" x1="624.1" y1="211.3" x2="624.1" y2="403.3"/>
	<line class="st1" x1="632.1" y1="211.3" x2="632.1" y2="403.3"/>
	<line class="st1" x1="640.1" y1="211.3" x2="640.1" y2="403.3"/>
	<line class="st1" x1="648.1" y1="211.3" x2="648.1" y2="403.3"/>
	<line class="st1" x1="656.1" y1="211.3" x2="656.1" y2="403.3"/>
	<line class="st1" x1="664.1" y1="211.3" x2="664.1" y2="403.3"/>
	<line class="st1" x1="672.1" y1="211.3" x2="672.1" y2="403.3"/>
	<line class="st1" x1="680.1" y1="211.3" x2="680.1" y2="403.3"/>
	<line class="st1" x1="688.1" y1="211.3" x2="688.1" y2="403.3"/>
	<line class="st1" x1="696.1" y1="211.3" x2="696.1" y2="403.3"/>
	<line class="st1" x1="704.1" y1="211.3" x2="704.1" y2="403.3"/>
	<line class="st1" x1="712.1" y1="211.3" x2="712.1" y2="403.3"/>
	<line class="st1" x1="720.1" y1="211.3" x2="720.1" y2="403.3"/>
	<line class="st1" x1="728.1" y1="211.3" x2="728.1" y2="403.3"/>
	<line class="st1" x1="736.1" y1="211.3" x2="736.1" y2="403.3"/>
	<line class="st1" x1="744.1" y1="211.3" x2="744.1" y2="403.3"/>
	<line class="st1" x1="752.1" y1="211.3" x2="752.1" y2="403.3"/>
	<line class="st1" x1="760.1" y1="211.3" x2="760.1" y2="403.3"/>
	<line class="st1" x1="768.1" y1="211.3" x2="768.1" y2="403.3"/>
	<line class="st1" x1="776.1" y1="211.3" x2="776.1" y2="403.3"/>
	<line class="st1" x1="784.1" y1="211.3" x2="784.1" y2="403.3"/>
	<line class="st1" x1="792.1" y1="211.3" x2="792.1" y2="403.3"/>
	<line class="st1" x1="800.1" y1="211.3" x2="800.1" y2="403.3"/>
	<line class="st1" x1="808.1" y1="211.3" x2="808.1" y2="403.3"/>
	<line class="st1" x1="816.1" y1="211.3" x2="816.1" y2="403.3"/>
	<line class="st1" x1="824.1" y1="211.3" x2="824.1" y2="403.3"/>
	<line class="st1" x1="832.1" y1="211.3" x2="832.1" y2="403.3"/>
	<line class="st1" x1="840.1" y1="211.3" x2="840.1" y2="403.3"/>
	<line class="st1" x1="848.1" y1="211.3" x2="848.1" y2="403.3"/>
	<line class="st1" x1="856.1" y1="211.3" x2="856.1" y2="403.3"/>
	<line class="st1" x1="864.1" y1="211.3" x2="864.1" y2="403.3"/>
	<line class="st1" x1="872.1" y1="211.3" x2="872.1" y2="403.3"/>
	<line class="st1" x1="880.1" y1="211.3" x2="880.1" y2="403.3"/>
	<line class="st1" x1="888.1" y1="211.3" x2="888.1" y2="403.3"/>
	<line class="st1" x1="896.1" y1="211.3" x2="896.1" y2="403.3"/>
	<line class="st1" x1="904.1" y1="211.3" x2="904.1" y2="403.3"/>
	<line class="st1" x1="912.1" y1="211.3" x2="912.1" y2="403.3"/>
	<line class="st1" x1="920.1" y1="211.3" x2="920.1" y2="403.3"/>
	<line class="st1" x1="920.1" y1="219.3" x2="496.1" y2="219.3"/>
	<line class="st1" x1="920.1" y1="227.3" x2="496.1" y2="227.3"/>
	<line class="st1" x1="920.1" y1="235.3" x2="496.1" y2="235.3"/>
	<line class="st1" x1="920.1" y1="243.3" x2="496.1" y2="243.3"/>
	<line class="st1" x1="920.1" y1="251.3" x2="496.1" y2="251.3"/>
	<line class="st1" x1="920.1" y1="259.3" x2="496.1" y2="259.3"/>
	<line class="st1" x1="920.1" y1="267.3" x2="496.1" y2="267.3"/>
	<line class="st1" x1="920.1" y1="275.3" x2="496.1" y2="275.3"/>
	<line class="st1" x1="920.1" y1="283.3" x2="496.1" y2="283.3"/>
	<line class="st1" x1="920.1" y1="291.3" x2="496.1" y2="291.3"/>
	<line class="st1" x1="920.1" y1="299.3" x2="496.1" y2="299.3"/>
	<line class="st1" x1="920.1" y1="307.3" x2="496.1" y2="307.3"/>
	<line class="st1" x1="920.1" y1="315.3" x2="496.1" y2="315.3"/>
	<line class="st1" x1="920.1" y1="323.3" x2="496.1" y2="323.3"/>
	<line class="st1" x1="920.1" y1="331.3" x2="496.1" y2="331.3"/>
	<line class="st1" x1="920.1" y1="339.3" x2="496.1" y2="339.3"/>
	<line class="st1" x1="920.1" y1="347.3" x2="496.1" y2="347.3"/>
	<line class="st1" x1="920.1" y1="355.3" x2="496.1" y2="355.3"/>
	<line class="st1" x1="920.1" y1="363.3" x2="496.1" y2="363.3"/>
	<line class="st1" x1="920.1" y1="371.3" x2="496.1" y2="371.3"/>
	<line class="st1" x1="920.1" y1="379.3" x2="496.1" y2="379.3"/>
	<line class="st1" x1="920.1" y1="387.3" x2="496.1" y2="387.3"/>
	<line class="st1" x1="920.1" y1="395.3" x2="496.1" y2="395.3"/>
</g>
<g class="st2">
	<line class="st1" x1="-16" y1="211.3" x2="-16" y2="467.3"/>
	<line class="st1" x1="-8" y1="211.3" x2="-8" y2="467.3"/>
	<line class="st1" x1="0" y1="211.3" x2="0" y2="467.3"/>
	<line class="st1" x1="8" y1="211.3" x2="8" y2="467.3"/>
	<line class="st1" x1="16" y1="211.3" x2="16" y2="467.3"/>
	<line class="st1" x1="24" y1="211.3" x2="24" y2="467.3"/>
	<line class="st1" x1="32" y1="211.3" x2="32" y2="467.3"/>
	<line class="st1" x1="40" y1="211.3" x2="40" y2="467.3"/>
	<line class="st1" x1="48" y1="211.3" x2="48" y2="467.3"/>
	<line class="st1" x1="56" y1="211.3" x2="56" y2="467.3"/>
	<line class="st1" x1="64" y1="211.3" x2="64" y2="467.3"/>
	<line class="st1" x1="72" y1="211.3" x2="72" y2="467.3"/>
	<line class="st1" x1="80" y1="211.3" x2="80" y2="467.3"/>
	<line class="st1" x1="88" y1="211.3" x2="88" y2="467.3"/>
	<line class="st1" x1="96" y1="211.3" x2="96" y2="467.3"/>
	<line class="st1" x1="104" y1="211.3" x2="104" y2="467.3"/>
	<line class="st1" x1="112" y1="211.3" x2="112" y2="467.3"/>
	<line class="st1" x1="120" y1="211.3" x2="120" y2="467.3"/>
	<line class="st1" x1="128" y1="211.3" x2="128" y2="467.3"/>
	<line class="st1" x1="136" y1="211.3" x2="136" y2="467.3"/>
	<line class="st1" x1="144" y1="211.3" x2="144" y2="467.3"/>
	<line class="st1" x1="152" y1="211.3" x2="152" y2="467.3"/>
	<line class="st1" x1="160" y1="211.3" x2="160" y2="467.3"/>
	<line class="st1" x1="168" y1="211.3" x2="168" y2="467.3"/>
	<line class="st1" x1="176" y1="211.3" x2="176" y2="467.3"/>
	<line class="st1" x1="184" y1="211.3" x2="184" y2="467.3"/>
	<line class="st1" x1="192" y1="211.3" x2="192" y2="467.3"/>
	<line class="st1" x1="200" y1="211.3" x2="200" y2="467.3"/>
	<line class="st1" x1="208" y1="211.3" x2="208" y2="467.3"/>
	<line class="st1" x1="216" y1="211.3" x2="216" y2="467.3"/>
	<line class="st1" x1="224" y1="211.3" x2="224" y2="467.3"/>
	<line class="st1" x1="232" y1="211.3" x2="232" y2="467.3"/>
	<line class="st1" x1="240" y1="211.3" x2="240" y2="467.3"/>
	<line class="st1" x1="248" y1="211.3" x2="248" y2="467.3"/>
	<line class="st1" x1="256" y1="211.3" x2="256" y2="467.3"/>
	<line class="st1" x1="264" y1="211.3" x2="264" y2="467.3"/>
	<line class="st1" x1="272" y1="211.3" x2="272" y2="467.3"/>
	<line class="st1" x1="280" y1="211.3" x2="280" y2="467.3"/>
	<line class="st1" x1="288" y1="211.3" x2="288" y2="467.3"/>
	<line class="st1" x1="296" y1="211.3" x2="296" y2="467.3"/>
	<line class="st1" x1="304" y1="211.3" x2="304" y2="467.3"/>
	<line class="st1" x1="312" y1="211.3" x2="312" y2="467.3"/>
	<line class="st1" x1="320" y1="211.3" x2="320" y2="467.3"/>
	<line class="st1" x1="328" y1="211.3" x2="328" y2="467.3"/>
	<line class="st1" x1="336" y1="211.3" x2="336" y2="467.3"/>
	<line class="st1" x1="344" y1="211.3" x2="344" y2="467.3"/>
	<line class="st1" x1="352" y1="211.3" x2="352" y2="467.3"/>
	<line class="st1" x1="360" y1="211.3" x2="360" y2="467.3"/>
	<line class="st1" x1="368" y1="211.3" x2="368" y2="467.3"/>
	<line class="st1" x1="376" y1="211.3" x2="376" y2="467.3"/>
	<line class="st1" x1="384" y1="211.3" x2="384" y2="467.3"/>
	<line class="st1" x1="392" y1="211.3" x2="392" y2="467.3"/>
	<line class="st1" x1="400" y1="211.3" x2="400" y2="467.3"/>
	<line class="st1" x1="408" y1="211.3" x2="408" y2="467.3"/>
	<line class="st1" x1="408" y1="219.3" x2="-16" y2="219.3"/>
	<line class="st1" x1="408" y1="227.3" x2="-16" y2="227.3"/>
	<line class="st1" x1="408" y1="235.3" x2="-16" y2="235.3"/>
	<line class="st1" x1="408" y1="243.3" x2="-16" y2="243.3"/>
	<line class="st1" x1="408" y1="251.3" x2="-16" y2="251.3"/>
	<line class="st1" x1="408" y1="259.3" x2="-16" y2="259.3"/>
	<line class="st1" x1="408" y1="267.3" x2="-16" y2="267.3"/>
	<line class="st1" x1="408" y1="275.3" x2="-16" y2="275.3"/>
	<line class="st1" x1="408" y1="283.3" x2="-16" y2="283.3"/>
	<line class="st1" x1="408" y1="291.3" x2="-16" y2="291.3"/>
	<line class="st1" x1="408" y1="299.3" x2="-16" y2="299.3"/>
	<line class="st1" x1="408" y1="307.3" x2="-16" y2="307.3"/>
	<line class="st1" x1="408" y1="315.3" x2="-16" y2="315.3"/>
	<line class="st1" x1="408" y1="323.3" x2="-16" y2="323.3"/>
	<line class="st1" x1="408" y1="331.3" x2="-16" y2="331.3"/>
	<line class="st1" x1="408" y1="339.3" x2="-16" y2="339.3"/>
	<line class="st1" x1="408" y1="347.3" x2="-16" y2="347.3"/>
	<line class="st1" x1="408" y1="355.3" x2="-16" y2="355.3"/>
	<line class="st1" x1="408" y1="363.3" x2="-16" y2="363.3"/>
	<line class="st1" x1="408" y1="371.3" x2="-16" y2="371.3"/>
	<line class="st1" x1="408" y1="379.3" x2="-16" y2="379.3"/>
	<line class="st1" x1="408" y1="387.3" x2="-16" y2="387.3"/>
	<line class="st1" x1="408" y1="395.3" x2="-16" y2="395.3"/>
	<line class="st1" x1="408" y1="403.3" x2="-16" y2="403.3"/>
	<line class="st1" x1="408" y1="411.4" x2="-16" y2="411.4"/>
	<line class="st1" x1="408" y1="419.4" x2="-16" y2="419.4"/>
	<line class="st1" x1="408" y1="427.4" x2="-16" y2="427.4"/>
	<line class="st1" x1="408" y1="435.4" x2="-16" y2="435.4"/>
	<line class="st1" x1="408" y1="443.4" x2="-16" y2="443.4"/>
	<line class="st1" x1="408" y1="451.4" x2="-16" y2="451.4"/>
	<line class="st1" x1="408" y1="459.4" x2="-16" y2="459.4"/>
</g>
<g>
	<g>
		<linearGradient id="SVGID_1_" gradientUnits="userSpaceOnUse" x1="157.2937" y1="151.1594" x2="376.7974" y2="151.1594">
			<stop  offset="0" style="stop-color:#2261F5"/>
			<stop  offset="1" style="stop-color:#1242D7"/>
		</linearGradient>
		<path class="st3" d="M336.8,50.6l-3.6-1.5c0.2,0.2,0.8,0.8,1.6,1.4c4.6,4.1,17.9,17.2,21,33.1c0,0,0,0,0,0c0,0.2,0.1,0.4,0.1,0.6
			c0.2,1.4,0.4,2.8,0.4,4.2c0.3,7.3-2.1,14.3-6.8,19.2c-1.8,1.9-4,3.7-6.7,4.8c-6.2,2.5-12.9,2.6-20.4-0.8
			c5.1,10,10.5,27.9,1.8,38.2c-0.8-50.4-23-37.7-36.4-43.4c-13.7-5.8-20.9-6.4-35.9-5c-1.8,0.2-3.5,1.6-3.6,3.5
			c-0.5,10.3-1.5,29.6-16.4,36.4c4.8-7.3,10.9-17.3,7.9-31.1c-1.6-7.4-8.9-9.2-18.3-10.2l0,0c-65.3-9.8-49-46.8-44.4-55l-2.2,3.8
			c0.9-1.7,1.9-3.4,3.1-5.2c-0.2,0.2-0.5,0.7-0.9,1.5l1-1.6c-17.7,10.4-28.2,41.5-14.3,65.6c11.4,19.9,29.1,26.7,55.3,35.1
			c-14.8,63.3,20.8,62.7,38.3,78.6c3.4,3,4.5,6,7.2,9.4c5.1-1.4,7.4-3,10-5.5c2.1-1.9,3-5.4,2.6-8.2c-2-12.3-9.5-28.1-17.6-31.9
			c-8-3.7-14.8-4-14.6-12.9c0.1-7.5,1.9-8.6-3.5-19.6c17.6,7.4,36.2,37.3,41.4,64.3c0.7,6.7-3.4,11.9-6.3,14.7
			c-2.2,2.1-4.9,4.4-10.5,6.4c1.3,25.3,7.6,18.4,31.2,19.4c12.2,0.5,12.1,1.4,17.6-6.9c4-6.1,5.9-9.7,6.8-18.2
			c0.3-1.7-1.7-20.5-2.9-31.3c-0.8-6.9-1-13.8-0.4-20.7c0.7-8.6,2.4-16.8,6.2-24c17.5-2.1,25.6-6.5,33.4-12.9
			C397.2,112.3,367.8,60.5,336.8,50.6z"/>
		<linearGradient id="SVGID_2_" gradientUnits="userSpaceOnUse" x1="179.9353" y1="70.2405" x2="312.5313" y2="70.2405">
			<stop  offset="0" style="stop-color:#2261F5"/>
			<stop  offset="1" style="stop-color:#1242D7"/>
		</linearGradient>
		<path class="st4" d="M279.4,95.7c5.3,1.5,10.9,3.8,15.4,4.6c6.7,1.2,10.7,0.3,17.6,2.2c-9.1-12.4-18.1-35.9-69.2-44.7
			c4.1,6.6,15.7,13.7,20.6,19.4c-13.7-5.7-29.7-18.4-45.5-31c-9-7.2-16.8-10.8-27.6-5.7c-8.5,4-14.4,16.4-8.6,29.9
			C195.7,101.4,253.8,88.4,279.4,95.7z"/>
		<linearGradient id="SVGID_3_" gradientUnits="userSpaceOnUse" x1="7.2026" y1="199.2259" x2="273.7182" y2="199.2259">
			<stop  offset="0" style="stop-color:#2261F5"/>
			<stop  offset="1" style="stop-color:#1242D7"/>
		</linearGradient>
		<path class="st5" d="M261.1,253.9c-2.2-7-1.3-14.6-3.5-20c-7.9-19.2-59.3-15.3-48.3-84c-40.3-9.9-63.4-31.4-58.1-74.2
			c1.4-9.2-6.9-16.3-19-13.3c-17.8,4.4-48.7,26-65.2,31.8c-10.7,3.8-31.3,5.4-32-9.8c16.2,7.5,38.8-11,34-31.9
			c-3.1,13.9-7.4,13.2-20.8,11.3c-8.9-1.3-19.1,4.7-20.2,14.1c-0.7,5.7-0.1,13.2,6.6,20.4C54,119.1,89,97.1,105.9,87.1
			c5.6-3.3,27.8-20.7,36.3-14.6c1.8,1.3,2.6,3.7,2.1,6c-1.2,6.2-10.5,13.6-14.7,16.9c-13.2,10.6-21.8,15.3-29.8,31.8
			c-3.6,7.3-7.8,16.8-10,25.3c11.5-4.3,19.5-15.1,26.6-21c-5.5,15.9-39.4,35.9-51.1,72.2c-7.6,23.8-8.9,54.7-18.9,75
			c-3.4,6.9-9.1,13.8-11.2,18.9c10.2,5.4,14.3,5.2,21.3,15.1c-4.2-2.3-5.4-3.1-14.2-6c-11.5-3.9-13.3-4.8-18.7,2.5
			c-5.6,7.6-15.7,25-16.3,36.5l56.7,0.3l0.9-25.8c0.1-2,1-4,2.5-5.3c13-11.6,2.7-34.8,34.4-61.7c6-5.1,12.2-12.6,17.5-17.7
			c-5.3-13.9-8.7-17-8-38.8c1.8,11.5,11.5,31.6,19,41.9c5.3,7.3,7.7,14.4,10.7,22c10.6,26.9,11.6,35,42.2,25.4
			c35.9-11.3,33.4-22.7,65.9-34.2c-4.9,7.3-11.8,13.2-17.4,16.9c-2.8,1.9-5,4.6-6.3,7.8l-10.1,25c12.5,0,20.2,4.6,27.3,10.4
			c-9-2.3-27.5-9.3-34.7-0.7c-5,5.9-10.5,25-9.4,34.7l55,0c2.1-10.8-1.3-15.9-1.4-24.7c-0.1-8.9,5.3-7.2,5.4-20.7
			c0.1-13.6,9.7-28.2,16.3-35.8C270.1,262.3,264.8,265.9,261.1,253.9z"/>
		<linearGradient id="SVGID_4_" gradientUnits="userSpaceOnUse" x1="276.9692" y1="305.3292" x2="338.4728" y2="305.3292">
			<stop  offset="0" style="stop-color:#2261F5"/>
			<stop  offset="1" style="stop-color:#1242D7"/>
		</linearGradient>
		<path class="st6" d="M324.5,311.3c-8.4-4.5-16.7-3-32.4,7.9c2.9-6.9,11.8-12.1,18.3-14.9c10.5-4.4,16.5,1.7-1-39.6l-30.3-0.1
			c-3.7,12-2.1,4.2-0.1,21.3c0.5,4.4,0.4,9.9,0.8,15.4c0.6,8,1.2,14.6,3.5,22.3c1.4,4.7-1.4,11.2-0.7,22l55.8,0.4
			C336.5,333.7,331.1,314.9,324.5,311.3z"/>
		<linearGradient id="SVGID_5_" gradientUnits="userSpaceOnUse" x1="78.3219" y1="298.4478" x2="144.0391" y2="298.4478">
			<stop  offset="0" style="stop-color:#2261F5"/>
			<stop  offset="1" style="stop-color:#1242D7"/>
		</linearGradient>
		<path class="st7" d="M106.1,291.3c-15.8,18.6,14.8,9.5,21.7,26.6c-12.4-3.9-27.3-17.8-39.3,0c-5.3,7.9-7,14.5-10.2,27.7h57.3
			c-0.6-7.6-2-19.2,0-26.8c0.3-1.2,0.8-2.3,1.5-3.4c1.6-2.7,5.4-10.1,6.9-21.8c1-7.6-11.1-37.3-14.6-42.3
			C124.5,266.1,115,280.9,106.1,291.3z"/>
	</g>
</g>
</svg>
