<svg width="68" height="83" viewBox="0 0 68 83" fill="none" xmlns="http://www.w3.org/2000/svg">
<g filter="url(#filter0_d_1839_6297)">
<path d="M33.75 15C23.3988 15 15 22.5598 15 31.875C15 46.875 33.75 67.5 33.75 67.5C33.75 67.5 52.5 46.875 52.5 31.875C52.5 22.5598 44.1012 15 33.75 15ZM33.75 41.25C32.2666 41.25 30.8166 40.8101 29.5832 39.986C28.3499 39.1619 27.3886 37.9906 26.8209 36.6201C26.2532 35.2497 26.1047 33.7417 26.3941 32.2868C26.6835 30.832 27.3978 29.4956 28.4467 28.4467C29.4956 27.3978 30.832 26.6835 32.2868 26.3941C33.7417 26.1047 35.2497 26.2532 36.6201 26.8209C37.9906 27.3886 39.1619 28.3499 39.986 29.5832C40.8101 30.8166 41.25 32.2666 41.25 33.75C41.2478 35.7385 40.457 37.6449 39.0509 39.0509C37.6449 40.457 35.7385 41.2478 33.75 41.25Z" fill="#0036E5"/>
<circle cx="33.75" cy="33.75" r="15" fill="white"/>
<g clip-path="url(#clip0_1839_6297)">
<path d="M41.9776 25.4829L41.7746 25.398C41.8022 25.4274 41.8322 25.4544 41.8642 25.4786C42.1274 25.7205 42.882 26.4866 43.0556 27.414C43.0564 27.425 43.0564 27.4361 43.0556 27.4471C43.0694 27.5275 43.0778 27.6088 43.0808 27.6905C43.093 27.8949 43.0652 28.0997 42.999 28.2929C42.9329 28.486 42.8298 28.6636 42.6958 28.8151C42.5886 28.9348 42.4585 29.0303 42.3136 29.0959C42.1286 29.1741 41.9294 29.2101 41.7295 29.2017C41.5297 29.1932 41.334 29.1404 41.1558 29.0469C41.4456 29.6316 41.755 30.6756 41.258 31.2789C41.2132 28.3341 39.9504 29.0772 39.1874 28.7402C38.4244 28.4033 38.0002 28.3644 37.1462 28.4522C37.0941 28.4557 37.0449 28.4783 37.0074 28.5157C36.97 28.5532 36.9467 28.6032 36.9418 28.6567C36.9138 29.2572 36.8578 30.3847 36.0094 30.7807C36.2824 30.3487 36.6296 29.7727 36.4602 28.9663C36.3678 28.5343 35.9534 28.4292 35.4186 28.373C31.71 27.797 32.6368 25.637 32.8986 25.1575L32.7698 25.3735C32.8188 25.277 32.8776 25.1748 32.9448 25.0697C32.9364 25.0841 32.9182 25.1129 32.8958 25.1546L32.9504 25.0596C31.9494 25.6687 31.353 27.486 32.1398 28.8929C32.7894 30.0549 33.7932 30.4538 35.28 30.942C34.44 34.6384 36.4616 34.6096 37.4542 35.5341C37.6446 35.7112 37.7104 35.8869 37.863 36.0856C38.0777 36.0356 38.2746 35.9249 38.4314 35.766C38.489 35.7025 38.5317 35.6262 38.5559 35.543C38.5802 35.4599 38.5855 35.3721 38.5714 35.2864C38.458 34.5664 38.0324 33.642 37.5704 33.4144C37.1084 33.1869 36.7304 33.1812 36.7402 32.6613C36.7486 32.2293 36.8494 32.1616 36.5442 31.5093C37.5452 31.9413 38.6022 33.6866 38.899 35.2648C38.9057 35.427 38.8773 35.5886 38.8158 35.738C38.7543 35.8875 38.6613 36.021 38.5434 36.1288C38.3741 36.2965 38.1716 36.4247 37.9498 36.5047C38.0226 37.9807 38.3782 37.576 39.7194 37.638C40.411 37.6696 40.4096 37.72 40.7176 37.2333C40.9431 36.9248 41.0768 36.5557 41.1026 36.1706C41.1208 36.0698 41.0074 34.974 40.9402 34.3404C40.8959 33.9388 40.8879 33.5339 40.9164 33.1308C40.9396 32.6441 41.0601 32.1676 41.2706 31.7311C42.2618 31.6087 42.7252 31.3524 43.1676 30.978C45.409 29.0916 43.7402 26.0676 41.9776 25.4829Z" fill="#0036E5"/>
<path d="M38.7186 28.1236C39.0224 28.2129 39.3402 28.3454 39.5964 28.3915C39.9772 28.4606 40.2068 28.4087 40.5988 28.5182C40.0822 27.7982 39.5726 26.4172 36.6676 25.9031C36.9028 26.2905 37.5594 26.7038 37.838 27.0379C37.0582 26.7052 36.1482 25.9651 35.2522 25.2235C34.7412 24.8015 34.2946 24.5913 33.6856 24.8937C33.204 25.1284 32.8652 25.8542 33.197 26.6447C33.9572 28.4563 37.2598 27.6959 38.7186 28.1236Z" fill="#0036E5"/>
<path d="M37.67 37.3687C37.5468 36.9597 37.5944 36.5133 37.4698 36.2008C37.0204 35.0776 34.1098 35.3052 34.7258 31.2919C32.4382 30.7159 31.1222 29.4544 31.4246 26.9575C31.51 26.4204 31.034 26.0042 30.3494 26.177C29.34 26.4333 27.59 27.6948 26.6436 28.0346C26.0332 28.2564 24.867 28.3514 24.8236 27.4586C25.7476 27.9007 27.03 26.8178 26.7584 25.5967C26.5834 26.406 26.3384 26.3685 25.5782 26.2576C25.07 26.19 24.4918 26.5298 24.4302 27.0842C24.3991 27.2996 24.4169 27.5194 24.4822 27.7266C24.5476 27.9337 24.6587 28.1224 24.8068 28.278C25.9114 29.489 27.8994 28.2016 28.8668 27.6184C29.1874 27.424 30.4432 26.4074 30.9262 26.766C30.9764 26.8062 31.0144 26.8604 31.0358 26.9222C31.0571 26.9839 31.0609 27.0506 31.0466 27.1144C30.9752 27.4773 30.4502 27.9093 30.2066 28.1037C29.4576 28.7244 28.9676 28.998 28.5112 29.9613C28.2771 30.4344 28.0868 30.929 27.9428 31.4388C28.5938 31.1868 29.0516 30.5575 29.4534 30.2119C29.1384 31.1421 27.2134 32.31 26.5484 34.434C26.1158 35.8236 26.05 37.6293 25.4746 38.8188C25.28 39.222 24.958 39.6237 24.8376 39.9261C25.4186 40.2415 25.651 40.2328 26.0472 40.8074C25.7936 40.6559 25.5228 40.5374 25.2408 40.4546C24.5884 40.2256 24.4834 40.1666 24.1782 40.5986C23.873 41.0306 23.2878 42.0588 23.25 42.7327L26.47 42.75L26.5218 41.2423C26.5233 41.1834 26.5364 41.1254 26.5605 41.0719C26.5846 41.0184 26.6191 40.9705 26.6618 40.9312C27.3996 40.2559 26.8144 38.8994 28.6134 37.3312C28.9578 37.0303 29.3064 36.5968 29.606 36.293C29.3064 35.4794 29.1118 35.298 29.1538 34.0279C29.2574 34.6989 29.809 35.8768 30.236 36.4759C30.5384 36.9079 30.6756 37.3168 30.845 37.7618C31.4456 39.3357 31.5016 39.808 33.2432 39.2436C35.29 38.574 35.15 37.9101 36.9924 37.2391C36.7269 37.6313 36.3903 37.9672 36.0012 38.2284C35.8398 38.3387 35.7148 38.4969 35.6428 38.682L35.0702 40.1464C35.6428 40.1408 36.1964 40.3578 36.62 40.7541C36.1062 40.6101 35.059 40.2127 34.6502 40.7124C34.3702 41.0594 34.0538 42.1725 34.1154 42.7384H37.2402C37.362 42.1092 37.1646 41.8068 37.1604 41.2984C37.1562 40.7901 37.4614 40.8765 37.4684 40.0888C37.4754 39.3012 38.0284 38.4415 38.3938 37.9951C38.1908 37.8612 37.8842 38.0685 37.67 37.3687Z" fill="#0036E5"/>
<path d="M41.2801 40.724C40.8013 40.4619 40.3295 40.5483 39.4405 41.1862C39.6071 40.7801 40.1083 40.4777 40.4821 40.3222C41.0757 40.0644 41.4215 40.4187 40.4233 38.0182L38.7013 37.998C38.4941 38.6964 38.5851 38.2428 38.6943 39.2422C38.7223 39.5014 38.7181 39.8182 38.7419 40.1408C38.7618 40.5791 38.8289 41.0137 38.9421 41.4368C39.0219 41.7104 38.8623 42.092 38.9043 42.7241L42.0725 42.7457C41.9577 42.03 41.6539 40.9299 41.2801 40.724Z" fill="#0036E5"/>
<path d="M28.8694 39.5539C27.9734 40.6396 29.7094 40.1111 30.1042 41.1062C29.3972 40.8815 28.5502 40.0665 27.8642 41.1062C27.5618 41.5684 27.4638 41.9529 27.2832 42.7262H30.5466C30.5158 42.2827 30.436 41.6044 30.5466 41.1595C30.5654 41.0897 30.5932 41.0229 30.6292 40.9607C30.8411 40.567 30.9748 40.1338 31.0226 39.6863C31.08 39.2428 30.3912 37.5076 30.1924 37.2139C29.8944 38.0706 29.446 38.8637 28.8694 39.5539Z" fill="#0036E5"/>
</g>
</g>
<defs>
<filter id="filter0_d_1839_6297" x="0" y="0" width="67.5" height="82.5" filterUnits="userSpaceOnUse" color-interpolation-filters="sRGB">
<feFlood flood-opacity="0" result="BackgroundImageFix"/>
<feColorMatrix in="SourceAlpha" type="matrix" values="0 0 0 0 0 0 0 0 0 0 0 0 0 0 0 0 0 0 127 0" result="hardAlpha"/>
<feOffset/>
<feGaussianBlur stdDeviation="7.5"/>
<feComposite in2="hardAlpha" operator="out"/>
<feColorMatrix type="matrix" values="0 0 0 0 0 0 0 0 0 0 0 0 0 0 0 0 0 0 0.3 0"/>
<feBlend mode="normal" in2="BackgroundImageFix" result="effect1_dropShadow_1839_6297"/>
<feBlend mode="normal" in="SourceGraphic" in2="effect1_dropShadow_1839_6297" result="shape"/>
</filter>
<clipPath id="clip0_1839_6297">
<rect width="21" height="18" fill="white" transform="translate(23.25 24.75)"/>
</clipPath>
</defs>
</svg>
