<svg width="20" height="20" viewBox="0 0 20 20" fill="none" xmlns="http://www.w3.org/2000/svg">
<path d="M0 10C0 4.47715 4.47715 0 10 0C15.5228 0 20 4.47715 20 10C20 15.5228 15.5228 20 10 20C4.47715 20 0 15.5228 0 10Z" fill="#002AB2"/>
<g clip-path="url(#clip0_2268_6618)">
<path d="M14.9313 5.40708L14.8135 5.35987C14.8295 5.37624 14.8469 5.39122 14.8655 5.40467C15.0182 5.53907 15.4562 5.96468 15.5569 6.47987C15.5574 6.486 15.5574 6.49215 15.5569 6.49827C15.5649 6.54296 15.5698 6.58813 15.5716 6.63347C15.5786 6.74704 15.5625 6.86084 15.5241 6.96815C15.4857 7.07547 15.4259 7.17412 15.3481 7.25828C15.2859 7.32475 15.2104 7.37786 15.1263 7.41427C15.0189 7.4577 14.9033 7.47775 14.7873 7.47305C14.6713 7.46836 14.5578 7.43903 14.4544 7.38707C14.6226 7.71187 14.8021 8.29187 14.5137 8.62707C14.4877 6.99107 13.7548 7.40387 13.312 7.21667C12.8692 7.02947 12.623 7.00787 12.1274 7.05667C12.0971 7.05864 12.0686 7.07115 12.0468 7.09197C12.0251 7.11278 12.0116 7.14055 12.0087 7.17027C11.9925 7.50388 11.96 8.13028 11.4676 8.35027C11.6261 8.11027 11.8276 7.79028 11.7292 7.34228C11.6756 7.10228 11.4351 7.04387 11.1247 7.01267C8.97243 6.69267 9.51031 5.49267 9.66225 5.22627L9.5875 5.34627C9.61593 5.29267 9.65006 5.23587 9.68906 5.17747C9.68418 5.18547 9.67362 5.20147 9.66062 5.22467L9.69231 5.17188C9.11137 5.51028 8.76525 6.51988 9.22187 7.30148C9.59887 7.94707 10.1814 8.16867 11.0443 8.43987C10.5568 10.4935 11.7301 10.4775 12.3061 10.9911C12.4166 11.0895 12.4548 11.1871 12.5434 11.2975C12.668 11.2697 12.7822 11.2082 12.8732 11.1199C12.9067 11.0846 12.9314 11.0422 12.9455 10.996C12.9596 10.9498 12.9627 10.901 12.9545 10.8535C12.8887 10.4535 12.6417 9.93987 12.3736 9.81347C12.1054 9.68707 11.8861 9.68387 11.8917 9.39507C11.8966 9.15507 11.9551 9.11747 11.778 8.75507C12.3589 8.99507 12.9724 9.96467 13.1446 10.8415C13.1485 10.9315 13.132 11.0213 13.0963 11.1044C13.0606 11.1874 13.0066 11.2615 12.9382 11.3215C12.84 11.4146 12.7225 11.4858 12.5937 11.5303C12.636 12.3503 12.8424 12.1255 13.6207 12.1599C14.0221 12.1775 14.0213 12.2055 14.2001 11.9351C14.3309 11.7637 14.4085 11.5586 14.4235 11.3447C14.4341 11.2887 14.3682 10.6799 14.3292 10.3279C14.3035 10.1048 14.2989 9.87981 14.3154 9.65587C14.3289 9.38551 14.3988 9.12078 14.521 8.87827C15.0962 8.81027 15.3652 8.66787 15.6219 8.45987C16.9227 7.41187 15.9542 5.73188 14.9313 5.40708Z" fill="white"/>
<path d="M13.0398 6.87467C13.2161 6.92427 13.4006 6.99787 13.5492 7.02347C13.7702 7.06187 13.9035 7.03307 14.131 7.09387C13.8312 6.69387 13.5354 5.92667 11.8495 5.64107C11.986 5.85627 12.3671 6.08587 12.5287 6.27147C12.0762 6.08667 11.5481 5.67547 11.0281 5.26347C10.7315 5.02907 10.4723 4.91227 10.1189 5.08027C9.83937 5.21067 9.64274 5.61387 9.83531 6.05307C10.2765 7.05947 12.1932 6.63707 13.0398 6.87467Z" fill="white"/>
<path d="M12.4313 12.0107C12.3598 11.7835 12.3874 11.5355 12.3151 11.3619C12.0543 10.7379 10.3651 10.8643 10.7226 8.6347C9.39494 8.3147 8.63119 7.6139 8.80669 6.2267C8.85625 5.9283 8.58 5.6971 8.18269 5.7931C7.59688 5.9355 6.58125 6.6363 6.032 6.8251C5.67775 6.9483 5.00094 7.0011 4.97575 6.5051C5.512 6.7507 6.25625 6.1491 6.09863 5.4707C5.99706 5.9203 5.85488 5.8995 5.41369 5.8379C5.11875 5.8003 4.78319 5.9891 4.74744 6.2971C4.72938 6.41676 4.73971 6.53891 4.77763 6.65397C4.81555 6.76904 4.88003 6.87389 4.966 6.9603C5.60706 7.6331 6.76081 6.9179 7.32225 6.5939C7.50831 6.4859 8.23713 5.9211 8.51744 6.1203C8.54659 6.14268 8.56865 6.17278 8.58103 6.20708C8.59341 6.24137 8.59559 6.27843 8.58731 6.3139C8.54588 6.5155 8.24119 6.7555 8.09981 6.8635C7.66513 7.2083 7.38075 7.3603 7.11588 7.8955C6.98002 8.15831 6.86958 8.43312 6.786 8.7163C7.16381 8.5763 7.4295 8.2267 7.66269 8.0347C7.47988 8.5515 6.36269 9.2003 5.97675 10.3803C5.72569 11.1523 5.6875 12.1555 5.35356 12.8163C5.24063 13.0403 5.05375 13.2635 4.98388 13.4315C5.32106 13.6067 5.45594 13.6019 5.68588 13.9211C5.53871 13.837 5.38151 13.7711 5.21788 13.7251C4.83925 13.5979 4.77831 13.5651 4.60119 13.8051C4.42406 14.0451 4.08444 14.6163 4.0625 14.9907L5.93125 15.0003L5.96131 14.1627C5.96217 14.13 5.96981 14.0977 5.98379 14.068C5.99776 14.0383 6.01776 14.0117 6.04256 13.9899C6.47075 13.6147 6.13113 12.8611 7.17519 11.9899C7.37506 11.8227 7.57738 11.5819 7.75125 11.4131C7.57738 10.9611 7.46444 10.8603 7.48881 10.1547C7.54894 10.5275 7.86906 11.1819 8.11688 11.5147C8.29238 11.7547 8.372 11.9819 8.47031 12.2291C8.81888 13.1035 8.85138 13.3659 9.86213 13.0523C11.05 12.6803 10.9688 12.3115 12.038 11.9387C11.8839 12.1566 11.6886 12.3432 11.4628 12.4883C11.3691 12.5496 11.2965 12.6375 11.2548 12.7403L10.9224 13.5539C11.2548 13.5507 11.576 13.6713 11.8219 13.8915C11.5237 13.8115 10.9159 13.5907 10.6787 13.8683C10.5162 14.0611 10.3326 14.6795 10.3683 14.9939H12.1818C12.2525 14.6443 12.1379 14.4763 12.1355 14.1939C12.1331 13.9115 12.3102 13.9595 12.3143 13.5219C12.3183 13.0843 12.6393 12.6067 12.8513 12.3587C12.7335 12.2843 12.5556 12.3995 12.4313 12.0107Z" fill="white"/>
<path d="M14.5267 13.8748C14.2488 13.7292 13.975 13.7772 13.4591 14.1316C13.5558 13.906 13.8466 13.738 14.0636 13.6516C14.4081 13.5084 14.6088 13.7052 14.0294 12.3716L13.0301 12.3604C12.9098 12.7484 12.9626 12.4964 13.026 13.0516C13.0423 13.1956 13.0398 13.3716 13.0536 13.5508C13.0652 13.7942 13.1041 14.0357 13.1698 14.2708C13.2161 14.4228 13.1235 14.6348 13.1479 14.986L14.9866 14.998C14.9199 14.6004 14.7436 13.9892 14.5267 13.8748Z" fill="white"/>
<path d="M7.32388 13.2248C6.80388 13.828 7.81138 13.5344 8.04051 14.0872C7.6302 13.9624 7.13863 13.5096 6.74051 14.0872C6.56501 14.344 6.50813 14.5576 6.40332 14.9872H8.29726C8.27938 14.7408 8.23307 14.364 8.29726 14.1168C8.30816 14.0781 8.32428 14.0409 8.3452 14.0064C8.46819 13.7876 8.54579 13.547 8.57351 13.2984C8.60682 13.052 8.20707 12.088 8.0917 11.9248C7.91874 12.4008 7.65849 12.8414 7.32388 13.2248Z" fill="white"/>
</g>
<defs>
<clipPath id="clip0_2268_6618">
<rect width="12.1875" height="10" fill="white" transform="translate(4.0625 5)"/>
</clipPath>
</defs>
</svg>
