<svg width="20" height="20" viewBox="0 0 20 20" fill="none" xmlns="http://www.w3.org/2000/svg">
<path d="M0 10C0 4.47715 4.47715 0 10 0C15.5228 0 20 4.47715 20 10C20 15.5228 15.5228 20 10 20C4.47715 20 0 15.5228 0 10Z" fill="#1DC1B3"/>
<path d="M11.0659 10.9228V10.9212C10.9968 10.926 10.6399 10.9469 9.84566 10.9469C9.21062 10.9469 8.76528 10.9292 8.60772 10.9212V10.9228C6.1656 10.8151 4.34406 10.3906 4.34406 9.88099C4.34406 9.37295 6.16721 8.94691 8.60772 8.83919V10.5C8.76689 10.5112 9.22509 10.5385 9.85692 10.5385C10.6158 10.5385 10.9952 10.5064 11.0659 10.5V8.8408C13.5032 8.95012 15.3199 9.37456 15.3199 9.8826C15.3199 10.3906 13.5016 10.8151 11.0659 10.9244V10.9228ZM11.0659 8.66877V7.18324H14.4662V4.91797H5.20901V7.18324H8.60933V8.66877C5.84566 8.79578 3.76849 9.34241 3.76849 9.99836C3.76849 10.6543 5.84727 11.2009 8.60933 11.3295V16.0916H11.0675V11.3295C13.8264 11.2025 15.9003 10.6559 15.9003 9.99996C15.9003 9.34562 13.8264 8.79739 11.0675 8.67038" fill="white"/>
</svg>
