<svg xmlns="http://www.w3.org/2000/svg" viewBox="0 0 200 200"><defs><style>.cls-1{fill:#ed1c24;}.cls-2{fill:#fff;}</style></defs><g id="Layer_2" data-name="Layer 2"><g id="Layer_1-2" data-name="Layer 1"><circle class="cls-1" cx="100.21" cy="100.36" r="99.24"/><path class="cls-2" d="M200,91.54c-1-4.66-1.88-9.34-3-14C186.44,32,144.91,0,97.76,1.15,51.2,2.27,11.35,36.42,2.91,82.42-7.47,139,31.82,192.41,88.72,199.05a30.45,30.45,0,0,1,3.82.95H0V0H200Z"/><path class="cls-2" d="M109.45,200c4.66-1,9.34-1.87,14-3A98.89,98.89,0,0,0,199,112.69a20.39,20.39,0,0,1,1-3.24V200Z"/><path class="cls-2" d="M163.16,87.83,90.51,176.59c-17.67-44.47-35-88.18-52.74-132.77C49.58,46,60.59,48,71.6,50.05c20.65,3.84,41.31,7.66,62,11.6a12,12,0,0,1,5.75,2.44c7.77,7.22,15.32,14.67,22.92,22.07A7.31,7.31,0,0,1,163.16,87.83ZM53,61l-.63.6,36.84,93.27c3.23-18.63,5.53-37.07,7.66-55.54A5,5,0,0,0,95,95.69Q74.07,78.23,53,61Zm44.8,94,.77.58,51.92-62.83c-15.39,2.64-29.36,4.93-43.24,7.6-1.38.27-3.08,2.83-3.3,4.5C101.72,121.45,99.79,138.19,97.78,154.91Zm30.34-87.29L57.86,54.53l-.37,1.1,43,35.36ZM111.29,91.49l.24,1.06,39.64-7.13-15.3-14.56Z"/><path class="cls-1" d="M53,61Q74,78.29,95,95.69a5,5,0,0,1,1.86,3.59c-2.13,18.47-4.43,36.91-7.66,55.54L52.35,61.55Z"/><path class="cls-1" d="M97.78,154.91c2-16.72,3.94-33.46,6.15-50.15.22-1.67,1.92-4.23,3.3-4.5,13.88-2.67,27.85-5,43.24-7.6L98.55,155.49Z"/><path class="cls-1" d="M128.12,67.62,100.51,91l-43-35.36.37-1.1Z"/><path class="cls-1" d="M111.29,91.49l24.58-20.63,15.3,14.56-39.64,7.13Z"/></g></g></svg>