<svg width="24" height="24" viewBox="0 0 24 24" fill="none" xmlns="http://www.w3.org/2000/svg">
<path d="M0 12C0 5.37258 5.37258 0 12 0C18.6274 0 24 5.37258 24 12C24 18.6274 18.6274 24 12 24C5.37258 24 0 18.6274 0 12Z" fill="#4583DB"/>
<path d="M15.2996 13.75C15.2996 12 14.2496 11.4 12.1496 11.15C10.6496 10.95 10.3496 10.55 10.3496 9.84996C10.3496 9.14987 10.8496 8.69999 11.8496 8.69999C12.7496 8.69999 13.2496 8.99999 13.4996 9.75C13.5496 9.9 13.6996 9.99996 13.8496 9.99996H14.6495C14.8496 9.99996 14.9996 9.84996 14.9996 9.65003V9.6C14.7995 8.49995 13.8995 7.64999 12.7496 7.55003V6.35003C12.7496 6.14999 12.5996 5.99999 12.3496 5.94995H11.5996C11.3996 5.94995 11.2496 6.09995 11.1995 6.35003V7.49999C9.69953 7.70003 8.74961 8.69999 8.74961 9.95004C8.74961 11.6 9.74957 12.25 11.8496 12.5C13.2496 12.75 13.6996 13.05 13.6996 13.85C13.6996 14.6501 12.9995 15.2 12.0496 15.2C10.7495 15.2 10.2995 14.65 10.1495 13.9C10.0996 13.7 9.94961 13.6 9.79961 13.6H8.94953C8.74961 13.6 8.59961 13.75 8.59961 13.95V14C8.79953 15.25 9.59957 16.15 11.2496 16.4V17.6C11.2496 17.8 11.3996 17.95 11.6495 18H12.3995C12.5996 18 12.7496 17.85 12.7996 17.6V16.4C14.2996 16.15 15.2996 15.1 15.2996 13.75Z" fill="white"/>
<path d="M9.45 19C5.55 17.6001 3.54996 13.2501 5.00004 9.40002C5.75004 7.30002 7.40004 5.70006 9.45 4.95006C9.65004 4.8501 9.75 4.7001 9.75 4.45002V3.75006C9.75 3.55002 9.65004 3.40002 9.45 3.3501C9.39996 3.3501 9.3 3.3501 9.24996 3.40002C4.5 4.90002 1.89996 9.9501 3.39996 14.7001C4.29996 17.5 6.45 19.6501 9.24996 20.5501C9.45 20.65 9.65004 20.5501 9.69997 20.35C9.75 20.3001 9.75 20.2501 9.75 20.1501V19.45C9.75 19.3 9.6 19.1001 9.45 19ZM14.75 3.40002C14.55 3.30006 14.35 3.40002 14.3 3.60006C14.25 3.6501 14.25 3.70002 14.25 3.8001V4.50006C14.25 4.7001 14.4 4.90002 14.55 5.0001C18.45 6.40002 20.4501 10.75 19 14.6001C18.25 16.7001 16.6 18.3001 14.55 19.0501C14.35 19.15 14.25 19.3 14.25 19.5501V20.2501C14.25 20.4501 14.35 20.6001 14.55 20.65C14.6 20.65 14.7 20.65 14.75 20.6001C19.5 19.1001 22.1001 14.05 20.6001 9.30006C19.7001 6.45006 17.5 4.30002 14.75 3.40002Z" fill="white"/>
</svg>
