<svg width="16" height="16" viewBox="0 0 16 16" fill="none" xmlns="http://www.w3.org/2000/svg">
<path d="M1.5 2C1.5 0.895431 2.39543 0 3.5 0H12.5C13.6046 0 14.5 0.89543 14.5 2V5.00002H1.5V2Z" fill="#194FFF"/>
<g filter="url(#filter0_bi_2398_1677)">
<path d="M0.5 5.5C0.5 3.84315 1.84315 2.5 3.5 2.5H12.5C14.1569 2.5 15.5 3.84315 15.5 5.5V12.5C15.5 14.1569 14.1569 15.5 12.5 15.5H3.5C1.84315 15.5 0.5 14.1569 0.5 12.5V5.5Z" fill="#BCCBF1" fill-opacity="0.5"/>
</g>
<path fill-rule="evenodd" clip-rule="evenodd" d="M4.4356 6.56866C4.54021 6.47711 4.70981 6.47711 4.81441 6.56866L6.42156 7.97508C6.52616 8.06662 6.52616 8.21503 6.42156 8.30657C6.31695 8.39811 6.14736 8.39811 6.04275 8.30657L4.89286 7.3003V10.7656C4.89286 10.8951 4.77294 11 4.62501 11C4.47707 11 4.35715 10.8951 4.35715 10.7656V7.3003L3.20726 8.30657C3.10266 8.39811 2.93306 8.39811 2.82845 8.30657C2.72385 8.21503 2.72385 8.06662 2.82845 7.97508L4.4356 6.56866Z" fill="#194FFF"/>
<path d="M4.81441 6.56866L4.97905 6.38052V6.38052L4.81441 6.56866ZM4.4356 6.56866L4.27097 6.38052V6.38052L4.4356 6.56866ZM6.42156 7.97508L6.25692 8.16321V8.16321L6.42156 7.97508ZM6.42156 8.30657L6.25692 8.11844V8.11844L6.42156 8.30657ZM6.04275 8.30657L6.20739 8.11844L6.20739 8.11844L6.04275 8.30657ZM4.89286 7.3003L5.0575 7.11217C4.98368 7.04757 4.8789 7.03211 4.78957 7.07264C4.70024 7.11318 4.64286 7.20221 4.64286 7.3003H4.89286ZM4.35715 7.3003H4.60715C4.60715 7.20221 4.54978 7.11318 4.46045 7.07264C4.37111 7.03211 4.26633 7.04757 4.19251 7.11217L4.35715 7.3003ZM3.20726 8.30657L3.3719 8.49471L3.3719 8.49471L3.20726 8.30657ZM2.82845 8.30657L2.66382 8.49471L2.66382 8.49471L2.82845 8.30657ZM2.82845 7.97508L2.66382 7.78694H2.66382L2.82845 7.97508ZM4.97905 6.38052C4.78018 6.20649 4.46983 6.20649 4.27097 6.38052L4.60024 6.75679C4.60215 6.75512 4.61029 6.75 4.62501 6.75C4.63972 6.75 4.64787 6.75512 4.64977 6.75679L4.97905 6.38052ZM6.5862 7.78694L4.97905 6.38052L4.64977 6.75679L6.25692 8.16321L6.5862 7.78694ZM6.5862 8.49471C6.80462 8.30357 6.80462 7.97809 6.5862 7.78694L6.25692 8.16321C6.25766 8.16386 6.25568 8.16229 6.25357 8.15773C6.25149 8.15325 6.25001 8.1474 6.25001 8.14083C6.25001 8.13425 6.25149 8.1284 6.25357 8.12392C6.25568 8.11936 6.25766 8.1178 6.25692 8.11844L6.5862 8.49471ZM5.87811 8.49471C6.07698 8.66874 6.38733 8.66874 6.5862 8.49471L6.25692 8.11844C6.25501 8.12011 6.24687 8.12523 6.23216 8.12523C6.21744 8.12523 6.2093 8.12011 6.20739 8.11844L5.87811 8.49471ZM4.72823 7.48844L5.87811 8.49471L6.20739 8.11844L5.0575 7.11217L4.72823 7.48844ZM5.14286 10.7656V7.3003H4.64286V10.7656H5.14286ZM4.62501 11.25C4.87864 11.25 5.14286 11.0634 5.14286 10.7656H4.64286C4.64286 10.7587 4.64458 10.7525 4.64673 10.7481C4.64872 10.7439 4.65039 10.7427 4.64977 10.7432C4.64819 10.7446 4.64018 10.75 4.62501 10.75V11.25ZM4.10715 10.7656C4.10715 11.0634 4.37137 11.25 4.62501 11.25V10.75C4.60983 10.75 4.60182 10.7446 4.60024 10.7432C4.59962 10.7427 4.6013 10.7439 4.60329 10.7481C4.60544 10.7525 4.60715 10.7587 4.60715 10.7656H4.10715ZM4.10715 7.3003V10.7656H4.60715V7.3003H4.10715ZM3.3719 8.49471L4.52179 7.48844L4.19251 7.11217L3.04263 8.11844L3.3719 8.49471ZM2.66382 8.49471C2.86268 8.66874 3.17303 8.66874 3.3719 8.49471L3.04263 8.11844C3.04072 8.12011 3.03257 8.12523 3.01786 8.12523C3.00314 8.12523 2.995 8.12011 2.99309 8.11844L2.66382 8.49471ZM2.66382 7.78694C2.44539 7.97809 2.44539 8.30357 2.66382 8.49471L2.99309 8.11844C2.99236 8.1178 2.99433 8.11936 2.99644 8.12392C2.99852 8.1284 3 8.13425 3 8.14083C3 8.1474 2.99852 8.15325 2.99644 8.15773C2.99433 8.16229 2.99236 8.16386 2.99309 8.16321L2.66382 7.78694ZM4.27097 6.38052L2.66382 7.78694L2.99309 8.16321L4.60024 6.75679L4.27097 6.38052Z" fill="#194FFF"/>
<path d="M15.5 10.5L12 10.5C11.1716 10.5 10.5 9.82843 10.5 9C10.5 8.17157 11.1716 7.5 12 7.5L15.5 7.5L15.5 10.5Z" fill="#194FFF"/>
<path d="M12.5 9C12.5 9.27614 12.2761 9.5 12 9.5C11.7239 9.5 11.5 9.27614 11.5 9C11.5 8.72385 11.7239 8.5 12 8.5C12.2761 8.5 12.5 8.72385 12.5 9Z" fill="white"/>
<defs>
<filter id="filter0_bi_2398_1677" x="-3.5" y="-1.5" width="23" height="21" filterUnits="userSpaceOnUse" color-interpolation-filters="sRGB">
<feFlood flood-opacity="0" result="BackgroundImageFix"/>
<feGaussianBlur in="BackgroundImage" stdDeviation="2"/>
<feComposite in2="SourceAlpha" operator="in" result="effect1_backgroundBlur_2398_1677"/>
<feBlend mode="normal" in="SourceGraphic" in2="effect1_backgroundBlur_2398_1677" result="shape"/>
<feColorMatrix in="SourceAlpha" type="matrix" values="0 0 0 0 0 0 0 0 0 0 0 0 0 0 0 0 0 0 127 0" result="hardAlpha"/>
<feOffset dx="0.2" dy="0.1"/>
<feGaussianBlur stdDeviation="0.5"/>
<feComposite in2="hardAlpha" operator="arithmetic" k2="-1" k3="1"/>
<feColorMatrix type="matrix" values="0 0 0 0 1 0 0 0 0 1 0 0 0 0 1 0 0 0 0.6 0"/>
<feBlend mode="normal" in2="shape" result="effect2_innerShadow_2398_1677"/>
</filter>
</defs>
</svg>
