<svg width="24" height="24" viewBox="0 0 24 24" fill="none" xmlns="http://www.w3.org/2000/svg">
<g clip-path="url(#clip0_2140_1522)">
<path d="M0 12C0 5.37258 5.37258 0 12 0C18.6274 0 24 5.37258 24 12C24 18.6274 18.6274 24 12 24C5.37258 24 0 18.6274 0 12Z" fill="black"/>
<path d="M7.47727 14.693C7.55851 14.6118 7.66866 14.5662 7.7835 14.5662H18.3798C18.5728 14.5662 18.6695 14.7996 18.5329 14.9361L16.4391 17.0282C16.3579 17.1094 16.2477 17.155 16.1329 17.155H5.53658C5.34354 17.155 5.24691 16.9216 5.38346 16.7851L7.47727 14.693Z" fill="url(#paint0_linear_2140_1522)"/>
<path d="M7.47727 6.87689C7.55851 6.79572 7.66866 6.75012 7.7835 6.75012H18.3798C18.5728 6.75012 18.6695 6.98354 18.5329 7.11998L16.4391 9.21212C16.3579 9.2933 16.2477 9.3389 16.1329 9.3389H5.53658C5.34354 9.3389 5.24691 9.10548 5.38346 8.96904L7.47727 6.87689Z" fill="url(#paint1_linear_2140_1522)"/>
<path d="M16.4391 10.7601C16.3579 10.6789 16.2477 10.6334 16.1329 10.6334H5.53658C5.34354 10.6334 5.24691 10.8668 5.38346 11.0032L7.47727 13.0953C7.55851 13.1765 7.66866 13.2221 7.7835 13.2221H18.3798C18.5728 13.2221 18.6695 12.9887 18.5329 12.8523L16.4391 10.7601Z" fill="url(#paint2_linear_2140_1522)"/>
</g>
<defs>
<linearGradient id="paint0_linear_2140_1522" x1="14.2958" y1="3.89598" x2="6.96224" y2="17.9427" gradientUnits="userSpaceOnUse">
<stop stop-color="#00FFA3"/>
<stop offset="1" stop-color="#DC1FFF"/>
</linearGradient>
<linearGradient id="paint1_linear_2140_1522" x1="14.2958" y1="3.89601" x2="6.96224" y2="17.9427" gradientUnits="userSpaceOnUse">
<stop stop-color="#00FFA3"/>
<stop offset="1" stop-color="#DC1FFF"/>
</linearGradient>
<linearGradient id="paint2_linear_2140_1522" x1="14.2958" y1="3.89607" x2="6.96224" y2="17.9428" gradientUnits="userSpaceOnUse">
<stop stop-color="#00FFA3"/>
<stop offset="1" stop-color="#DC1FFF"/>
</linearGradient>
<clipPath id="clip0_2140_1522">
<path d="M0 12C0 5.37258 5.37258 0 12 0C18.6274 0 24 5.37258 24 12C24 18.6274 18.6274 24 12 24C5.37258 24 0 18.6274 0 12Z" fill="white"/>
</clipPath>
</defs>
</svg>
