<svg width="16" height="16" viewBox="0 0 16 16" fill="none" xmlns="http://www.w3.org/2000/svg">
<path fill-rule="evenodd" clip-rule="evenodd" d="M4 0C2.89543 0 2 0.895431 2 2V9.06909H2.52909C2.50986 8.88202 2.5 8.69216 2.5 8.5C2.5 5.46243 4.96244 3 8 3C11.0376 3 13.5 5.46243 13.5 8.5C13.5 8.69216 13.4901 8.88202 13.4709 9.06909H13.9525V2C13.9525 0.89543 13.057 0 11.9525 0H4Z" fill="#194FFF"/>
<g filter="url(#filter0_bi_2398_1685)">
<circle cx="8" cy="8.5" r="7" fill="#BCCBF1" fill-opacity="0.5"/>
</g>
<path fill-rule="evenodd" clip-rule="evenodd" d="M9.0132 5.1002C9.13336 4.9666 9.32818 4.9666 9.44834 5.1002L10.3714 6.12652C10.4916 6.26012 10.4916 6.47673 10.3714 6.61033L9.44834 7.63664C9.32818 7.77024 9.13336 7.77024 9.0132 7.63664C8.89304 7.50304 8.89304 7.28643 9.0132 7.15283L9.41101 6.71053H5.84663C5.52043 6.71174 5.20789 6.85635 4.97721 7.11282C4.74654 7.36929 4.61647 7.71679 4.61538 8.07949V8.42105C4.61538 8.60999 4.47763 8.76316 4.30769 8.76316C4.13776 8.76316 4 8.60999 4 8.42105V8.07895L4 8.07793C4.00146 7.5343 4.19634 7.01341 4.54207 6.62901C4.8878 6.24461 5.3563 6.02794 5.84523 6.02632L5.84615 6.02632H9.41101L9.0132 5.58401C8.89304 5.45041 8.89304 5.2338 9.0132 5.1002ZM11.6923 7.73684C11.8622 7.73684 12 7.89001 12 8.07895V8.42105L12 8.42207C11.9985 8.9657 11.8037 9.48659 11.4579 9.87099C11.1122 10.2554 10.6437 10.4721 10.1548 10.4737L10.1538 10.4737H6.58899L6.9868 10.916C7.10696 11.0496 7.10696 11.2662 6.9868 11.3998C6.86664 11.5334 6.67182 11.5334 6.55166 11.3998L5.62858 10.3735C5.50842 10.2399 5.50842 10.0233 5.62858 9.88967L6.55166 8.86336C6.67182 8.72976 6.86664 8.72976 6.9868 8.86336C7.10696 8.99696 7.10696 9.21357 6.9868 9.34717L6.58899 9.78947H10.1534C10.4796 9.78825 10.7921 9.64364 11.0228 9.38718C11.2535 9.13069 11.3835 8.78316 11.3846 8.42045V8.07895C11.3846 7.89001 11.5224 7.73684 11.6923 7.73684Z" fill="#194FFF"/>
<defs>
<filter id="filter0_bi_2398_1685" x="-3" y="-2.5" width="22" height="22" filterUnits="userSpaceOnUse" color-interpolation-filters="sRGB">
<feFlood flood-opacity="0" result="BackgroundImageFix"/>
<feGaussianBlur in="BackgroundImage" stdDeviation="2"/>
<feComposite in2="SourceAlpha" operator="in" result="effect1_backgroundBlur_2398_1685"/>
<feBlend mode="normal" in="SourceGraphic" in2="effect1_backgroundBlur_2398_1685" result="shape"/>
<feColorMatrix in="SourceAlpha" type="matrix" values="0 0 0 0 0 0 0 0 0 0 0 0 0 0 0 0 0 0 127 0" result="hardAlpha"/>
<feOffset dx="0.2" dy="0.1"/>
<feGaussianBlur stdDeviation="0.5"/>
<feComposite in2="hardAlpha" operator="arithmetic" k2="-1" k3="1"/>
<feColorMatrix type="matrix" values="0 0 0 0 1 0 0 0 0 1 0 0 0 0 1 0 0 0 0.6 0"/>
<feBlend mode="normal" in2="shape" result="effect2_innerShadow_2398_1685"/>
</filter>
</defs>
</svg>
