<svg width="24" height="24" viewBox="0 0 24 24" fill="none" xmlns="http://www.w3.org/2000/svg">
<path d="M20.4827 3.51391C15.7983 -1.1713 8.19779 -1.1713 3.51334 3.51391C-1.17111 8.19913 -1.17111 15.7957 3.51334 20.4861C8.19779 25.1713 15.7931 25.1713 20.4827 20.4861C25.1724 15.7957 25.1724 8.19913 20.4827 3.51391Z" fill="#D78E0C"/>
<path d="M12 22.5C17.799 22.5 22.5 17.799 22.5 12C22.5 6.20101 17.799 1.5 12 1.5C6.20101 1.5 1.5 6.20101 1.5 12C1.5 17.799 6.20101 22.5 12 22.5Z" fill="#ECAB2C"/>
<path d="M12 21.375C17.1777 21.375 21.375 17.1777 21.375 12C21.375 6.82233 17.1777 2.625 12 2.625C6.82233 2.625 2.625 6.82233 2.625 12C2.625 17.1777 6.82233 21.375 12 21.375Z" fill="#FFC864"/>
<path d="M19.125 16.1263V7.87894L12 3.75L4.875 7.87369V16.1211L12 20.25L19.125 16.1263Z" fill="#ECAB2C"/>
<path opacity="0.15" d="M17.9948 14.0957C17.9532 13.5588 17.8386 13.0844 17.7085 12.6153C17.5732 12.1461 17.417 11.6979 17.2349 11.26C17.0527 10.8221 16.8445 10.3947 16.5999 9.98286C16.4749 9.77956 16.3396 9.57626 16.1887 9.38339C16.0325 9.19052 15.8608 9.00286 15.6265 8.84126C15.5068 8.76307 15.3767 8.69531 15.2154 8.65361C15.0592 8.6119 14.8666 8.6119 14.6845 8.67967C14.5023 8.74744 14.3513 8.86733 14.2368 8.99243C14.1223 9.11754 14.0338 9.24786 13.961 9.37297C13.8152 9.62839 13.7163 9.86818 13.6278 10.1028C13.6122 10.1445 13.6018 10.1809 13.5862 10.2226C13.4769 10.0819 13.3624 9.94115 13.2479 9.80562C13.1021 9.6336 12.946 9.47722 12.7638 9.32084C12.6753 9.24265 12.5764 9.16967 12.4619 9.09669C12.3474 9.02892 12.2069 8.96116 12.0039 8.96116C11.8009 8.96116 11.6604 9.02892 11.5459 9.09669C11.4314 9.16446 11.3377 9.24265 11.244 9.32084C11.067 9.47722 10.9057 9.6336 10.7599 9.80562C10.7079 9.86818 10.6558 9.93073 10.6038 9.99328C10.5413 10.0715 10.4789 10.1445 10.4164 10.2226C10.4008 10.1809 10.3904 10.1445 10.3748 10.1028C10.2863 9.86818 10.1874 9.62318 10.0416 9.37297C9.96877 9.24786 9.88029 9.11754 9.76578 8.99243C9.65127 8.86733 9.50033 8.74744 9.31815 8.67967C9.13598 8.6119 8.9434 8.6119 8.78725 8.65361C8.6259 8.69531 8.49057 8.76307 8.37606 8.84126C8.14183 8.99765 7.97007 9.19052 7.81392 9.38339C7.65778 9.57626 7.52245 9.77956 7.40273 9.98286C7.1581 10.3947 6.9499 10.8221 6.76773 11.26C6.58556 11.6979 6.42941 12.1514 6.29408 12.6153C6.16396 13.0844 6.04945 13.5588 6.00781 14.0957C5.9974 14.2312 5.9974 14.372 6.00781 14.5232C6.02342 14.6743 6.04424 14.8464 6.13793 15.034C6.18478 15.1278 6.25765 15.2217 6.35133 15.2842C6.44502 15.3468 6.54392 15.3728 6.6272 15.3728C6.67404 15.3728 6.70007 15.3676 6.7313 15.3676C6.76252 15.3624 6.79375 15.3572 6.82498 15.352C6.88744 15.3363 6.9447 15.3207 7.00195 15.2946C7.44437 15.107 7.74105 14.7734 8.03253 14.4398C8.3188 14.1061 8.57385 13.7465 8.82889 13.3972L9.94795 11.8073C10.0052 12.0419 10.0625 12.2817 10.1249 12.5215C10.255 12.9854 10.4112 13.4598 10.6818 13.9237C10.8224 14.1531 10.9993 14.3772 11.2284 14.5492C11.4574 14.7212 11.7332 14.8203 11.9987 14.8359C12.2642 14.8151 12.54 14.716 12.769 14.5492C12.998 14.3772 13.175 14.1531 13.3155 13.9237C13.5862 13.4598 13.7424 12.9854 13.8725 12.5215C13.9401 12.2817 13.9974 12.0419 14.0494 11.8073L15.1685 13.3972C15.4236 13.7465 15.6786 14.1061 15.9649 14.4398C16.2563 14.7682 16.5582 15.1018 16.9954 15.2946C17.0527 15.3155 17.11 15.3363 17.1724 15.352C17.2036 15.3572 17.2349 15.3676 17.2661 15.3676C17.2973 15.3728 17.3286 15.3781 17.3702 15.3728C17.4535 15.3676 17.5524 15.3468 17.6461 15.2842C17.7398 15.2217 17.8126 15.1278 17.8595 15.034C17.9532 14.8411 17.974 14.6743 17.9896 14.5232C18.0052 14.372 18 14.2312 17.9948 14.0957ZM7.80351 14.1114C7.55888 14.4606 7.27261 14.7838 6.91347 14.9454C6.82498 14.9819 6.73129 15.0027 6.63761 15.0027C6.59076 14.9975 6.54392 14.9871 6.50228 14.9558C6.46064 14.9245 6.42941 14.8828 6.40338 14.8307C6.35654 14.7317 6.34092 14.6118 6.33051 14.4919C6.32531 14.3772 6.33051 14.2573 6.34092 14.1426C6.36695 13.9081 6.40859 13.6787 6.46584 13.4545C6.51789 13.2304 6.58556 13.0115 6.65843 12.7925C6.80937 12.3599 6.97593 11.9429 7.17372 11.5415C7.3715 11.1453 7.59532 10.7648 7.83995 10.4155C7.96487 10.2435 8.09499 10.0767 8.23032 9.93073C8.37085 9.78477 8.51659 9.65445 8.66753 9.57105C8.81848 9.48765 8.97463 9.45637 9.08914 9.51892C9.20364 9.57626 9.30774 9.72222 9.39102 9.89945C9.55237 10.2435 9.65647 10.6657 9.76057 11.088C9.56799 11.3642 9.38061 11.6353 9.19844 11.9168C8.95381 12.2765 8.71438 12.6309 8.49057 13.0063C8.37606 13.1887 8.26675 13.3816 8.15225 13.564C8.04815 13.7569 7.92843 13.9393 7.80351 14.1114ZM12.9668 12.0627C12.8211 12.4537 12.6597 12.8134 12.4828 13.048C12.3943 13.1626 12.311 13.2356 12.2329 13.2773C12.1601 13.3138 12.0872 13.3294 11.9987 13.3242C11.9102 13.3294 11.8373 13.319 11.7645 13.2773C11.6916 13.2356 11.6031 13.1626 11.5146 13.048C11.3377 12.8186 11.1711 12.4537 11.0306 12.0627C10.8953 11.6926 10.7703 11.286 10.635 10.8638C10.7912 10.6605 10.9473 10.4572 11.1139 10.2643C11.2492 10.1028 11.3949 9.95158 11.5407 9.82126C11.6135 9.7535 11.6916 9.69616 11.7697 9.64403C11.8478 9.59711 11.931 9.56584 11.9987 9.57105C12.0664 9.57105 12.1496 9.59711 12.2277 9.64403C12.3058 9.69094 12.3839 9.7535 12.4567 9.82126C12.6077 9.95679 12.7482 10.1028 12.8835 10.2643C13.0449 10.4572 13.2062 10.6605 13.3624 10.8638C13.2271 11.2808 13.1021 11.6874 12.9668 12.0627ZM17.6617 14.4971C17.6565 14.6118 17.6409 14.7317 17.5888 14.8359C17.5628 14.8881 17.5316 14.9298 17.4899 14.961C17.4483 14.9923 17.4014 15.0027 17.3546 15.0079C17.2609 15.0132 17.1672 14.9871 17.0787 14.9506C16.7196 14.789 16.4385 14.4658 16.1887 14.1166C16.0638 13.9445 15.944 13.7621 15.8295 13.5744C15.715 13.392 15.6057 13.1991 15.4912 13.0167C15.2674 12.6466 15.0228 12.2869 14.7833 11.9272C14.6012 11.6509 14.4086 11.3747 14.2212 11.0984C14.3253 10.6762 14.4294 10.2539 14.5908 9.90988C14.674 9.73264 14.7781 9.58669 14.8926 9.52935C15.0072 9.47201 15.1633 9.49807 15.3142 9.58148C15.4652 9.66488 15.6161 9.7952 15.7515 9.94115C15.892 10.0871 16.0221 10.2539 16.1418 10.4259C16.3865 10.7752 16.6051 11.1557 16.8081 11.5519C17.0059 11.9481 17.1776 12.3703 17.3234 12.803C17.3962 13.0167 17.4639 13.2408 17.5159 13.465C17.568 13.6891 17.6148 13.9185 17.6409 14.1531C17.6617 14.2625 17.6721 14.3772 17.6617 14.4971Z" fill="#B57F08"/>
<path d="M8.95312 7.125C8.72109 7.125 8.53125 7.31489 8.53125 7.54698L8.49434 14.0876L6.82266 8.68631C6.7541 8.46478 6.5168 8.33818 6.29531 8.40675C6.12129 8.4595 6 8.62302 6 8.80763V15.5593C6 15.7914 6.18984 15.9812 6.42188 15.9812C6.65391 15.9812 6.84375 15.7914 6.84375 15.5593V11.598L8.49961 16.9518C8.56816 17.1733 8.80547 17.2999 9.02695 17.2313C9.20098 17.1786 9.32227 17.0151 9.32227 16.8305L9.375 7.54698C9.375 7.31489 9.19043 7.125 8.95312 7.125Z" fill="white"/>
<path d="M17.7732 8.53511L16.5508 7.8762C16.5245 7.85512 16.4929 7.83931 16.4613 7.82876L15.2441 7.17513C15.0387 7.06443 14.7858 7.1435 14.6751 7.34908C14.5645 7.55466 14.6435 7.80768 14.849 7.91837L15.8922 8.4824V16.0783C15.8922 16.3102 16.0819 16.5 16.3137 16.5C16.5456 16.5 16.7353 16.3102 16.7353 16.0783V8.93046L17.3781 9.27836C17.5836 9.38906 17.8365 9.31526 17.9524 9.10968C18.0578 8.9041 17.984 8.65108 17.7732 8.53511C17.7785 8.53511 17.7732 8.53511 17.7732 8.53511Z" fill="white"/>
<path d="M14.0252 6.1261L12.4741 5.30107C12.3436 5.22888 12.1817 5.23404 12.0563 5.31138L10.6985 6.13642C10.5731 6.21376 10.5 6.34267 10.5 6.48705V17.2125C10.5 17.4394 10.688 17.625 10.9178 17.625C11.1476 17.625 11.3356 17.4394 11.3356 17.2125V12.1592H13.4246C13.6544 12.1592 13.8424 11.9735 13.8424 11.7466C13.8424 11.5198 13.6544 11.3341 13.4246 11.3341H11.3356V6.7191L12.2913 6.14157L13.6335 6.85316C13.8372 6.96145 14.0879 6.88926 14.2028 6.68816C14.3072 6.48706 14.2341 6.23954 14.0252 6.1261C14.0305 6.1261 14.0252 6.1261 14.0252 6.1261Z" fill="white"/>
</svg>
