<svg width="56" height="56" viewBox="0 0 56 56" fill="none" xmlns="http://www.w3.org/2000/svg">
<path d="M2.98047 27.4745C2.98047 13.4053 14.3858 2 28.455 2V2C42.5242 2 53.9295 13.4053 53.9295 27.4745V28.2865C53.9295 42.3556 42.5242 53.761 28.455 53.761V53.761C14.3858 53.761 2.98047 42.3556 2.98047 28.2864V27.4745Z" fill="#002AB2"/>
<g clip-path="url(#clip0_740_56815)">
<path d="M41.0179 15.9945L40.7178 15.8723C40.7586 15.9146 40.8029 15.9534 40.8503 15.9882C41.2394 16.3361 42.355 17.4375 42.6117 18.7709C42.6128 18.7868 42.6128 18.8027 42.6117 18.8185C42.632 18.9342 42.6445 19.0511 42.6489 19.1684C42.6669 19.4623 42.6258 19.7569 42.528 20.0346C42.4302 20.3123 42.2778 20.5676 42.0797 20.7854C41.9212 20.9575 41.7288 21.0949 41.5147 21.1892C41.2411 21.3016 40.9465 21.3535 40.6511 21.3413C40.3556 21.3292 40.0663 21.2532 39.8029 21.1188C40.2314 21.9594 40.6888 23.4604 39.954 24.328C39.8878 20.0939 38.0208 21.1623 36.8928 20.6778C35.7647 20.1933 35.1376 20.1374 33.875 20.2637C33.7979 20.2688 33.7252 20.3012 33.6698 20.355C33.6144 20.4089 33.58 20.4808 33.5728 20.5577C33.5314 21.4211 33.4486 23.0422 32.1943 23.6116C32.5979 22.9905 33.1113 22.1623 32.8608 21.0028C32.7242 20.3817 32.1115 20.2306 31.3209 20.1498C25.838 19.3216 27.2082 16.216 27.5952 15.5265L27.4048 15.8371C27.4773 15.6984 27.5642 15.5514 27.6635 15.4002C27.6511 15.4209 27.6242 15.4623 27.5911 15.5224L27.6718 15.3857C26.1919 16.2615 25.3102 18.8744 26.4734 20.8972C27.4338 22.5681 28.9178 23.1416 31.116 23.8435C29.8741 29.1583 32.8629 29.1169 34.3304 30.4461C34.6119 30.7008 34.7091 30.9534 34.9348 31.2391C35.2522 31.1672 35.5433 31.008 35.7751 30.7794C35.8603 30.6882 35.9233 30.5785 35.9592 30.4589C35.9951 30.3393 36.0029 30.2131 35.9821 30.09C35.8144 29.0548 35.1852 27.7256 34.5022 27.3984C33.8191 27.0713 33.2603 27.063 33.2748 26.3156C33.2872 25.6945 33.4362 25.5971 32.985 24.6592C34.4649 25.2804 36.0276 27.7897 36.4664 30.0589C36.4763 30.292 36.4343 30.5244 36.3434 30.7393C36.2525 30.9541 36.1149 31.1461 35.9407 31.3012C35.6903 31.5423 35.391 31.7266 35.0631 31.8416C35.1707 33.9638 35.6964 33.382 37.6793 33.471C38.7018 33.5166 38.6997 33.589 39.1551 32.8892C39.4884 32.4456 39.6861 31.9149 39.7243 31.3612C39.7512 31.2163 39.5835 29.6407 39.4842 28.7297C39.4187 28.1523 39.4069 27.5701 39.449 26.9905C39.4832 26.2908 39.6615 25.6057 39.9727 24.9781C41.4381 24.8021 42.1232 24.4336 42.7772 23.8952C46.091 21.183 43.6238 16.835 41.0179 15.9945Z" fill="white"/>
<path d="M36.1992 19.7916C36.6483 19.92 37.1182 20.1104 37.4969 20.1767C38.0599 20.2761 38.3994 20.2015 38.9789 20.3589C38.2152 19.3237 37.4617 17.3381 33.1669 16.599C33.5146 17.1559 34.4854 17.7501 34.8973 18.2305C33.7444 17.7522 32.399 16.688 31.0743 15.6217C30.3188 15.0151 29.6586 14.7128 28.7582 15.1476C28.0462 15.4851 27.5453 16.5286 28.0359 17.6653C29.1598 20.2699 34.0424 19.1767 36.1992 19.7916Z" fill="white"/>
<path d="M34.6491 33.084C34.4669 32.496 34.5373 31.8542 34.3531 31.4049C33.6887 29.79 29.3856 30.1171 30.2963 24.3468C26.9142 23.5186 24.9686 21.7049 25.4157 18.1148C25.5419 17.3425 24.8382 16.7441 23.8261 16.9926C22.3337 17.3611 19.7465 19.1748 18.3473 19.6635C17.4448 19.9823 15.7207 20.119 15.6565 18.8353C17.0226 19.4709 18.9186 17.9139 18.517 16.1582C18.2583 17.3218 17.8961 17.268 16.7722 17.1085C16.0208 17.0112 15.166 17.4998 15.0749 18.297C15.0289 18.6066 15.0552 18.9228 15.1518 19.2206C15.2484 19.5183 15.4127 19.7897 15.6317 20.0134C17.2648 21.7546 20.2039 19.9036 21.6341 19.0651C22.1081 18.7856 23.9647 17.3239 24.6788 17.8394C24.7531 17.8973 24.8093 17.9752 24.8408 18.064C24.8723 18.1527 24.8779 18.2486 24.8568 18.3404C24.7513 18.8622 23.9751 19.4833 23.6149 19.7628C22.5076 20.6552 21.7832 21.0486 21.1084 22.4337C20.7623 23.1139 20.481 23.8251 20.2681 24.558C21.2305 24.1956 21.9073 23.2909 22.5014 22.794C22.0357 24.1315 19.1897 25.8106 18.2065 28.8645C17.567 30.8625 17.4697 33.4588 16.619 35.169C16.3313 35.7487 15.8552 36.3263 15.6772 36.7611C16.5362 37.2146 16.8798 37.2021 17.4655 38.0282C17.0907 37.8105 16.6902 37.6401 16.2733 37.521C15.3088 37.1918 15.1536 37.1069 14.7024 37.728C14.2511 38.3492 13.386 39.8275 13.3301 40.7964L18.0906 40.8213L18.1672 38.6535C18.1694 38.5688 18.1889 38.4854 18.2245 38.4085C18.2601 38.3316 18.311 38.2628 18.3742 38.2063C19.465 37.2353 18.5998 35.2849 21.2595 33.0302C21.7687 32.5975 22.2841 31.9743 22.727 31.5374C22.2841 30.3676 21.9963 30.1067 22.0584 28.2806C22.2116 29.2454 23.0271 30.9391 23.6584 31.8004C24.1055 32.4215 24.3083 33.0095 24.5588 33.6493C25.4467 35.9123 25.5295 36.5914 28.1043 35.7797C31.1304 34.817 30.9234 33.8625 33.6473 32.8977C33.2547 33.4616 32.7572 33.9445 32.1819 34.3201C31.9432 34.4787 31.7585 34.7062 31.652 34.9723L30.8054 37.0779C31.652 37.0697 32.4704 37.3818 33.0967 37.9516C32.3371 37.7446 30.7889 37.1732 30.1845 37.8916C29.7705 38.3906 29.3028 39.991 29.3938 40.8047H34.0136C34.1937 39.8999 33.9019 39.4651 33.8957 38.7343C33.8894 38.0034 34.3407 38.1276 34.351 36.9951C34.3614 35.8626 35.1789 34.6265 35.7192 33.9847C35.419 33.7921 34.9657 34.0903 34.6491 33.084Z" fill="white"/>
<path d="M39.9864 37.9081C39.2785 37.5313 38.581 37.6555 37.2667 38.5727C37.513 37.9889 38.254 37.5541 38.8066 37.3305C39.6842 36.9598 40.1954 37.4692 38.7197 34.0178L36.1738 33.9888C35.8675 34.9929 36.002 34.3407 36.1635 35.7776C36.2049 36.1503 36.1986 36.6058 36.2338 37.0696C36.2632 37.6998 36.3625 38.3247 36.5298 38.933C36.6478 39.3264 36.4118 39.875 36.4739 40.7839L41.1579 40.815C40.9882 39.786 40.539 38.2042 39.9864 37.9081Z" fill="white"/>
<path d="M21.6381 36.2268C20.3134 37.7879 22.8799 37.028 23.4636 38.4587C22.4184 38.1357 21.1661 36.9638 20.1519 38.4587C19.7049 39.1233 19.56 39.6761 19.293 40.7879H24.1177C24.0721 40.1502 23.9542 39.1751 24.1177 38.5353C24.1455 38.435 24.1865 38.3389 24.2398 38.2496C24.5531 37.6834 24.7508 37.0605 24.8214 36.4172C24.9063 35.7796 23.8879 33.2847 23.594 32.8623C23.1534 34.0941 22.4904 35.2345 21.6381 36.2268V36.2268Z" fill="white"/>
</g>
<path d="M51.9295 27.4745V28.2865H55.9295V27.4745H51.9295ZM4.98047 28.2864V27.4745H0.980469V28.2864H4.98047ZM28.455 51.761C15.4904 51.761 4.98047 41.2511 4.98047 28.2864H0.980469C0.980469 43.4602 13.2812 55.761 28.455 55.761V51.761ZM51.9295 28.2865C51.9295 41.2511 41.4196 51.761 28.455 51.761V55.761C43.6287 55.761 55.9295 43.4602 55.9295 28.2865H51.9295ZM28.455 4C41.4196 4 51.9295 14.5099 51.9295 27.4745H55.9295C55.9295 12.3008 43.6287 0 28.455 0V4ZM28.455 0C13.2812 0 0.980469 12.3007 0.980469 27.4745H4.98047C4.98047 14.5099 15.4904 4 28.455 4V0Z" fill="white"/>
<defs>
<clipPath id="clip0_740_56815">
<rect width="31.0471" height="25.8805" fill="white" transform="translate(13.3301 14.9404)"/>
</clipPath>
</defs>
</svg>
