<svg width="24" height="24" viewBox="0 0 24 24" fill="none" xmlns="http://www.w3.org/2000/svg">
<circle cx="12" cy="12" r="12" fill="#FFED96"/>
<circle cx="12" cy="12" r="10" fill="#FFB800"/>
<path d="M15.7 13.15C15.7 11.5459 14.65 10.9959 12.55 10.7667C11.05 10.5834 10.75 10.2167 10.75 9.575C10.75 8.93326 11.25 8.52087 12.25 8.52087C13.15 8.52087 13.65 8.79587 13.9 9.48337C13.95 9.62087 14.1 9.7125 14.25 9.7125H15.0499C15.25 9.7125 15.4 9.575 15.4 9.39174V9.34587C15.1999 8.3375 14.2999 7.55837 13.15 7.46674V6.36674C13.15 6.18337 13 6.04587 12.75 6H12C11.8 6 11.65 6.1375 11.5999 6.36674V7.42087C10.0999 7.60424 9.15 8.52087 9.15 9.66674C9.15 11.1792 10.15 11.775 12.25 12.0042C13.65 12.2334 14.1 12.5084 14.1 13.2417C14.1 13.9751 13.3999 14.4792 12.45 14.4792C11.1499 14.4792 10.6999 13.975 10.5499 13.2875C10.5 13.1042 10.35 13.0125 10.2 13.0125H9.34992C9.15 13.0125 9 13.15 9 13.3334V13.3792C9.19992 14.525 9.99996 15.35 11.65 15.5793V16.6793C11.65 16.8625 11.8 17 12.0499 17.0459H12.7999C13 17.0459 13.15 16.9084 13.2 16.6793V15.5793C14.7 15.35 15.7 14.3875 15.7 13.15Z" fill="#FFED97"/>
</svg>
