<svg width="94" height="13" viewBox="0 0 94 13" fill="none" xmlns="http://www.w3.org/2000/svg">
<path d="M52.223 0.263184H38.2207V2.38735H43.8173V12.1053H46.6264V2.38735H52.223V0.263184Z" fill="white"/>
<path d="M62.8244 0.300181L62.8029 0.263184H58.669L52.0756 12.0091L52.0195 12.1053H55.1005L56.7575 9.14475L57.9096 7.08719H57.9053L58.6863 5.69574L60.7144 2.0876H60.7316L66.3067 12.0683L66.3283 12.1053H69.4696L62.8244 0.300181Z" fill="white"/>
<path d="M74.9926 0.263184H72.2051V12.1053H74.9926V0.263184Z" fill="white"/>
<path d="M35.7465 0.263184H21.7441V2.38735H35.7465V0.263184Z" fill="white"/>
<path d="M35.7465 5.12305H21.7441V7.24722H35.7465V5.12305Z" fill="white"/>
<path d="M35.7465 9.97998H21.7441V12.1042H35.7465V9.97998Z" fill="white"/>
<path d="M9.73908 9.11143H9.72182L4.77245 0.300181L4.75088 0.263184H0V12.1053H2.77027V2.40585L8.23744 12.1053H10.9516L16.4792 2.40585V12.1053H19.2667V0.263184H14.7704L9.73908 9.11143Z" fill="white"/>
<path d="M90.406 0.263184V9.78125H90.3887L81.9873 0.289091L81.9614 0.263184H77.7715V12.1053H80.559V2.6057L89.0036 12.1053H93.1978V0.263184H90.406Z" fill="white"/>
</svg>
