<svg width="32" height="32" viewBox="0 0 32 32" fill="none" xmlns="http://www.w3.org/2000/svg">
<g filter="url(#filter0_bi_2463_17457)">
<path d="M14.7782 5.18521C13.9722 4.31164 12.8464 3.83057 11.6038 3.83057C10.3546 3.83057 9.22509 4.30873 8.42279 5.1769C7.61179 6.05463 7.21664 7.24753 7.30942 8.53565C7.49333 11.077 9.41976 13.1443 11.6038 13.1443C13.7879 13.1443 15.711 11.0774 15.8978 8.53648C15.9918 7.26 15.5942 6.0696 14.7782 5.18521Z" fill="#0036E5"/>
<path d="M18.8937 22.458H4.31395C4.12311 22.4605 3.93412 22.4202 3.76073 22.3402C3.58734 22.2601 3.43391 22.1423 3.31159 21.9952C3.04236 21.6721 2.93384 21.231 3.0142 20.7848C3.36378 18.8381 4.45478 17.2028 6.16955 16.0548C7.69297 15.0357 9.62271 14.4748 11.6038 14.4748C13.5849 14.4748 15.5147 15.0361 17.0381 16.0548C18.7529 17.2024 19.8439 18.8377 20.1934 20.7844C20.2738 21.2306 20.1653 21.6717 19.896 21.9948C19.7738 22.1419 19.6204 22.2598 19.447 22.34C19.2736 22.4201 19.0846 22.4604 18.8937 22.458Z" fill="#0036E5"/>
</g>
<g filter="url(#filter1_bi_2463_17457)">
<path d="M19.25 23.875C20.2597 23.875 21.0781 23.0355 21.0781 22C21.0781 20.9645 20.2597 20.125 19.25 20.125C18.2404 20.125 17.4219 20.9645 17.4219 22C17.4219 23.0355 18.2404 23.875 19.25 23.875Z" fill="#BCCBF1" fill-opacity="0.5"/>
<path d="M27.4153 23.7188L27.3974 23.7039L26.1954 22.7371C26.1192 22.6753 26.0585 22.5959 26.0181 22.5054C25.9777 22.4149 25.9589 22.3159 25.963 22.2164V21.7648C25.9592 21.666 25.9783 21.5677 26.0188 21.4779C26.0592 21.3881 26.1199 21.3095 26.1957 21.2484L27.3974 20.2812L27.4153 20.2664C27.6006 20.1081 27.7249 19.8873 27.7661 19.6435C27.8073 19.3998 27.7626 19.149 27.64 18.9359L26.0133 16.0492C26.0114 16.0465 26.0098 16.0436 26.0084 16.0406C25.8851 15.8305 25.694 15.6713 25.4682 15.5907C25.2425 15.5101 24.9963 15.5131 24.7725 15.5992L24.7591 15.6043L23.3462 16.1875C23.257 16.2245 23.1605 16.2392 23.0647 16.2304C22.9689 16.2217 22.8765 16.1897 22.7951 16.1371C22.6701 16.0564 22.5432 15.9801 22.4142 15.9082C22.3306 15.8617 22.2588 15.7957 22.2046 15.7155C22.1504 15.6353 22.1154 15.5431 22.1023 15.4465L21.8894 13.9L21.8848 13.8719C21.8385 13.6323 21.7131 13.4165 21.5299 13.2605C21.3466 13.1046 21.1167 13.0181 20.8786 13.0156H17.6215C17.38 13.0164 17.1466 13.1046 16.9623 13.2646C16.778 13.4246 16.6547 13.6461 16.6141 13.8902L16.6107 13.9121L16.3985 15.4617C16.3855 15.5581 16.3507 15.65 16.297 15.7302C16.2432 15.8103 16.172 15.8765 16.0889 15.9234C15.9586 15.9953 15.8314 16.0715 15.708 16.1508C15.6268 16.203 15.5346 16.2348 15.4391 16.2434C15.3435 16.252 15.2473 16.2373 15.1584 16.2004L13.7443 15.6145L13.731 15.609C13.5068 15.5228 13.2603 15.5199 13.0343 15.6008C12.8083 15.6817 12.6171 15.8414 12.494 16.052L12.489 16.0605L10.8601 18.9492C10.7373 19.1625 10.6925 19.4136 10.7336 19.6576C10.7748 19.9016 10.8993 20.1227 11.0848 20.2812L11.1027 20.2961L12.3047 21.2629C12.3808 21.3247 12.4415 21.4041 12.4819 21.4946C12.5223 21.5851 12.5412 21.6841 12.537 21.7836V22.2352C12.5408 22.334 12.5217 22.4323 12.4812 22.5221C12.4408 22.6119 12.3801 22.6905 12.3043 22.7516L11.1027 23.7188L11.0848 23.7336C10.8995 23.8919 10.7751 24.1127 10.7339 24.3565C10.6928 24.6002 10.7375 24.851 10.8601 25.0641L12.4867 27.9508C12.4886 27.9535 12.4902 27.9564 12.4917 27.9594C12.6149 28.1695 12.806 28.3287 13.0318 28.4093C13.2576 28.4899 13.5037 28.4869 13.7276 28.4008L13.7409 28.3957L15.1527 27.8125C15.2419 27.7755 15.3384 27.7608 15.4342 27.7696C15.53 27.7783 15.6224 27.8103 15.7038 27.8629C15.8288 27.9439 15.9557 28.0202 16.0847 28.0918C16.1683 28.1383 16.2401 28.2043 16.2943 28.2845C16.3485 28.3647 16.3835 28.4569 16.3966 28.5535L16.6084 30.1L16.6129 30.1281C16.6594 30.368 16.785 30.5842 16.9687 30.7402C17.1525 30.8962 17.383 30.9824 17.6215 30.9844H20.8786C21.12 30.9836 21.3534 30.8954 21.5377 30.7354C21.722 30.5754 21.8453 30.3539 21.8859 30.1098L21.8894 30.0879L22.1015 28.5383C22.1147 28.4417 22.1498 28.3497 22.2039 28.2695C22.258 28.1893 22.3296 28.1233 22.4131 28.0766C22.5433 28.0047 22.6705 27.9285 22.7939 27.8492C22.8752 27.797 22.9673 27.7652 23.0629 27.7566C23.1584 27.748 23.2546 27.7627 23.3435 27.7996L24.7576 28.3836L24.771 28.3891C24.9951 28.4754 25.2417 28.4784 25.4677 28.3975C25.6938 28.3165 25.885 28.1568 26.008 27.9461C26.0095 27.9431 26.0111 27.9403 26.0129 27.9375L27.6396 25.0512C27.7626 24.8379 27.8076 24.5868 27.7665 24.3426C27.7254 24.0985 27.6009 23.8773 27.4153 23.7188ZM22.2935 22.1469C22.2657 22.7518 22.0672 23.3354 21.7221 23.8268C21.377 24.3181 20.9001 24.696 20.3494 24.9145C19.7987 25.1331 19.198 25.1828 18.6203 25.0576C18.0426 24.9325 17.5128 24.6379 17.0954 24.2097C16.6779 23.7814 16.3907 23.238 16.2688 22.6455C16.1468 22.0529 16.1954 21.4368 16.4085 20.8721C16.6216 20.3073 16.9901 19.8183 17.4692 19.4643C17.9484 19.1104 18.5174 18.9069 19.1072 18.8785C19.5306 18.8594 19.9533 18.9309 20.3483 19.0883C20.7434 19.2458 21.1021 19.4859 21.4018 19.7933C21.7015 20.1007 21.9355 20.4687 22.089 20.8739C22.2425 21.2791 22.3122 21.7126 22.2935 22.1469Z" fill="#BCCBF1" fill-opacity="0.5"/>
</g>
<defs>
<filter id="filter0_bi_2463_17457" x="-2.01172" y="-1.16943" width="27.2305" height="28.6274" filterUnits="userSpaceOnUse" color-interpolation-filters="sRGB">
<feFlood flood-opacity="0" result="BackgroundImageFix"/>
<feGaussianBlur in="BackgroundImage" stdDeviation="2.5"/>
<feComposite in2="SourceAlpha" operator="in" result="effect1_backgroundBlur_2463_17457"/>
<feBlend mode="normal" in="SourceGraphic" in2="effect1_backgroundBlur_2463_17457" result="shape"/>
<feColorMatrix in="SourceAlpha" type="matrix" values="0 0 0 0 0 0 0 0 0 0 0 0 0 0 0 0 0 0 127 0" result="hardAlpha"/>
<feOffset dx="0.2" dy="0.1"/>
<feGaussianBlur stdDeviation="0.5"/>
<feComposite in2="hardAlpha" operator="arithmetic" k2="-1" k3="1"/>
<feColorMatrix type="matrix" values="0 0 0 0 1 0 0 0 0 1 0 0 0 0 1 0 0 0 0.6 0"/>
<feBlend mode="normal" in2="shape" result="effect2_innerShadow_2463_17457"/>
</filter>
<filter id="filter1_bi_2463_17457" x="5.71875" y="8.01562" width="27.0625" height="27.9688" filterUnits="userSpaceOnUse" color-interpolation-filters="sRGB">
<feFlood flood-opacity="0" result="BackgroundImageFix"/>
<feGaussianBlur in="BackgroundImage" stdDeviation="2.5"/>
<feComposite in2="SourceAlpha" operator="in" result="effect1_backgroundBlur_2463_17457"/>
<feBlend mode="normal" in="SourceGraphic" in2="effect1_backgroundBlur_2463_17457" result="shape"/>
<feColorMatrix in="SourceAlpha" type="matrix" values="0 0 0 0 0 0 0 0 0 0 0 0 0 0 0 0 0 0 127 0" result="hardAlpha"/>
<feOffset dx="0.2" dy="0.1"/>
<feGaussianBlur stdDeviation="0.5"/>
<feComposite in2="hardAlpha" operator="arithmetic" k2="-1" k3="1"/>
<feColorMatrix type="matrix" values="0 0 0 0 1 0 0 0 0 1 0 0 0 0 1 0 0 0 0.6 0"/>
<feBlend mode="normal" in2="shape" result="effect2_innerShadow_2463_17457"/>
</filter>
</defs>
</svg>
