<svg width="32" height="32" viewBox="0 0 32 32" fill="none" xmlns="http://www.w3.org/2000/svg">
<path fill-rule="evenodd" clip-rule="evenodd" d="M2.76758 13.1441C2.76758 8.25314 6.73134 4.27393 11.6038 4.27393C16.4762 4.27393 20.44 8.25314 20.44 13.1441C20.44 18.0351 16.4762 22.0143 11.6038 22.0143C6.73134 22.0143 2.76758 18.0351 2.76758 13.1441ZM15.6557 9.02835L15.7582 9.07022C16.6482 9.35832 17.4908 10.8485 16.3591 11.7781C16.1357 11.9626 15.9017 12.0889 15.4012 12.1492C15.295 12.3643 15.2341 12.5992 15.2224 12.839C15.208 13.0376 15.212 13.2372 15.2344 13.4351C15.2683 13.7473 15.3256 14.2873 15.3164 14.337C15.3034 14.5267 15.2359 14.7086 15.122 14.8607C14.9807 15.0787 14.9684 15.078 14.7052 15.0644C14.6788 15.063 14.6498 15.0615 14.618 15.0601C14.4757 15.0537 14.3553 15.0574 14.2537 15.0606C13.8716 15.0724 13.7535 15.0761 13.7245 14.5016C13.8365 14.4622 13.9387 14.399 14.0242 14.3164C14.0837 14.2632 14.1307 14.1975 14.1617 14.1238C14.1928 14.0502 14.2071 13.9705 14.2037 13.8906C14.0539 13.1129 13.5202 12.2528 13.0147 12.04C13.1363 12.2935 13.1303 12.3678 13.1203 12.4924L13.1203 12.4924C13.1176 12.5257 13.1146 12.5627 13.1137 12.6076C13.1098 12.8078 13.2255 12.8533 13.3874 12.9171L13.3875 12.9171L13.3875 12.9171L13.3876 12.9171L13.3876 12.9171C13.433 12.935 13.4819 12.9543 13.5329 12.9788C13.7662 13.0909 13.9811 13.5465 14.0383 13.9013C14.0455 13.9435 14.0428 13.9867 14.0305 14.0277C14.0183 14.0687 13.9967 14.1063 13.9676 14.1376C13.8885 14.2159 13.7891 14.2705 13.6806 14.2951C13.6522 14.259 13.6298 14.2245 13.608 14.1909L13.608 14.1909C13.5706 14.1333 13.5349 14.0784 13.4742 14.0233C13.3622 13.9215 13.2242 13.8431 13.0821 13.7625C12.5889 13.4824 12.0471 13.1747 12.3764 11.7604C11.6257 11.5198 11.1189 11.3232 10.7909 10.7506C10.3936 10.0573 10.6947 9.16176 11.2001 8.86159L11.1964 8.86802C11.1628 8.91931 11.1335 8.96919 11.109 9.01629L11.174 8.90984C11.0418 9.14614 10.5738 10.2106 12.4464 10.4944C12.7164 10.5221 12.9257 10.5739 12.9723 10.7868C13.0579 11.1842 12.8826 11.468 12.7447 11.6809C13.1731 11.4857 13.2014 10.9301 13.2155 10.6342C13.218 10.6078 13.2297 10.5832 13.2486 10.5647C13.2675 10.5463 13.2924 10.5352 13.3187 10.5334C13.7499 10.4902 13.9641 10.5093 14.3494 10.6754C14.4375 10.7134 14.5389 10.7235 14.6431 10.7339C14.9942 10.769 15.3774 10.8073 15.3949 11.9264C15.6458 11.6291 15.4896 11.1146 15.3433 10.8265C15.4332 10.8726 15.532 10.8986 15.6329 10.9028C15.7338 10.9069 15.8345 10.8892 15.9279 10.8506C16.001 10.8183 16.0667 10.7712 16.1209 10.7123C16.1885 10.6376 16.2406 10.5501 16.274 10.4549C16.3073 10.3597 16.3214 10.2588 16.3152 10.1581C16.3137 10.1178 16.3095 10.0778 16.3025 10.0381C16.3029 10.0327 16.3029 10.0272 16.3025 10.0218C16.2149 9.56482 15.8339 9.1873 15.701 9.06809C15.6848 9.05616 15.6696 9.04286 15.6557 9.02835ZM11.1945 8.87112L11.1964 8.86802L11.1973 8.86656L11.1945 8.87112ZM11.1945 8.87112L11.1726 8.90842C11.1812 8.89276 11.1886 8.8808 11.1935 8.87285L11.1945 8.87112ZM14.2838 10.426L14.2838 10.426C14.3805 10.4581 14.4743 10.4893 14.5558 10.5036C14.6375 10.5181 14.7054 10.5218 14.7717 10.5254C14.8614 10.5303 14.9481 10.5351 15.0619 10.5661C15.0287 10.5209 14.9955 10.4704 14.9599 10.4162L14.9599 10.4162L14.9599 10.4162C14.7159 10.0448 14.3569 9.49848 13.077 9.27742C13.1457 9.388 13.2859 9.50285 13.4191 9.61193C13.5158 9.69116 13.6087 9.76733 13.6679 9.8366C13.2742 9.67268 12.8147 9.30794 12.3623 8.94249C12.1043 8.73457 11.8788 8.63096 11.5713 8.77998C11.3281 8.89565 11.157 9.2533 11.3246 9.64288C11.586 10.251 12.4432 10.271 13.196 10.2886C13.5483 10.2968 13.8777 10.3045 14.1126 10.3717C14.1693 10.3879 14.227 10.4071 14.2838 10.426L14.2838 10.426ZM13.5337 14.6305C13.543 14.7274 13.5529 14.8296 13.5831 14.9274C13.661 15.1758 13.7631 15.1923 13.8524 15.2067C13.8871 15.2123 13.9199 15.2176 13.9486 15.2361C13.7641 15.456 13.4848 15.8797 13.4813 16.2678C13.4794 16.4816 13.4317 16.5647 13.3897 16.6381C13.3554 16.698 13.3248 16.7514 13.3258 16.8639C13.3266 16.9587 13.3414 17.039 13.3561 17.119C13.3803 17.2503 13.4043 17.3808 13.3661 17.5735H11.7883C11.7572 17.2947 11.9169 16.7461 12.0583 16.5751C12.2407 16.3575 12.6749 16.4852 12.9524 16.5668L12.9524 16.5668C12.989 16.5775 13.0228 16.5874 13.0529 16.5957C12.839 16.4004 12.5595 16.2934 12.2704 16.2962L12.5595 15.5746C12.5959 15.4834 12.659 15.4054 12.7405 15.351C12.937 15.2223 13.1069 15.0568 13.241 14.8635C12.7989 15.0206 12.5829 15.177 12.367 15.3332C12.1286 15.5057 11.8903 15.6781 11.3479 15.8513C10.5202 16.1131 10.4465 15.9223 10.1878 15.2522C10.1717 15.2103 10.1548 15.1667 10.137 15.1211L10.1101 15.0516C10.0357 14.8588 9.9659 14.6776 9.82947 14.4874C9.61387 14.1922 9.33535 13.6118 9.28304 13.2811C9.26567 13.7938 9.32846 13.9465 9.43489 14.2053C9.45839 14.2625 9.48401 14.3248 9.51137 14.3973C9.45532 14.4528 9.39586 14.517 9.33438 14.5835L9.33427 14.5836L9.33425 14.5836L9.33423 14.5836L9.33422 14.5837C9.22982 14.6965 9.11958 14.8156 9.01018 14.9089C8.45502 15.3812 8.34952 15.8146 8.26638 16.1561C8.21348 16.3734 8.16962 16.5536 8.02477 16.683C8.00319 16.7023 7.98579 16.7259 7.97363 16.7523C7.96147 16.7786 7.95482 16.8072 7.95408 16.8362L7.92792 17.5792L6.30206 17.5707C6.32115 17.2386 6.61663 16.7319 6.77073 16.519C6.91879 16.3145 6.97354 16.3333 7.26973 16.4352L7.30727 16.4481C7.44964 16.4889 7.5864 16.5473 7.71444 16.6219C7.56189 16.406 7.45743 16.3572 7.28634 16.2773C7.23307 16.2525 7.17333 16.2246 7.10368 16.1877C7.13523 16.1103 7.1942 16.0198 7.25736 15.9228C7.3159 15.833 7.37805 15.7375 7.42532 15.642C7.59504 15.2996 7.67695 14.8535 7.75927 14.4053C7.81787 14.0862 7.87668 13.7659 7.96751 13.4812C8.17127 12.846 8.60933 12.3844 8.95783 12.0171C9.1836 11.7791 9.37179 11.5808 9.43432 11.4006C9.37692 11.4488 9.31727 11.5081 9.25378 11.5713L9.25377 11.5713C9.09284 11.7315 8.90729 11.9161 8.67158 12.0052C8.74429 11.754 8.84038 11.5102 8.95858 11.2771C9.15128 10.8802 9.35584 10.7209 9.6388 10.5005C9.69423 10.4573 9.75268 10.4118 9.81463 10.3617C9.93763 10.2659 10.2027 10.053 10.2388 9.87421C10.246 9.84275 10.2441 9.80987 10.2333 9.77945C10.2225 9.74903 10.2033 9.72233 10.178 9.70248C9.97543 9.55573 9.50372 9.87644 9.25692 10.0442C9.20656 10.0785 9.16556 10.1063 9.13813 10.1226L9.07459 10.1601C8.56695 10.4606 7.62268 11.0196 7.08813 10.4476C7.01333 10.3709 6.95723 10.2779 6.92424 10.1759C6.89125 10.0738 6.88226 9.96545 6.89797 9.85931C6.92908 9.58611 7.22103 9.41864 7.47763 9.45199L7.47997 9.45232C7.86198 9.5067 7.98536 9.52427 8.07354 9.12628C8.21068 9.72803 7.56316 10.2617 7.09661 10.0438C7.11853 10.4838 7.70737 10.4369 8.01558 10.3277C8.22701 10.2536 8.51787 10.0906 8.82062 9.92089L8.82064 9.92088L8.82064 9.92088C9.20216 9.70707 9.60257 9.48268 9.88673 9.41225C10.2324 9.3271 10.4728 9.53218 10.4296 9.79686C10.2769 11.0273 10.9414 11.649 12.0965 11.9328C11.881 13.3033 12.5205 13.6702 13.009 13.9505C13.2255 14.0747 13.4123 14.1819 13.482 14.3519C13.5144 14.4311 13.5237 14.5279 13.5337 14.6305ZM15.4062 16.5808C15.1644 16.4516 14.9262 16.4942 14.4773 16.8086C14.5614 16.6085 14.8145 16.4594 15.0032 16.3828C15.0468 16.3644 15.0876 16.3523 15.1242 16.3415C15.3394 16.2779 15.4044 16.2586 14.9736 15.2474L14.1041 15.2375C14.0934 15.2727 14.0843 15.3019 14.0766 15.3266C14.051 15.4086 14.0411 15.4403 14.0414 15.4719C14.0416 15.4918 14.0458 15.5117 14.0526 15.5441C14.0636 15.5963 14.0815 15.681 14.1005 15.8506C14.1083 15.9211 14.1112 16.0002 14.1142 16.0837V16.0837V16.0837C14.1166 16.1515 14.1192 16.2222 14.1246 16.2934C14.1346 16.5094 14.1685 16.7236 14.2257 16.932C14.2456 16.9988 14.2359 17.0786 14.2237 17.1799C14.2111 17.2833 14.1959 17.4091 14.2066 17.5664L15.8063 17.5771C15.7483 17.2244 15.5949 16.6823 15.4062 16.5808ZM9.27452 16.4257C9.0482 16.3539 8.88728 16.3029 9.13954 16.0046C9.43066 15.6645 9.65709 15.2736 9.80756 14.8515C9.90794 14.9962 10.2557 15.8513 10.2267 16.0699C10.2026 16.2903 10.1351 16.5038 10.0281 16.6979C10.0099 16.7285 9.99589 16.7614 9.9864 16.7958C9.93893 16.9822 9.96093 17.2517 9.97815 17.4626C9.98119 17.4997 9.98407 17.5351 9.9864 17.5679H8.33863C8.42982 17.1868 8.4793 16.9973 8.63199 16.7695C8.89966 16.3736 9.21587 16.5235 9.5105 16.6631C9.59713 16.7042 9.6819 16.7444 9.76303 16.7695C9.67483 16.5526 9.45409 16.4826 9.27452 16.4257Z" fill="#0036E5"/>
<g filter="url(#filter0_bi_2463_8989)">
<path d="M29.2456 16.35C29.2369 16.2104 29.1829 16.0778 29.0921 15.9734C29.0013 15.869 28.879 15.7989 28.7447 15.7742C25.4503 15.168 24.075 14.7297 21.0007 13.3055C20.9218 13.2689 20.8363 13.25 20.7497 13.25C20.6632 13.25 20.5776 13.2689 20.4987 13.3055C17.4244 14.7297 16.0492 15.168 12.7547 15.7742C12.6205 15.7989 12.4981 15.869 12.4073 15.9734C12.3165 16.0778 12.2625 16.2104 12.2539 16.35C12.1073 18.7371 12.4199 20.9613 13.1843 22.9609C13.8103 24.592 14.7366 26.0841 15.9128 27.3559C17.9493 29.5719 20.1114 30.5344 20.5239 30.7047C20.6704 30.7655 20.8343 30.7655 20.9809 30.7047C21.3934 30.5344 23.5555 29.5719 25.592 27.3559C26.7662 26.0837 27.6908 24.5916 28.3151 22.9609C29.0795 20.9613 29.3922 18.7371 29.2456 16.35ZM24.2563 19.284L20.0364 24.284C19.9821 24.3485 19.9156 24.4009 19.8408 24.438C19.7661 24.4752 19.6848 24.4963 19.6018 24.5H19.5767C19.4172 24.5 19.264 24.436 19.1501 24.3215L17.2763 22.4387C17.2191 22.3812 17.1735 22.3128 17.1422 22.2373C17.1108 22.1617 17.0942 22.0806 17.0934 21.9985C17.0918 21.8328 17.1544 21.6731 17.2675 21.5547C17.3807 21.4363 17.535 21.3688 17.6967 21.3671C17.8583 21.3654 18.014 21.4297 18.1294 21.5457L19.5386 22.9633L23.3358 18.466C23.4415 18.3407 23.5915 18.2635 23.7527 18.2516C23.9139 18.2397 24.0731 18.2939 24.1954 18.4023C24.3176 18.5108 24.3928 18.6646 24.4044 18.83C24.4161 18.9953 24.3632 19.1586 24.2574 19.284H24.2563Z" fill="#BCCBF1" fill-opacity="0.5"/>
</g>
<defs>
<filter id="filter0_bi_2463_8989" x="7.21875" y="8.25" width="27.0625" height="27.5005" filterUnits="userSpaceOnUse" color-interpolation-filters="sRGB">
<feFlood flood-opacity="0" result="BackgroundImageFix"/>
<feGaussianBlur in="BackgroundImage" stdDeviation="2.5"/>
<feComposite in2="SourceAlpha" operator="in" result="effect1_backgroundBlur_2463_8989"/>
<feBlend mode="normal" in="SourceGraphic" in2="effect1_backgroundBlur_2463_8989" result="shape"/>
<feColorMatrix in="SourceAlpha" type="matrix" values="0 0 0 0 0 0 0 0 0 0 0 0 0 0 0 0 0 0 127 0" result="hardAlpha"/>
<feOffset dx="0.2" dy="0.1"/>
<feGaussianBlur stdDeviation="0.5"/>
<feComposite in2="hardAlpha" operator="arithmetic" k2="-1" k3="1"/>
<feColorMatrix type="matrix" values="0 0 0 0 1 0 0 0 0 1 0 0 0 0 1 0 0 0 0.6 0"/>
<feBlend mode="normal" in2="shape" result="effect2_innerShadow_2463_8989"/>
</filter>
</defs>
</svg>
