<svg width="119" height="24" viewBox="0 0 119 24" fill="none" xmlns="http://www.w3.org/2000/svg">
<path d="M10.3484 9.71961C9.44327 10.912 8.52197 12.0951 7.62601 13.3013C7.39569 13.6174 7.13197 13.681 6.7646 13.7285C5.85713 13.8443 5.2675 13.5248 4.7723 12.7549C4.16886 11.8207 3.43758 10.9664 2.76388 10.0843C2.66484 9.95345 2.55199 9.83422 2.3516 9.60037V16.6828H0V5.20483C0.545867 5.20483 1.07907 5.17589 1.61226 5.22103C1.7781 5.23493 1.96351 5.41899 2.08097 5.56832C3.36848 7.2469 4.6533 8.92856 5.93544 10.6133C6.07478 10.7951 6.21874 10.9733 6.46173 11.2813C6.56652 11.1076 6.63332 10.9699 6.7243 10.8506C7.99108 9.18131 9.28665 7.52705 10.5246 5.8369C10.8701 5.37384 11.2156 5.118 11.8018 5.19672C12.1196 5.23956 12.449 5.20483 12.8129 5.20483V16.6828H10.4797V9.73698L10.3484 9.71961Z" fill="white"/>
<path d="M40.7875 8.79713C40.806 8.47878 40.8186 8.25188 40.8336 7.97405H43.0539V16.3577C43.0539 20.3538 39.5887 22.4931 36.0129 20.6849C35.3945 20.3723 34.8463 19.9232 34.1968 19.4914L35.8206 17.9274C36.925 19.0202 38.224 19.5597 39.705 18.8061C40.8854 18.2052 40.7138 16.9978 40.7334 15.8714C38.9668 17.4539 36.3757 17.1055 34.9753 15.141C33.3043 12.806 34.054 9.40952 36.5058 8.16274C37.9695 7.41491 39.5806 7.6337 40.7875 8.79713ZM40.7334 12.2839C40.7415 11.0105 39.7983 9.99297 38.5856 9.96866C37.4121 9.94319 36.4137 10.9874 36.3976 12.2538C36.3814 13.5203 37.3281 14.5286 38.558 14.5575C39.7591 14.5911 40.7242 13.5828 40.7334 12.2839Z" fill="white"/>
<path d="M89.9531 7.92342C90.7305 7.92342 91.3823 7.89216 92.026 7.9431C92.2045 7.95699 92.4406 8.17462 92.5201 8.36448C93.1673 9.8694 93.7869 11.3743 94.4548 12.995C94.8901 12.0029 95.2736 11.1034 95.6617 10.2005C95.9208 9.59967 96.1972 9.00581 96.4264 8.39457C96.5611 8.03571 96.7477 7.90142 97.1415 7.90952C98.2655 7.93152 98.2655 7.90952 98.7043 8.93056L100.372 12.7982C100.402 12.8433 100.436 12.8856 100.474 12.9244C101.105 11.4195 101.741 9.94581 102.338 8.45361C102.5 8.04728 102.71 7.89332 103.144 7.91879C103.713 7.95351 104.286 7.92805 104.968 7.92805C104.63 8.72797 104.328 9.44571 104.027 10.1634C103.179 12.1858 102.32 14.2024 101.493 16.2352C101.333 16.63 101.113 16.6983 100.731 16.7458C99.9399 16.8349 99.5023 16.593 99.2121 15.7907C98.7169 14.4201 98.0789 13.1015 97.4594 11.6649C96.8329 13.1212 96.1926 14.4733 95.6744 15.8671C95.4141 16.5617 95.0513 16.85 94.3339 16.7296C94.1008 16.711 93.8667 16.711 93.6337 16.7296C92.4164 13.8135 91.2049 10.9252 89.9531 7.92342Z" fill="white"/>
<path d="M54.0836 16.7001H51.8955C51.8713 16.4176 51.8495 16.1606 51.8241 15.8724C50.479 17.2025 48.3508 17.2315 46.7858 15.9766C44.2223 13.9229 44.6634 9.57948 47.5769 8.14285C49.0487 7.41701 50.5712 7.63696 51.8114 8.7946C51.8402 8.50172 51.8644 8.25051 51.8932 7.9611H54.0813L54.0836 16.7001ZM49.6406 14.599C50.8303 14.5863 51.7827 13.5733 51.7734 12.3277C51.7642 11.03 50.8176 10.046 49.5854 10.0506C48.3531 10.0553 47.41 11.0844 47.433 12.3566C47.4549 13.6555 48.3934 14.6083 49.6406 14.599Z" fill="white"/>
<path d="M14.9375 12.3157C14.9375 9.68211 16.9298 7.74422 19.6188 7.75001C22.2203 7.75696 24.2506 9.78861 24.2253 12.3597C24.1988 14.9633 22.1697 16.9081 19.4899 16.8965C16.901 16.8861 14.9318 14.9031 14.9375 12.3157ZM19.544 9.95068C18.2496 9.95068 17.2822 10.9775 17.2753 12.347C17.2753 13.6829 18.2761 14.7051 19.5877 14.6935C20.8994 14.6819 21.8749 13.6401 21.861 12.3018C21.8472 10.9636 20.8568 9.94605 19.5451 9.95068H19.544Z" fill="white"/>
<path d="M89.1734 12.9577H83.147C83.3669 15.0414 85.5285 15.5311 87.6302 14.0088L88.9304 15.3563C87.7385 16.7455 85.5343 17.2954 83.6871 16.6367C81.9528 16.0162 80.8691 14.4893 80.8081 12.5768C80.7401 10.4838 81.704 8.80525 83.3934 8.07363C86.1377 6.88473 89.117 8.91639 89.1734 12.0165C89.178 12.3013 89.1734 12.5861 89.1734 12.9577ZM86.7043 11.1518C86.5558 10.2257 85.836 9.62717 84.9769 9.67116C84.089 9.71631 83.3577 10.3495 83.2898 11.1518H86.7043Z" fill="white"/>
<path d="M59.0769 16.7039H56.7656V7.97535H58.9618C58.9813 8.2254 58.9998 8.47892 59.0239 8.7857C60.1479 7.57018 61.4838 7.5123 62.8554 8.01239C64.227 8.51249 65.1586 9.51732 65.2507 10.9875C65.3659 12.8652 65.2795 14.7568 65.2795 16.6843H62.9924V12.6163C62.9924 12.2505 63.0051 11.8824 62.9728 11.5189C62.8899 10.5928 62.2324 9.98501 61.2984 9.95144C60.9623 9.92984 60.6255 9.98064 60.3105 10.1004C59.9955 10.2202 59.7096 10.4062 59.4719 10.646C59.2527 10.8696 59.1183 11.1632 59.0919 11.476C59.055 12.9983 59.0746 14.5218 59.0746 16.0441L59.0769 16.7039Z" fill="white"/>
<path d="M74.1561 14.4678H79.5341V16.6823H71.7031V5.24023H74.1561V14.4678Z" fill="white"/>
<path d="M118.1 8.60083L117.022 10.2817C116.497 10.1034 116.034 9.94138 115.569 9.79204C115.458 9.75245 115.34 9.74014 115.224 9.75615C114.797 9.82793 114.244 9.8013 114.147 10.335C114.05 10.8686 114.579 10.9821 114.953 11.1361C115.591 11.3942 116.253 11.5991 116.873 11.892C117.817 12.3412 118.359 13.1052 118.332 14.1818C118.304 15.2584 117.756 15.9796 116.813 16.4473C115.186 17.2576 112.741 16.9277 111.344 15.6752L112.364 14.1494C113.085 14.3925 113.746 14.6124 114.407 14.8335C114.52 14.8605 114.637 14.8703 114.753 14.8625C115.245 14.8625 115.789 14.8417 115.923 14.2617C116.055 13.6597 115.484 13.5162 115.08 13.3356C114.484 13.0739 113.854 12.891 113.26 12.6294C112.353 12.2289 111.745 11.5725 111.741 10.5179C111.738 9.46327 112.269 8.67261 113.196 8.20261C114.869 7.37489 116.46 7.72682 118.1 8.60083Z" fill="white"/>
<path d="M28.6575 16.6971H26.375V7.95117H28.6575V16.6971Z" fill="white"/>
<path d="M106.859 7.95801H109.14V16.6831H106.859V7.95801Z" fill="white"/>
<path d="M33.2823 9.38982C33.2835 9.6213 33.2393 9.85075 33.1523 10.0651C33.0653 10.2794 32.9371 10.4743 32.775 10.6388C32.613 10.8033 32.4203 10.9341 32.208 11.0237C31.9957 11.1133 31.7679 11.1599 31.5376 11.161H31.4777C31.0196 11.161 30.5802 10.9781 30.2562 10.6524C29.9323 10.3268 29.7503 9.88509 29.7503 9.42455C29.7503 9.40834 29.7503 9.39214 29.7503 9.37709C29.7462 9.14904 29.7868 8.92242 29.8698 8.71015C29.9528 8.49789 30.0766 8.30415 30.2342 8.13999C30.3917 7.97584 30.5798 7.84449 30.7879 7.75344C30.9959 7.6624 31.2198 7.61344 31.4466 7.60938H31.4892C32.5119 7.61632 33.2823 8.38268 33.2823 9.38982Z" fill="white"/>
<path d="M106.453 5.3773C106.45 5.17753 106.486 4.97912 106.56 4.79339C106.633 4.60767 106.742 4.43826 106.88 4.29486C107.019 4.15145 107.184 4.03686 107.366 3.95761C107.549 3.87837 107.745 3.83603 107.943 3.83301C107.976 3.83301 108.009 3.83301 108.041 3.83301C108.448 3.84536 108.834 4.01662 109.117 4.3104C109.4 4.60417 109.558 4.9973 109.557 5.40624C109.545 5.81567 109.373 6.20392 109.079 6.48767C108.785 6.77141 108.392 6.92803 107.985 6.9239C107.582 6.92698 107.195 6.76925 106.907 6.48535C106.62 6.20145 106.457 5.81458 106.453 5.40971V5.3773Z" fill="white"/>
</svg>
