<svg width="71" height="20" viewBox="0 0 71 20" fill="none" xmlns="http://www.w3.org/2000/svg">
<g clip-path="url(#clip0_2444_18678)">
<path d="M14.8242 19.4675C14.8242 19.9408 15.4751 20 15.8301 20H16.126C17.0136 19.9408 17.0136 19.5858 17.0136 19.4675V0.532544C17.0727 0.0591716 16.4219 0 16.0077 0H15.8301C15.4751 0 14.8242 0.0591716 14.8242 0.532544V19.4675Z" fill="white"/>
<path d="M2.98828 19.4675C2.98828 19.9408 3.63917 20 3.9942 20H4.29006C5.17763 19.9408 5.17763 19.5858 5.17763 19.4675V0.532544C5.17763 0.0591716 4.58591 0 4.17171 0H3.9942C3.58 0 2.98828 0.0591716 2.98828 0.532544V19.4675Z" fill="white"/>
<path d="M6.95146 19.4675C6.95146 19.9408 7.60235 20 7.95738 20H8.28282C9.1704 19.9408 9.1704 19.5858 9.1704 19.4675V0.532544C9.1704 0.0591716 8.51951 0 8.16448 0H7.92779C7.57276 0 6.92188 0.0591716 6.92188 0.532544L6.95146 19.4675Z" fill="white"/>
<path d="M10.8867 19.4675C10.8867 19.9408 11.5376 20 11.8926 20H12.1885C13.0761 19.9408 13.0761 19.5858 13.0761 19.4675V0.532544C13.0761 0.0591716 12.4252 0 12.0702 0H11.8926C11.5376 0 10.8867 0.0591716 10.8867 0.532544V19.4675Z" fill="white"/>
<path d="M0.532544 8.875C0.0591716 8.875 0 9.52589 0 9.88092V10.2359C0.0591716 11.1235 0.414201 11.1235 0.532544 11.1235H19.4675C19.9408 11.1235 20 10.4726 20 10.1176V9.88092C20 9.52589 19.9408 8.875 19.4675 8.875H0.532544Z" fill="white"/>
<path d="M47.6025 15.9758C44.496 15.9758 43.3125 14.2599 43.3125 9.85159C43.3125 5.50247 44.4368 3.90484 47.5433 3.90484H47.6616C50.709 3.90484 51.8924 5.50247 51.8924 9.85159C51.8332 14.2895 50.6498 15.9758 47.6025 15.9758ZM47.6025 1.44922C42.3066 1.44922 39.9102 4.08235 39.9102 9.91076C39.9102 15.68 42.3954 18.4315 47.4545 18.4906H47.6912C52.8096 18.4906 55.2652 15.68 55.2652 9.91076C55.2356 4.05277 52.8687 1.44922 47.6025 1.44922Z" fill="white"/>
<path d="M26.244 17.2184C27.3091 18.0468 28.7588 18.4018 31.1256 18.4018H31.244C33.6108 18.4018 35.0605 18.0468 36.1848 17.2184C37.7233 16.035 38.0191 14.6444 38.0191 11.9817V2.39593C38.0191 2.21841 37.9599 2.0409 37.8416 1.92256C37.6049 1.68587 37.0724 1.56753 36.1848 1.56753C35.6227 1.50836 35.0605 1.6267 34.5872 1.92256C34.4688 2.0409 34.4096 2.21841 34.4096 2.39593V12.3959C34.4096 14.0527 34.4096 14.4078 33.6404 15.0291C32.8712 15.5024 32.0132 15.7391 31.1256 15.68C30.238 15.7687 29.3505 15.532 28.5812 15.0291C27.812 14.4373 27.812 14.0823 27.812 12.4551V2.39593C27.812 2.21841 27.7528 2.0409 27.6345 1.92256C27.1611 1.6267 26.599 1.50836 26.0369 1.56753C25.4747 1.50836 24.9126 1.6267 24.4392 1.92256C24.3209 2.0409 24.2617 2.21841 24.2617 2.39593V11.9817C24.4096 14.6444 24.6463 16.035 26.244 17.2184Z" fill="white"/>
<path d="M64.3501 15.9163H60.5927V10.9163H64.5868C66.8353 10.9163 67.2199 11.8631 67.2199 13.4311C67.3087 15.5909 66.5394 15.9163 64.3501 15.9163ZM60.5927 3.99324H64.4093C66.4211 3.99324 66.5394 4.99916 66.5394 6.30093C66.5394 7.89856 65.8294 8.54945 64.1134 8.54945H60.5927V3.99324ZM68.5217 2.57312C67.6341 1.92223 66.569 1.68555 64.5276 1.68555H57.6933C57.3678 1.68555 57.1016 1.95182 57.1016 2.27726V17.8098C57.1016 18.1353 57.3678 18.4015 57.6933 18.4015H64.8826C66.8353 18.4015 68.1666 18.3423 69.3501 17.4548C70.6519 16.4489 70.8885 14.8808 70.8885 13.6974C70.9773 12.366 70.4448 11.0938 69.4093 10.2358C68.9951 9.96957 68.5217 9.73288 68.0483 9.58495L67.7524 9.46661L68.0483 9.34827C69.4684 8.69738 69.9418 7.75064 69.9418 5.9459C69.8826 4.99916 69.7051 3.40152 68.5217 2.57312Z" fill="white"/>
</g>
<defs>
<clipPath id="clip0_2444_18678">
<rect width="70.8977" height="20" fill="white"/>
</clipPath>
</defs>
</svg>
