<svg width="168" height="40" viewBox="0 0 168 40" fill="none" xmlns="http://www.w3.org/2000/svg">
<g clip-path="url(#clip0_5066_213140)">
<path d="M37.4443 3.74094L37.038 3.57412C37.0943 3.63143 37.1549 3.68432 37.2193 3.73232C37.7438 4.20783 39.2531 5.70965 39.6015 7.53344L39.6016 7.53372C39.6057 7.55538 39.6093 7.57707 39.613 7.59875C39.639 7.75776 39.6558 7.91813 39.6634 8.07907C39.6873 8.48007 39.6314 8.88181 39.4991 9.2611C39.3667 9.64038 39.1605 9.98968 38.8924 10.2888C38.6776 10.5227 38.4172 10.71 38.1272 10.8393C37.7576 10.993 37.359 11.0641 36.9591 11.0476C36.5592 11.0311 36.1677 10.9274 35.8121 10.7438C36.394 11.8922 37.0103 13.9433 36.0171 15.1284C35.927 9.34267 33.4042 10.8021 31.8768 10.1418C30.3233 9.47018 29.5043 9.40132 27.7961 9.57001C27.6916 9.57736 27.593 9.62151 27.518 9.69463C27.443 9.76774 27.3963 9.86509 27.3862 9.96938C27.3307 11.1516 27.2196 13.3735 25.5219 14.1451C26.0684 13.3057 26.7645 12.1531 26.4237 10.5784C26.2389 9.7245 25.41 9.52392 24.3423 9.41232V9.4123C16.925 8.28331 18.7798 4.04179 19.2952 3.09541L19.0436 3.52622C19.1492 3.32081 19.2654 3.1211 19.392 2.92792C19.3744 2.95616 19.3401 3.01296 19.2952 3.09541L19.405 2.90723C17.3938 4.10518 16.2023 7.67315 17.7755 10.4414C19.0735 12.7251 21.08 13.507 24.0529 14.4708C22.3759 21.7343 26.4146 21.6762 28.4004 23.4925C28.7063 23.8274 28.9801 24.1902 29.2182 24.5762C29.6483 24.4775 30.0423 24.2604 30.3557 23.9496C30.4731 23.8251 30.5605 23.6753 30.6113 23.5118C30.662 23.3484 30.6748 23.1754 30.6486 23.0063C30.4206 21.5943 29.5712 19.7751 28.6474 19.3405C27.7362 18.9118 26.969 18.8817 26.9879 17.8594C27.0038 16.998 27.2057 16.8774 26.5959 15.6082C28.5968 16.4563 30.7108 19.8863 31.3044 22.9867C31.3172 23.3035 31.2601 23.6193 31.137 23.9115C31.0139 24.2038 30.8279 24.4653 30.5923 24.6775C30.255 25.0071 29.8497 25.2591 29.4049 25.4158C29.5508 28.3183 30.2629 27.5235 32.9439 27.6443C34.3272 27.7067 34.3234 27.8051 34.9407 26.8481C35.3925 26.2401 35.6599 25.5151 35.7109 24.7593C35.7451 24.5633 35.5201 22.4091 35.3855 21.1648C35.2964 20.3759 35.2805 19.5806 35.3379 18.7888C35.3839 17.8327 35.6245 16.896 36.045 16.036C38.028 15.7966 38.9545 15.2942 39.8392 14.5564C44.305 10.8318 40.9709 4.88796 37.4443 3.74094Z" fill="white"/>
<path d="M30.93 8.92999C31.5369 9.10526 32.1732 9.36576 32.6846 9.45605C33.4469 9.59107 33.9048 9.49048 34.6892 9.70367C33.6564 8.27871 32.6371 5.57549 26.83 4.56507C27.2996 5.32796 28.6136 6.13932 29.1702 6.79577C27.6097 6.14203 25.7904 4.68739 23.9991 3.232C22.9772 2.4017 22.0849 1.98992 20.8658 2.57253C19.9044 3.03201 19.2274 4.4574 19.8892 6.01086C21.411 9.58304 28.014 8.08788 30.93 8.92999Z" fill="white"/>
<path d="M28.8413 27.0951C28.5961 26.2928 28.6891 25.4154 28.4398 24.8016C27.5425 22.593 21.7081 23.0393 22.9545 15.1537C18.3801 14.0138 15.7491 11.545 16.3523 6.63804C16.5137 5.5815 15.5632 4.76403 14.1946 5.10506C12.1765 5.60791 8.66293 8.08655 6.78486 8.75439C5.56382 9.18853 3.23291 9.37711 3.15121 7.62537C4.99274 8.49023 7.55735 6.36404 7.01602 3.96289C6.66651 5.55388 6.17939 5.47949 4.65611 5.26165C3.64538 5.11726 2.48382 5.79844 2.35967 6.88591C2.29738 7.30836 2.33283 7.73947 2.46328 8.14606C2.59374 8.55266 2.81573 8.92391 3.11218 9.23126C5.32014 11.6108 9.29574 9.08307 11.2156 7.93621C11.8568 7.5533 14.3689 5.55551 15.3341 6.26147C15.4351 6.34104 15.5113 6.44766 15.554 6.5689C15.5967 6.69015 15.604 6.82103 15.5752 6.94628C15.4336 7.65836 14.3819 8.50765 13.9099 8.89113C12.4126 10.1081 11.4318 10.6471 10.5197 12.5394C10.0515 13.4698 9.67106 14.4418 9.3834 15.4428C10.6849 14.9478 11.5995 13.7101 12.4028 13.0335C11.7735 14.8598 7.92134 17.1548 6.59642 21.3291C5.73019 24.0584 5.58948 27.6063 4.44672 29.9441C4.05911 30.737 3.41445 31.527 3.17529 32.1202C4.33527 32.7386 4.7998 32.7228 5.59203 33.8508C5.08516 33.5543 4.54368 33.3215 3.97985 33.1575C2.67639 32.7079 2.46653 32.6027 1.85596 33.4435C1.22229 34.3166 0.075264 36.3097 0 37.6349L6.44415 37.6651L6.54858 34.7043C6.55202 34.5887 6.57867 34.475 6.62693 34.3699C6.67519 34.2648 6.74408 34.1705 6.82952 34.0925C8.30518 32.7656 7.13475 30.0998 10.7337 27.0031C11.4205 26.4122 12.1189 25.5617 12.7182 24.9655C12.1177 23.366 11.7291 23.0091 11.8135 20.513C12.0214 21.8332 13.1229 24.1469 13.9758 25.3293C14.4953 26.1122 14.9053 26.9624 15.1945 27.8564C16.3943 30.9491 16.5079 31.8774 19.9907 30.7677C24.0681 29.4685 23.7904 28.1581 27.4769 26.8404C26.948 27.6097 26.2755 28.2696 25.4963 28.7839C25.1727 29.0022 24.9228 29.3135 24.7797 29.6767L23.6339 32.5529C24.781 32.5434 25.8888 32.97 26.7332 33.7463C25.7059 33.4776 23.611 32.6833 22.7939 33.6642C22.2246 34.3473 21.6009 36.5333 21.7268 37.6464L27.9733 37.6499C28.2157 36.4114 27.8222 35.8197 27.8135 34.8172C27.8047 33.8002 28.4146 33.9876 28.4305 32.4394C28.4466 30.8763 29.5355 29.2025 30.2788 28.3265C29.8731 28.0619 29.262 28.4714 28.8413 27.0951Z" fill="white"/>
<path d="M36.0529 33.6887C35.0951 33.1719 34.1508 33.3428 32.3732 34.5962C32.7065 33.7986 33.7083 33.2049 34.4563 32.8852C35.6437 32.3778 36.3358 33.0752 34.3398 28.3416L30.8976 28.3286C30.4827 29.7013 30.6637 28.8094 30.8818 30.7743C30.9383 31.283 30.929 31.907 30.9773 32.5398C31.0154 33.4042 31.1498 34.2616 31.378 35.0961C31.5371 35.6359 31.2174 36.385 31.3009 37.6254L37.6358 37.6687C37.4083 36.2606 36.8007 34.0922 36.0529 33.6887Z" fill="white"/>
<path d="M11.2343 31.3914C9.44276 33.5231 12.9147 32.4846 13.7037 34.4414C12.2898 33.9979 10.5973 32.3963 9.23802 34.4394C8.63391 35.3474 8.43741 36.1056 8.07812 37.6237H14.5896C14.5261 36.7534 14.366 35.4203 14.5863 34.5449C14.6225 34.408 14.678 34.2769 14.7512 34.1556C15.175 33.3805 15.4422 32.5295 15.5376 31.6512C15.6514 30.7796 14.2752 27.3682 13.8773 26.793C13.2826 28.4734 12.3871 30.0316 11.2343 31.3914Z" fill="white"/>
<path d="M95.8433 6.65625H78.3047V10.2219H95.8433V6.65625Z" fill="white"/>
<path d="M95.8433 20.7402H78.3047V24.3059H95.8433V20.7402Z" fill="white"/>
<path d="M95.8433 13.6982H78.3047V17.2639H95.8433V13.6982Z" fill="white"/>
<path d="M99.1562 6.65625V9.82286V10.2216H106.167V24.3056H109.685V10.2216H116.695V9.82286V6.65625H99.1562Z" fill="white"/>
<path d="M130.227 6.71276L130.2 6.65625H125.022L116.764 24.1631L116.695 24.3062H120.552L122.628 19.8937L124.071 16.8259H124.068L125.047 14.7524L127.587 9.3738H127.611L134.594 24.2497L134.621 24.3062H138.552L130.227 6.71276Z" fill="white"/>
<path d="M145.361 6.65625H141.867V24.3056H145.361V6.65625Z" fill="white"/>
<path d="M63.0525 19.8424H63.0289L56.8271 6.713L56.8003 6.65625H50.8516V24.3056H54.3213V9.85124L61.1716 24.3056H64.5675L71.4913 9.85012V24.3056H74.9853V6.65625H69.3543L63.0525 19.8424Z" fill="white"/>
<path d="M164.508 6.65625V20.8396H164.484L153.961 6.69582L153.932 6.65625H148.68V24.3056H152.174V10.1473L162.75 24.3056H168.002V6.65625H164.508Z" fill="white"/>
<path d="M52.0102 32.9746C51.6604 32.7779 51.3713 32.4889 51.1744 32.1392C50.9755 31.7792 50.8711 31.3745 50.8711 30.9632C50.8711 30.5519 50.9755 30.1473 51.1744 29.7872C51.3713 29.4374 51.6604 29.1483 52.0102 28.9514C52.3685 28.7483 52.7742 28.6436 53.186 28.6481C53.5001 28.644 53.8115 28.7073 54.0991 28.8338C54.3768 28.9601 54.6246 29.1436 54.8263 29.3724L54.3312 29.8491C54.1931 29.6791 54.0199 29.5408 53.8235 29.4436C53.6238 29.3518 53.4058 29.3063 53.186 29.3105C52.9016 29.3073 52.6212 29.3777 52.3721 29.5149C52.1275 29.6501 51.9251 29.8503 51.7871 30.0934C51.6449 30.3612 51.5705 30.6598 51.5705 30.963C51.5705 31.2662 51.6449 31.5648 51.7871 31.8326C51.9252 32.0757 52.1276 32.2761 52.3721 32.4115C52.6213 32.5486 52.9016 32.619 53.186 32.6159C53.4298 32.6162 53.6705 32.5605 53.8894 32.4532C54.1084 32.3458 54.2998 32.1897 54.4489 31.9967L54.95 32.4795C54.7381 32.7295 54.4741 32.9302 54.1765 33.0674C53.8328 33.2205 53.4583 33.2918 53.0824 33.2757C52.7065 33.2596 52.3395 33.1565 52.0102 32.9746Z" fill="white"/>
<path d="M57.8804 32.9718C57.5343 32.7721 57.2488 32.4823 57.0543 32.1331C56.8573 31.7752 56.7539 31.3733 56.7539 30.9647C56.7539 30.5562 56.8573 30.1542 57.0543 29.7963C57.25 29.4481 57.5352 29.1585 57.8804 28.9576C58.1426 28.8027 58.4329 28.7015 58.7345 28.6598C59.0362 28.6181 59.3431 28.6369 59.6374 28.7149C59.9318 28.7929 60.2076 28.9287 60.449 29.1144C60.6904 29.3 60.8924 29.5318 61.0433 29.7963C61.2461 30.1515 61.3508 30.5542 61.3466 30.9631C61.3506 31.3726 61.2472 31.7761 61.0466 32.1331C60.8519 32.4822 60.5663 32.772 60.2201 32.9718C59.8629 33.1726 59.46 33.278 59.0503 33.278C58.6405 33.278 58.2376 33.1726 57.8804 32.9718V32.9718ZM59.8549 32.4055C60.0968 32.2669 60.2959 32.0645 60.4306 31.8205C60.5689 31.5559 60.6411 31.2618 60.6411 30.9633C60.6411 30.6648 60.5689 30.3707 60.4306 30.1061C60.2959 29.8621 60.0968 29.6597 59.8549 29.5211C59.6092 29.3831 59.3321 29.3106 59.0503 29.3106C58.7684 29.3106 58.4913 29.3831 58.2456 29.5211C58.0033 29.6601 57.8034 29.8623 57.6671 30.1061C57.5267 30.37 57.4533 30.6644 57.4533 30.9633C57.4533 31.2622 57.5267 31.5566 57.6671 31.8205C57.8034 32.0643 58.0033 32.2665 58.2456 32.4055C58.4913 32.5435 58.7684 32.616 59.0503 32.616C59.3321 32.616 59.6092 32.5435 59.8549 32.4055Z" fill="white"/>
<path d="M73.1953 28.7476H73.8883V33.1791H73.1953V28.7476Z" fill="white"/>
<path d="M76.2539 28.7476H77.0771L79.0578 31.972H79.0948L79.0578 31.1179V28.7476H79.7446V33.1791H79.0203L76.9407 29.7874H76.9037L76.9407 30.6415V33.1791H76.2539L76.2539 28.7476Z" fill="white"/>
<path d="M81.6016 28.7476H82.3629L83.353 31.6752L83.5077 32.1764H83.5452L83.706 31.6752L84.7458 28.7476H85.501L83.8916 33.1791H83.1674L81.6016 28.7476Z" fill="white"/>
<path d="M87.457 28.7476H90.1493V29.4096H88.15V30.635H89.9515V31.2913H88.15V32.5167H90.1493V33.1791H87.457V28.7476Z" fill="white"/>
<path d="M92.6535 32.9565C92.3545 32.7329 92.1406 32.4141 92.0469 32.0527L92.7031 31.7865C92.7601 32.015 92.8815 32.2223 93.0529 32.3837C93.2159 32.5371 93.4324 32.6205 93.6562 32.6162C93.8556 32.6222 94.0514 32.5622 94.2132 32.4456C94.287 32.3928 94.3465 32.3225 94.3865 32.241C94.4265 32.1595 94.4457 32.0693 94.4424 31.9786C94.4444 31.8935 94.4274 31.809 94.3926 31.7314C94.3578 31.6537 94.3061 31.5848 94.2412 31.5296C94.0294 31.3713 93.7916 31.2509 93.5386 31.1738L93.2601 31.0748C92.9811 30.9825 92.7255 30.8303 92.5114 30.629C92.4098 30.5296 92.3303 30.4098 92.278 30.2776C92.2258 30.1454 92.2019 30.0037 92.2081 29.8616C92.2071 29.6462 92.2694 29.4353 92.3872 29.255C92.511 29.0658 92.6831 28.9131 92.8855 28.8125C93.1093 28.7005 93.3568 28.6442 93.6069 28.6484C93.9397 28.6311 94.2681 28.7308 94.5352 28.9301C94.7477 29.0925 94.9089 29.3127 94.9993 29.5644L94.3744 29.8307C94.3249 29.6846 94.2346 29.5557 94.1142 29.4594C93.974 29.3479 93.7982 29.2908 93.6192 29.2985C93.4366 29.2924 93.2571 29.3468 93.1086 29.4532C93.044 29.497 92.9913 29.5561 92.9551 29.6252C92.9188 29.6943 92.9003 29.7713 92.901 29.8494C92.9 29.9225 92.9162 29.9948 92.9485 30.0604C92.9808 30.126 93.0281 30.183 93.0867 30.2268C93.2639 30.3527 93.4606 30.4488 93.6688 30.5114L93.9473 30.6042C94.277 30.7066 94.5787 30.8835 94.8291 31.1212C95.0144 31.3384 95.1234 31.6103 95.1397 31.8953C95.1559 32.1803 95.0784 32.4628 94.9191 32.6996C94.7731 32.8936 94.5773 33.0445 94.3524 33.1361C94.128 33.2298 93.8872 33.2781 93.644 33.2782C93.2876 33.2817 92.9398 33.1688 92.6535 32.9565Z" fill="white"/>
<path d="M98.1287 29.4096H96.8906V28.7476H100.06V29.4096H98.822V33.1791H98.1286L98.1287 29.4096Z" fill="white"/>
<path d="M102.082 28.7476H103.023L104.298 32.1084H104.335L105.61 28.7476H106.551V33.1791H105.864V30.6973L105.901 29.8985H105.864L104.595 33.1791H104.038L102.769 29.8985H102.732L102.769 30.6973V33.1791H102.082L102.082 28.7476Z" fill="white"/>
<path d="M108.922 28.7476H111.614V29.4096H109.615V30.635H111.416V31.2913H109.615V32.5167H111.614V33.1791H108.922V28.7476Z" fill="white"/>
<path d="M113.828 28.7476H114.651L116.632 31.972H116.669L116.632 31.1179V28.7476H117.319V33.1791H116.595L114.515 29.7874H114.478L114.515 30.6415V33.1791H113.828L113.828 28.7476Z" fill="white"/>
<path d="M120.59 29.4096H119.352V28.7476H122.521V29.4096H121.283V33.1791H120.59V29.4096Z" fill="white"/>
<path d="M127.348 28.7476H128.883C129.133 28.7453 129.381 28.8048 129.604 28.9207C129.819 29.0315 130.001 29.1983 130.13 29.4035C130.257 29.6146 130.325 29.8564 130.325 30.103C130.325 30.3495 130.257 30.5913 130.13 30.8024C130.001 31.0077 129.819 31.1745 129.604 31.2852C129.381 31.4013 129.133 31.4608 128.883 31.4587H128.041V33.1792H127.348V28.7476ZM128.895 30.8024C129.034 30.806 129.171 30.7706 129.291 30.7002C129.398 30.637 129.485 30.5461 129.545 30.4372C129.602 30.335 129.632 30.2199 129.632 30.103C129.632 29.986 129.602 29.8709 129.545 29.7687C129.486 29.6603 129.398 29.5703 129.291 29.5089C129.17 29.4403 129.033 29.406 128.895 29.4096H128.041V30.8024H128.895Z" fill="white"/>
<path d="M132.387 28.7476H133.08V32.5167H134.98V33.1791H132.387V28.7476Z" fill="white"/>
<path d="M138.282 28.7476H139.075L140.739 33.1791H139.972L139.576 32.0465H137.787L137.385 33.1791H136.617L138.282 28.7476ZM139.34 31.4028L138.87 30.0842L138.697 29.5708H138.66L138.486 30.0842L138.016 31.4028H139.34Z" fill="white"/>
<path d="M143.191 29.4096H141.953V28.7476H145.123V29.4096H143.884V33.1791H143.191L143.191 29.4096Z" fill="white"/>
<path d="M147.148 28.7476H149.841V29.4096H147.841V30.6847H149.643V31.3409H147.841V33.1791H147.148V28.7476Z" fill="white"/>
<path d="M152.775 32.9718C152.429 32.7721 152.143 32.4823 151.949 32.1331C151.752 31.7752 151.648 31.3733 151.648 30.9647C151.648 30.5562 151.752 30.1542 151.949 29.7963C152.145 29.4481 152.43 29.1585 152.775 28.9576C153.037 28.8027 153.327 28.7015 153.629 28.6598C153.931 28.6181 154.238 28.6369 154.532 28.7149C154.826 28.7929 155.102 28.9287 155.344 29.1144C155.585 29.3 155.787 29.5318 155.938 29.7963C156.141 30.1515 156.245 30.5542 156.241 30.9631C156.245 31.3726 156.142 31.7761 155.941 32.1331C155.746 32.4822 155.461 32.772 155.115 32.9718C154.757 33.1726 154.355 33.278 153.945 33.278C153.535 33.278 153.132 33.1726 152.775 32.9718V32.9718ZM154.749 32.4055C154.991 32.2669 155.19 32.0645 155.325 31.8205C155.463 31.5559 155.536 31.2618 155.536 30.9633C155.536 30.6648 155.463 30.3707 155.325 30.1061C155.19 29.8621 154.991 29.6597 154.749 29.5211C154.504 29.3831 154.227 29.3106 153.945 29.3106C153.663 29.3106 153.386 29.3831 153.14 29.5211C152.898 29.6601 152.698 29.8623 152.562 30.1061C152.421 30.37 152.348 30.6644 152.348 30.9633C152.348 31.2622 152.421 31.5566 152.562 31.8205C152.698 32.0643 152.898 32.2665 153.14 32.4055C153.386 32.5435 153.663 32.616 153.945 32.616C154.227 32.616 154.504 32.5435 154.749 32.4055Z" fill="white"/>
<path d="M158.387 28.7477H159.946C160.198 28.7447 160.447 28.8042 160.671 28.9207C160.887 29.0325 161.067 29.2024 161.192 29.4113C161.317 29.6202 161.38 29.8598 161.376 30.103C161.379 30.3931 161.277 30.6744 161.088 30.8953C160.903 31.1222 160.651 31.2846 160.367 31.3594L160.361 31.3903L161.574 33.1421V33.1792H160.77L159.6 31.4461H159.08V33.1792H158.387L158.387 28.7477ZM159.928 30.8024C160.122 30.807 160.311 30.736 160.454 30.6042C160.525 30.5404 160.581 30.462 160.618 30.3744C160.656 30.2868 160.674 30.1921 160.671 30.0969C160.671 30.0034 160.652 29.9108 160.616 29.8247C160.58 29.7385 160.527 29.6605 160.46 29.5953C160.393 29.53 160.313 29.4789 160.226 29.4449C160.139 29.411 160.046 29.3948 159.953 29.3975H159.08V30.8024L159.928 30.8024Z" fill="white"/>
<path d="M163.531 28.7476H164.472L165.747 32.1084H165.784L167.059 28.7476H168V33.1791H167.313V30.6973L167.35 29.8985H167.313L166.044 33.1791H165.487L164.218 29.8985H164.181L164.218 30.6973V33.1791H163.531L163.531 28.7476Z" fill="white"/>
<path d="M65.0625 30.6792H69.4801V31.2613H65.0625V30.6792Z" fill="white"/>
</g>
<defs>
<clipPath id="clip0_5066_213140">
<rect width="167.985" height="40" fill="white"/>
</clipPath>
</defs>
</svg>
