<svg id="Layer_1" data-name="Layer 1" xmlns="http://www.w3.org/2000/svg" viewBox="0 0 504 218.85436"><defs><style>.cls-1{fill:#0036e5;}</style></defs><path class="cls-1" d="M127.3,65.91835l-1.08822-.44683a4.185,4.185,0,0,0,.48541.42375c1.405,1.2737,5.44787,5.29643,6.3811,10.18158l.0001.00075c.01108.058.02069.1161.0307.17418a11.26561,11.26561,0,0,1,.13492,1.28657,8.14353,8.14353,0,0,1-2.06513,5.91894,6.225,6.225,0,0,1-2.04971,1.47457,7.35922,7.35922,0,0,1-6.20115-.25574c1.55866,3.07605,3.20935,8.56991.54919,11.74427-.24133-15.4974-6.99887-11.58826-11.09023-13.35686-4.1611-1.799-6.35479-1.98343-10.93049-1.5316a1.1865,1.1865,0,0,0-1.09778,1.06974c-.1488,3.16661-.44639,9.11829-4.99373,11.185,1.46375-2.24837,3.3284-5.33568,2.41543-9.55371-.49493-2.28722-2.71517-2.82447-5.57512-3.12341l0-.00005c-19.86759-3.02408-14.8994-14.3853-13.51907-16.92024l-.6737,1.15395a17.62825,17.62825,0,0,1,.933-1.60258c-.047.07564-.139.22779-.25928.44863l.29428-.50406C73.59329,66.894,70.40168,76.45108,74.61558,83.866c3.47692,6.11715,8.85149,8.21147,16.81464,10.79308-4.49214,19.45588,6.326,19.30023,11.645,24.1653a19.43575,19.43575,0,0,1,2.19054,2.90283,6.34327,6.34327,0,0,0,3.04694-1.67838,3.01283,3.01283,0,0,0,.78459-2.52689c-.61091-3.78221-2.8859-8.65495-5.36044-9.81916-2.44064-1.14829-4.49564-1.2288-4.44507-3.96706.04261-2.30749.58333-2.63036-1.04995-6.02993,5.35956,2.27145,11.02192,11.45914,12.6119,19.76373a5.779,5.779,0,0,1-1.90737,4.52884,8.67642,8.67642,0,0,1-3.18042,1.97767c.39083,7.77455,2.29827,5.64554,9.47939,5.96911,3.70529.16716,3.69514.43091,5.34865-2.13257a10.57636,10.57636,0,0,0,2.06308-5.59493c.09141-.52518-.51113-6.29518-.87177-9.62831a34.50482,34.50482,0,0,1-.12746-6.36417,18.84683,18.84683,0,0,1,1.894-7.37348c5.31157-.64134,7.79334-1.987,10.163-3.96335C145.67676,84.91168,136.74629,68.99074,127.3,65.91835Z"/><path class="cls-1" d="M109.84573,79.81766c1.62566.46946,3.33,1.16722,4.7,1.40908,2.04173.36167,3.26828.09222,5.36939.66326-2.76645-3.81686-5.49668-11.05762-21.05143-13.76409,1.25794,2.04346,4.77745,4.21674,6.26826,5.97507-4.1797-1.75108-9.053-5.64744-13.851-9.54581-2.73721-2.224-5.12741-3.327-8.39277-1.76644-2.57522,1.23075-4.38864,5.04876-2.616,9.20982C84.34846,81.56688,102.035,77.562,109.84573,79.81766Z"/><path class="cls-1" d="M104.25357,128.4742c-.65683-2.14885-.40784-4.49915-1.07543-6.14329-2.40356-5.91584-18.03131-4.72028-14.693-25.84248-12.2526-3.05322-19.29994-9.66632-17.68423-22.80985.43232-2.83-2.11384-5.01967-5.77962-4.10619-5.40569,1.34691-14.817,7.98613-19.84756,9.775-3.27064,1.16286-9.51414,1.668-9.733-3.02418,4.93268,2.31661,11.80216-3.37854,10.35217-9.8102-.93619,4.26159-2.24095,4.06233-6.32119,3.47882-2.70731-.38675-5.81863,1.43782-6.15117,4.3507a7.47783,7.47783,0,0,0,2.01566,6.28217c5.91418,6.37383,16.5631-.39692,21.70569-3.46886,1.71731-1.02566,8.44616-6.37688,11.03164-4.48592a1.81653,1.81653,0,0,1,.64568,1.83432c-.37931,1.90734-3.19638,4.18224-4.46049,5.20942-4.01061,3.25979-6.63784,4.70357-9.08089,9.77215a44.855,44.855,0,0,0-3.04372,7.777c3.4861-1.32607,5.93591-4.64113,8.08777-6.45349-1.68567,4.89176-12.004,11.03915-15.55291,22.22033-2.32024,7.3107-2.69716,16.81385-5.75811,23.07594-1.03823,2.12391-2.765,4.23991-3.40562,5.82878,3.1071,1.6565,4.35136,1.614,6.47342,4.63542a19.14168,19.14168,0,0,0-4.31835-1.85691c-3.49142-1.20427-4.05354-1.48613-5.689.7661C30.274,147.81748,27.2016,153.15612,27,156.70589l17.26111.08085.27973-7.93056a2.31184,2.31184,0,0,1,.75251-1.63888c3.95268-3.55422.81759-10.69465,10.45757-18.98937,1.83964-1.58286,3.71053-3.861,5.31566-5.4579-1.60856-4.28442-2.64941-5.24035-2.42327-11.9265.55679,3.53638,3.50744,9.73388,5.79184,12.901a27.61733,27.61733,0,0,1,3.2644,6.76893c3.21379,8.28414,3.518,10.77067,12.847,7.79808,10.92162-3.48005,10.17764-6.99,20.05234-10.51962a19.42215,19.42215,0,0,1-5.30516,5.206,5.17212,5.17212,0,0,0-1.91955,2.39126l-3.069,7.70416a12.11859,12.11859,0,0,1,8.3017,3.19671c-2.75166-.71989-8.363-2.84745-10.55168-.21994-1.52507,1.82978-3.19567,7.68519-2.85853,10.66657l16.73176.00936c.6494-3.31746-.4048-4.90217-.428-7.58751-.02358-2.72409,1.61013-2.22229,1.6526-6.36908.04325-4.18694,2.96-8.67037,4.95079-11.01682C107.01721,131.064,105.38047,132.1609,104.25357,128.4742Z"/><path class="cls-1" d="M123.56932,146.1354c-2.56541-1.3844-5.09491-.92656-9.85635,2.43076.89279-2.13648,3.5763-3.7268,5.57978-4.583,3.1805-1.35917,5.03451.509-.31216-12.17042l-9.22-.03474c-1.11131,3.67683-.62663,1.28792-.04237,6.55091.15132,1.36262.12643,3.03415.25574,4.7291a31.16925,31.16925,0,0,0,1.07337,6.8472c.42615,1.44588-.43015,3.45233-.20653,6.775l16.96861.11585C127.19986,153.0245,125.57229,147.21625,123.56932,146.1354Z"/><path class="cls-1" d="M57.09662,139.982c-4.7989,5.71,4.501,2.92821,6.61443,8.16962-3.78734-1.1878-8.32068-5.47787-11.96174-.00511-1.61814,2.43216-2.14449,4.463-3.10686,8.52934H66.08383c-.17-2.33128-.59881-5.902-.00873-8.24682a3.99544,3.99544,0,0,1,.44168-1.04271,18.04666,18.04666,0,0,0,2.10633-6.70831c.3049-2.33459-3.38146-11.47241-4.44724-13.01312A39.34223,39.34223,0,0,1,57.09662,139.982Z"/><rect class="cls-1" x="236.74043" y="73.72767" width="46.97831" height="9.55095"/><rect class="cls-1" x="236.74043" y="111.45176" width="46.97831" height="9.55095"/><rect class="cls-1" x="236.74043" y="92.58972" width="46.97831" height="9.55095"/><polygon class="cls-1" points="292.6 73.728 292.6 73.728 292.6 82.21 292.6 83.278 311.378 83.278 311.378 121.003 320.802 121.003 320.802 83.278 339.579 83.278 339.579 82.21 339.579 73.728 339.579 73.728 292.6 73.728"/><path class="cls-1" d="M375.82575,73.878l-.07415-.15136h-13.87l-22.1198,46.89327-.18283.38338h10.33077l5.56084-11.81915,3.86544-8.21744h-.0099l2.62475-5.55392,6.80154-14.407h.0642L387.52084,120.852l.0741.15133H398.1235Z"/><rect class="cls-1" x="407.00518" y="73.72767" width="9.35831" height="47.27504"/><polygon class="cls-1" points="195.896 109.048 195.833 109.048 179.221 73.88 179.149 73.728 163.215 73.728 163.215 121.003 172.509 121.003 172.509 82.286 190.858 121.003 199.954 121.003 218.5 82.283 218.5 121.003 227.859 121.003 227.859 73.728 212.776 73.728 195.896 109.048"/><polygon class="cls-1" points="467.641 73.728 467.641 111.719 467.577 111.719 439.392 73.834 439.313 73.728 425.245 73.728 425.245 121.003 434.604 121.003 434.604 83.079 462.933 121.003 477 121.003 477 73.728 467.641 73.728"/><path class="cls-1" d="M166.31716,144.22334a5.87455,5.87455,0,0,1-2.23873-2.23776,6.51271,6.51271,0,0,1,0-6.29987,5.877,5.877,0,0,1,2.23873-2.23873,6.24722,6.24722,0,0,1,3.14945-.81242,5.88373,5.88373,0,0,1,2.44594.49728,5.79584,5.79584,0,0,1,1.94768,1.4427l-1.32608,1.27693a4.08609,4.08609,0,0,0-1.35982-1.08612,3.91,3.91,0,0,0-1.70772-.35657,4.41386,4.41386,0,0,0-2.17994.54739,4.061,4.061,0,0,0-1.567,1.54967,4.96614,4.96614,0,0,0,0,4.65864,4.07,4.07,0,0,0,1.567,1.55063,4.42413,4.42413,0,0,0,2.17994.5474,4.26809,4.26809,0,0,0,3.38268-1.65857l1.34246,1.29332a6.02535,6.02535,0,0,1-2.072,1.57472,6.5171,6.5171,0,0,1-5.80259-.24864Z"/><path class="cls-1" d="M182.03358,144.21563a5.91755,5.91755,0,0,1-2.21271-2.24644,6.48838,6.48838,0,0,1,0-6.25939,5.99993,5.99993,0,0,1,2.21271-2.24644,6.15135,6.15135,0,0,1,8.4721,2.24644,6.17623,6.17623,0,0,1,.81242,3.12536,6.27337,6.27337,0,0,1-.80375,3.134,5.92687,5.92687,0,0,1-2.21367,2.24644,6.39639,6.39639,0,0,1-6.2671,0Zm5.28892-1.5169a4.07666,4.07666,0,0,0,1.542-1.567,4.95744,4.95744,0,0,0,0-4.59215,4.07676,4.07676,0,0,0-1.542-1.567,4.402,4.402,0,0,0-4.31074,0,4.13,4.13,0,0,0-1.54967,1.567,4.891,4.891,0,0,0,0,4.59215,4.12991,4.12991,0,0,0,1.54967,1.567,4.402,4.402,0,0,0,4.31074,0Z"/><path class="cls-1" d="M223.05963,132.90055h1.85614v11.87019h-1.85614Z"/><path class="cls-1" d="M231.25033,132.90055h2.205l5.3053,8.63689h.09926l-.09926-2.28788v-6.349h1.83975v11.87019h-1.94l-5.57032-9.085h-.09927l.09927,2.28788v6.79715h-1.83975Z"/><path class="cls-1" d="M245.57416,132.90055h2.03924l2.65217,7.84182.4144,1.34247h.10023l.43078-1.34247,2.78517-7.84182H256.019l-4.31074,11.87019h-1.94Z"/><path class="cls-1" d="M261.25781,132.90055h7.21155v1.77325h-5.35542v3.28244h4.82537v1.75784h-4.82537v3.28244h5.35542v1.77422h-7.21155Z"/><path class="cls-1" d="M275.18362,144.17419a4.40331,4.40331,0,0,1-1.62484-2.42087l1.75784-.71316a3.29291,3.29291,0,0,0,.93674,1.59978,2.29414,2.29414,0,0,0,1.61616.62257,2.42589,2.42589,0,0,0,1.49185-.45681,1.472,1.472,0,0,0,.61389-1.25091,1.5316,1.5316,0,0,0-.53872-1.20273,6.1268,6.1268,0,0,0-1.88216-.95312l-.74592-.265a5.41037,5.41037,0,0,1-2.00551-1.19406,2.71383,2.71383,0,0,1-.81242-2.05562,2.94445,2.94445,0,0,1,.47994-1.62484,3.40659,3.40659,0,0,1,1.33475-1.18538,4.16186,4.16186,0,0,1,1.93227-.43946,3.82549,3.82549,0,0,1,2.48641.7546,3.72126,3.72126,0,0,1,1.2432,1.699l-1.674.71316a2.16329,2.16329,0,0,0-.69677-.99457,1.99311,1.99311,0,0,0-1.32608-.43078,2.21944,2.21944,0,0,0-1.36753.4144,1.26733,1.26733,0,0,0-.55607,1.06106,1.24,1.24,0,0,0,.49729,1.01095,5.35522,5.35522,0,0,0,1.5593.7623l.74592.24864a6.02935,6.02935,0,0,1,2.36209,1.38488,3.50234,3.50234,0,0,1,.24093,4.22785,3.59816,3.59816,0,0,1-1.51786,1.169,4.92341,4.92341,0,0,1-1.89758.38067A4.38068,4.38068,0,0,1,275.18362,144.17419Z"/><path class="cls-1" d="M289.83994,134.6738h-3.31618v-1.77325h8.48945v1.77325H291.697v10.09694h-1.8571Z"/><path class="cls-1" d="M300.43416,132.90055h2.52014l3.41447,9.00215h.10023l3.41448-9.00215h2.52013v11.87019h-1.83974V138.123l.09926-2.13947h-.09926l-3.39906,8.78724H305.673l-3.399-8.78724h-.09926l.09926,2.13947v6.64777h-1.83975Z"/><path class="cls-1" d="M318.75359,132.90055h7.21155v1.77325h-5.35541v3.28244h4.82536v1.75784h-4.82536v3.28244h5.35541v1.77422h-7.21155Z"/><path class="cls-1" d="M331.90072,132.90055h2.205l5.3053,8.63689h.09927l-.09927-2.28788v-6.349h1.83975v11.87019h-1.94l-5.57032-9.085h-.09926l.09926,2.28788v6.79715h-1.83975Z"/><path class="cls-1" d="M350.00524,134.6738h-3.31617v-1.77325h8.48944v1.77325h-3.31617v10.09694h-1.8571Z"/><path class="cls-1" d="M368.10977,132.90055H372.221a4.09956,4.09956,0,0,1,1.93131.46355,3.62012,3.62012,0,0,1,1.40992,1.29332,3.62669,3.62669,0,0,1,0,3.747,3.613,3.613,0,0,1-1.40992,1.29331,4.10031,4.10031,0,0,1-1.93131.46452H369.9659v4.60853h-1.85613Zm4.144,5.50383a1.99408,1.99408,0,0,0,1.06106-.2737,1.84652,1.84652,0,0,0,.68039-.70448,1.8417,1.8417,0,0,0,0-1.7906,1.78572,1.78572,0,0,0-.68039-.69581,2.03592,2.03592,0,0,0-1.06106-.266H369.9659v3.73058Z"/><path class="cls-1" d="M381.6048,132.90055h1.85613v10.096h5.09039v1.77422H381.6048Z"/><path class="cls-1" d="M397.40409,132.90055h2.12212l4.45915,11.87019h-2.05562l-1.06106-3.03381H396.077l-1.07744,3.03381H392.944Zm2.83431,7.11228-1.25958-3.532-.46452-1.37523H398.415l-.46452,1.37523-1.25959,3.532Z"/><path class="cls-1" d="M410.55122,134.6738H407.235v-1.77325h8.48945v1.77325h-3.31618v10.09694h-1.85709Z"/><path class="cls-1" d="M421.14544,132.90055H428.357v1.77325h-5.35541v3.41544h4.82537v1.75783h-4.82537v4.92367h-1.85613Z"/><path class="cls-1" d="M436.21519,144.21563a5.91755,5.91755,0,0,1-2.21271-2.24644,6.48838,6.48838,0,0,1,0-6.25939,5.99993,5.99993,0,0,1,2.21271-2.24644,6.15135,6.15135,0,0,1,8.4721,2.24644,6.17623,6.17623,0,0,1,.81242,3.12536,6.27326,6.27326,0,0,1-.80375,3.134,5.92687,5.92687,0,0,1-2.21367,2.24644,6.39639,6.39639,0,0,1-6.2671,0Zm5.28892-1.5169a4.07669,4.07669,0,0,0,1.542-1.567,4.95744,4.95744,0,0,0,0-4.59215,4.07678,4.07678,0,0,0-1.542-1.567,4.402,4.402,0,0,0-4.31074,0,4.13,4.13,0,0,0-1.54967,1.567,4.891,4.891,0,0,0,0,4.59215,4.12991,4.12991,0,0,0,1.54967,1.567,4.402,4.402,0,0,0,4.31074,0Z"/><path class="cls-1" d="M451.25314,132.90055h4.17775a4.09,4.09,0,0,1,1.94.46355,3.49676,3.49676,0,0,1,1.88986,3.1668,3.22933,3.22933,0,0,1-.771,2.12212,3.71881,3.71881,0,0,1-1.9313,1.2432l-.01735.08288,3.24968,4.69237v.09927h-2.15489l-3.134-4.64226h-1.39258v4.64226h-1.85614Zm4.12763,5.50383a2.01127,2.01127,0,0,0,1.40993-.531,1.75858,1.75858,0,0,0,.58017-1.35885,1.87077,1.87077,0,0,0-1.9236-1.87348h-2.338v3.76335Z"/><path class="cls-1" d="M465.03055,132.90055h2.52013l3.41448,9.00215h.10023l3.41447-9.00215H477v11.87019h-1.83975V138.123l.09926-2.13947h-.09926l-3.39905,8.78724h-1.49185l-3.39906-8.78724H466.771l.09926,2.13947v6.64777h-1.83974Z"/><path class="cls-1" d="M201.27229,138.07463h11.83286v1.55931H201.27229Z"/></svg>