<svg id="Layer_1" data-name="Layer 1" xmlns="http://www.w3.org/2000/svg" viewBox="0 0 384 384"><defs><style>.cls-1{fill:#fff;}.cls-2{fill:#0036e5;}</style></defs><rect class="cls-1" width="384" height="384"/><rect class="cls-2" x="112.29532" y="248.48941" width="44.9145" height="9.13137"/><rect class="cls-2" x="112.29532" y="284.55623" width="44.9145" height="9.13137"/><rect class="cls-2" x="112.29532" y="266.52282" width="44.9145" height="9.13137"/><polygon class="cls-2" points="165.701 248.489 165.701 248.49 165.701 256.599 165.701 257.621 183.654 257.621 183.654 293.688 192.664 293.688 192.664 257.621 210.616 257.621 210.616 256.599 210.616 248.49 210.616 248.489 165.701 248.489"/><path class="cls-2" d="M245.27046,248.63316l-.0709-.14471H231.93887l-21.14805,44.83319-.1748.36654h9.87692l5.31655-11.29992,3.69563-7.85644h-.00946l2.50944-5.30993,6.50274-13.774h.06138l17.88255,38.09565.07084.14468h10.066Z"/><rect class="cls-2" x="275.08014" y="248.48941" width="8.94719" height="45.19819"/><polygon class="cls-2" points="73.245 282.258 73.185 282.258 57.303 248.635 57.234 248.489 42 248.489 42 293.688 50.885 293.688 50.885 256.671 68.428 293.688 77.125 293.688 94.856 256.669 94.856 293.688 103.804 293.688 103.804 248.489 89.384 248.489 73.245 282.258"/><polygon class="cls-2" points="333.052 248.489 333.052 284.812 332.991 284.812 306.044 248.591 305.969 248.489 292.519 248.489 292.519 293.688 301.467 293.688 301.467 257.43 328.551 293.688 342 293.688 342 248.489 333.052 248.489"/><path class="cls-2" d="M44.96583,315.88812a5.61645,5.61645,0,0,1-2.14038-2.13946,6.22658,6.22658,0,0,1,0-6.0231,5.61882,5.61882,0,0,1,2.14038-2.14038,5.97272,5.97272,0,0,1,3.01109-.77673,5.62529,5.62529,0,0,1,2.33848.47543,5.54118,5.54118,0,0,1,1.86212,1.37932L50.90969,307.884a3.9066,3.9066,0,0,0-1.30007-1.03841,3.7383,3.7383,0,0,0-1.6327-.34091,4.21994,4.21994,0,0,0-2.08418.52335,3.88255,3.88255,0,0,0-1.49817,1.48159,4.74792,4.74792,0,0,0,0,4.454,3.89127,3.89127,0,0,0,1.49817,1.48251,4.22978,4.22978,0,0,0,2.08418.52335,4.08059,4.08059,0,0,0,3.23407-1.58571l1.28349,1.2365a5.76082,5.76082,0,0,1-1.981,1.50555,6.23079,6.23079,0,0,1-5.54767-.23772Z"/><path class="cls-2" d="M59.9918,315.88075a5.65759,5.65759,0,0,1-2.1155-2.14775,6.20333,6.20333,0,0,1,0-5.98441,5.73635,5.73635,0,0,1,2.1155-2.14775,5.88111,5.88111,0,0,1,8.09991,2.14775,5.90485,5.90485,0,0,1,.77673,2.98806A5.99778,5.99778,0,0,1,68.1,313.733a5.66663,5.66663,0,0,1-2.11643,2.14775,6.1154,6.1154,0,0,1-5.99178,0Zm5.05657-1.45026a3.89754,3.89754,0,0,0,1.47422-1.49818,4.73965,4.73965,0,0,0,0-4.3904,3.89754,3.89754,0,0,0-1.47422-1.49818,4.20858,4.20858,0,0,0-4.12136,0,3.94843,3.94843,0,0,0-1.48159,1.49818,4.67608,4.67608,0,0,0,0,4.3904,3.94843,3.94843,0,0,0,1.48159,1.49818,4.20858,4.20858,0,0,0,4.12136,0Z"/><path class="cls-2" d="M99.21554,305.06275h1.77459v11.34872H99.21554Z"/><path class="cls-2" d="M107.0464,305.06275h2.10813l5.07224,8.25747h.0949l-.0949-2.18737v-6.0701h1.75892v11.34872h-1.85475l-5.32561-8.68591h-.0949l.0949,2.18737v6.49854H107.0464Z"/><path class="cls-2" d="M120.741,305.06275h1.94966l2.53565,7.49732.3962,1.28349h.09582l.41186-1.28349,2.66281-7.49732h1.934l-4.12136,11.34872h-1.85475Z"/><path class="cls-2" d="M135.73562,305.06275h6.89473v1.69535h-5.12014v3.13824h4.61338V311.577h-4.61338v3.13825h5.12014v1.69627h-6.89473Z"/><path class="cls-2" d="M149.04966,315.84113a4.20985,4.20985,0,0,1-1.55346-2.31452l1.68061-.68183a3.14828,3.14828,0,0,0,.89558,1.5295,2.1934,2.1934,0,0,0,1.54517.59522,2.31934,2.31934,0,0,0,1.42631-.43674,1.40731,1.40731,0,0,0,.58692-1.196,1.46429,1.46429,0,0,0-.51506-1.14989,5.8574,5.8574,0,0,0-1.79946-.91125l-.71316-.25338a5.17275,5.17275,0,0,1-1.9174-1.1416,2.59463,2.59463,0,0,1-.77673-1.96532,2.8151,2.8151,0,0,1,.45885-1.55345,3.25685,3.25685,0,0,1,1.27612-1.13331,3.979,3.979,0,0,1,1.84738-.42015,3.65749,3.65749,0,0,1,2.37718.72144,3.55791,3.55791,0,0,1,1.18859,1.62441l-1.60045.68182a2.06841,2.06841,0,0,0-.66616-.95087,1.9056,1.9056,0,0,0-1.26783-.41186,2.12193,2.12193,0,0,0-1.30745.3962,1.21165,1.21165,0,0,0-.53164,1.01445,1.18554,1.18554,0,0,0,.47543.96653,5.1203,5.1203,0,0,0,1.49081.72882l.71315.23772a5.7645,5.7645,0,0,1,2.25832,1.324,3.34849,3.34849,0,0,1,.23035,4.04212,3.44009,3.44009,0,0,1-1.45119,1.11764,4.707,4.707,0,0,1-1.81421.36395A4.18819,4.18819,0,0,1,149.04966,315.84113Z"/><path class="cls-2" d="M163.0621,306.7581h-3.17049v-1.69535h8.1165v1.69535h-3.17049v9.65337H163.0621Z"/><path class="cls-2" d="M173.19091,305.06275h2.40942l3.26448,8.60667h.09582l3.26447-8.60667h2.40943v11.34872H182.8756v-6.35573l.09491-2.04547h-.09491l-3.24973,8.4012h-1.4263l-3.24974-8.4012h-.0949l.0949,2.04547v6.35573h-1.75892Z"/><path class="cls-2" d="M190.70555,305.06275h6.89473v1.69535h-5.12014v3.13824h4.61338V311.577h-4.61338v3.13825h5.12014v1.69627h-6.89473Z"/><path class="cls-2" d="M203.2751,305.06275h2.10814l5.07223,8.25747h.0949l-.0949-2.18737v-6.0701h1.75893v11.34872h-1.85475l-5.32562-8.68591h-.0949l.0949,2.18737v6.49854H203.2751Z"/><path class="cls-2" d="M220.58427,306.7581h-3.17049v-1.69535h8.1165v1.69535h-3.1705v9.65337h-1.77551Z"/><path class="cls-2" d="M237.89344,305.06275h3.93064a3.91944,3.91944,0,0,1,1.84646.44319,3.46118,3.46118,0,0,1,1.348,1.2365,3.46739,3.46739,0,0,1,0,3.58235,3.45438,3.45438,0,0,1-1.348,1.2365,3.92015,3.92015,0,0,1-1.84646.44411H239.668v4.40607h-1.77459Zm3.962,5.262a1.90646,1.90646,0,0,0,1.01444-.26167,1.76541,1.76541,0,0,0,.6505-.67354,1.76076,1.76076,0,0,0,0-1.71193,1.70725,1.70725,0,0,0-.6505-.66525,1.94657,1.94657,0,0,0-1.01444-.2543H239.668v3.56669Z"/><path class="cls-2" d="M250.79562,305.06275h1.77459v9.65245H257.437v1.69627h-6.64136Z"/><path class="cls-2" d="M265.90083,305.06275h2.0289l4.26325,11.34872h-1.96532l-1.01444-2.90053h-4.58114l-1.03011,2.90053h-1.96531Zm2.7098,6.79983-1.20425-3.37688-.44411-1.31482h-.0949l-.44411,1.31482-1.20425,3.37688Z"/><path class="cls-2" d="M278.47039,306.7581H275.2999v-1.69535h8.11649v1.69535H280.2459v9.65337h-1.77551Z"/><path class="cls-2" d="M288.59919,305.06275h6.89474v1.69535h-5.12015v3.2654h4.61339v1.68061h-4.61339v4.70736h-1.77459Z"/><path class="cls-2" d="M303.00692,315.88075a5.65755,5.65755,0,0,1-2.11551-2.14775,6.20333,6.20333,0,0,1,0-5.98441,5.7363,5.7363,0,0,1,2.11551-2.14775,5.88112,5.88112,0,0,1,8.09991,2.14775,5.90485,5.90485,0,0,1,.77673,2.98806,5.99779,5.99779,0,0,1-.76844,2.99635,5.66648,5.66648,0,0,1-2.11643,2.14775,6.11538,6.11538,0,0,1-5.99177,0Zm5.05657-1.45026a3.89761,3.89761,0,0,0,1.47422-1.49818,4.73965,4.73965,0,0,0,0-4.3904,3.89761,3.89761,0,0,0-1.47422-1.49818,4.2086,4.2086,0,0,0-4.12137,0,3.9485,3.9485,0,0,0-1.48159,1.49818,4.67608,4.67608,0,0,0,0,4.3904,3.9485,3.9485,0,0,0,1.48159,1.49818,4.2086,4.2086,0,0,0,4.12137,0Z"/><path class="cls-2" d="M317.38423,305.06275h3.99422a3.91032,3.91032,0,0,1,1.85475.44319,3.34311,3.34311,0,0,1,1.80684,3.02767,3.08743,3.08743,0,0,1-.73711,2.0289,3.55547,3.55547,0,0,1-1.84646,1.18859l-.01659.07923,3.10692,4.48624v.0949h-2.06022l-2.99635-4.43832h-1.33141v4.43832h-1.77459Zm3.9463,5.262a1.92292,1.92292,0,0,0,1.348-.50768,1.68137,1.68137,0,0,0,.55468-1.29916,1.78859,1.78859,0,0,0-1.83909-1.79118h-2.23529v3.598Z"/><path class="cls-2" d="M330.55638,305.06275h2.40942l3.26448,8.60667h.09582l3.26447-8.60667H342v11.34872h-1.75893v-6.35573l.09491-2.04547h-.09491l-3.24973,8.4012H335.565l-3.24974-8.4012h-.0949l.0949,2.04547v6.35573h-1.75892Z"/><path class="cls-2" d="M78.38534,310.00953h11.313v1.4908h-11.313Z"/><path class="cls-2" d="M265.753,73.78548l-1.81842-.74666a6.99222,6.99222,0,0,0,.81112.70809c2.34773,2.12837,9.10344,8.85039,10.66288,17.01352l.00016.00126c.01852.097.03459.194.05131.291a18.82841,18.82841,0,0,1,.22546,2.14987,13.608,13.608,0,0,1-3.45087,9.89061,10.40158,10.40158,0,0,1-3.42508,2.464,12.29725,12.29725,0,0,1-10.36217-.42733c2.60453,5.14011,5.36285,14.32041.91769,19.62478-.40326-25.8963-11.69517-19.36409-18.53188-22.31944-6.95324-3.00613-10.61891-3.31433-18.26495-2.55931a1.98266,1.98266,0,0,0-1.83441,1.78755c-.24864,5.29142-.74591,15.23674-8.34456,18.69022,2.44593-3.75705,5.56179-8.916,4.0362-15.96435-.827-3.822-4.53707-4.71972-9.31608-5.21924l0-.00009c-33.19895-5.05327-24.89705-24.038-22.5905-28.27388l-1.12576,1.92826a29.45863,29.45863,0,0,1,1.559-2.67793c-.07861.12641-.23231.38065-.43325.74967l.49174-.84228c-9.00195,5.36188-14.33516,21.33192-7.29368,33.72227,5.81,10.22182,14.79092,13.72145,28.09743,18.03534-7.50642,32.511,10.57088,32.25087,19.45885,40.38045,1.705,1.55874,2.28911,3.10361,3.66041,4.85065a10.5997,10.5997,0,0,0,5.09146-2.80459,5.03446,5.03446,0,0,0,1.31106-4.22245c-1.02083-6.32012-4.82236-14.4625-8.95734-16.40791-4.07833-1.91881-7.51227-2.05333-7.42776-6.629.07121-3.85585.97475-4.39537-1.75447-10.07608,8.95587,3.79561,18.41772,19.14833,21.07459,33.02539.33945,3.43563-1.7499,6.141-3.18723,7.56773a14.4982,14.4982,0,0,1-5.31451,3.3047c.65308,12.99136,3.84044,9.43375,15.84015,9.97444,6.19158.27934,6.17461.72,8.93764-3.56355a17.67309,17.67309,0,0,0,3.44744-9.34917c.15274-.87758-.85411-10.5193-1.45674-16.089a57.65727,57.65727,0,0,1-.213-10.63459,31.49307,31.49307,0,0,1,3.16488-12.32116c8.8757-1.07168,13.02275-3.32027,16.98252-6.6228C296.46082,105.52352,281.53791,78.91947,265.753,73.78548Z"/><path class="cls-2" d="M236.58682,97.01136c2.7165.78448,5.56448,1.95043,7.85376,2.35459,3.41175.60436,5.46134.1541,8.97231,1.10832-4.62276-6.378-9.185-18.47739-35.17715-22.99993,2.102,3.41464,7.98316,7.0462,10.47432,9.9844-6.98431-2.92607-15.1276-9.43693-23.14506-15.95114-4.57391-3.71639-8.568-5.55949-14.0244-2.95174-4.30322,2.05659-7.33347,8.43652-4.37139,15.38969C193.98064,99.93433,223.535,93.24218,236.58682,97.01136Z"/><path class="cls-2" d="M227.24227,178.3169c-1.09757-3.59074-.68151-7.51812-1.797-10.26548-4.01638-9.88543-30.1305-7.88765-24.55215-43.18305-20.47421-5.102-32.25038-16.1525-29.55052-38.11547.72241-4.729-3.53225-8.38792-9.6578-6.86147-9.033,2.25068-24.75932,13.3449-33.16546,16.334-5.46528,1.94315-15.89823,2.78719-16.26392-5.05344,8.24256,3.87108,19.72153-5.64557,17.29858-16.39293-1.56439,7.12115-3.74465,6.78819-10.56277,5.81314-4.52394-.64627-9.723,2.40261-10.27866,7.27007a12.49552,12.49552,0,0,0,3.36817,10.49756c9.88266,10.65073,27.6771-.66325,36.27043-5.7965,2.86963-1.71388,14.11361-10.65583,18.434-7.496a3.03543,3.03543,0,0,1,1.07894,3.06516c-.63383,3.18718-5.34119,6.98856-7.45352,8.705-6.70178,5.44714-11.0919,7.85971-15.17425,16.32937a74.95291,74.95291,0,0,0-5.0861,12.99545c5.82532-2.21588,9.919-7.75538,13.51475-10.78384-2.81678,8.17417-20.05877,18.44652-25.98907,37.13038-3.87714,12.21626-4.507,28.09611-9.62185,38.56012-1.73489,3.54908-4.62027,7.08493-5.69083,9.73994,5.192,2.768,7.27117,2.697,10.81714,7.74584a31.98569,31.98569,0,0,0-7.216-3.10292c-5.83421-2.01234-6.77352-2.48334-9.50647,1.28015-2.83618,3.90772-7.97016,12.82864-8.307,18.76033l28.84348.13511.46744-13.252a3.863,3.863,0,0,1,1.25745-2.73859c6.605-5.93914,1.3662-17.87086,17.4747-31.73143,3.074-2.645,6.20033-6.4518,8.88251-9.12019-2.68791-7.1593-4.42719-8.75669-4.0493-19.9293.9304,5.90933,5.861,16.26541,9.67821,21.55776,2.71764,3.76782,3.93622,7.39637,5.45485,11.31094,5.37028,13.84289,5.87858,17.9979,21.46748,13.03068,18.25012-5.8152,17.00694-11.68039,33.50764-17.57839a32.45466,32.45466,0,0,1-8.865,8.69921,8.64267,8.64267,0,0,0-3.20759,3.99582l-5.12835,12.87373c6.35833.00067,10.27275,2.38747,13.87223,5.34173-4.59805-1.20294-13.97472-4.75812-17.632-.36752-2.5484,3.05758-5.34,12.842-4.77663,17.82393l27.95893.01564c1.08515-5.54351-.67641-8.19157-.71516-12.6788-.0394-4.552,2.69056-3.71347,2.76152-10.64279.07227-6.99642,4.94619-14.48827,8.27282-18.40921C231.86035,182.64455,229.12534,184.47743,227.24227,178.3169Z"/><path class="cls-2" d="M259.51907,207.82894c-4.28682-2.31334-8.51365-1.54828-16.47006,4.06182,1.49186-3.57007,5.976-6.2275,9.32388-7.65816,5.31463-2.27118,8.41271.85048-.52164-20.33688l-15.40668-.05806c-1.857,6.144-1.04711,2.15213-.07081,10.94664.25287,2.27695.21127,5.07008.42735,7.90236a52.08354,52.08354,0,0,0,1.79362,11.44174c.7121,2.41607-.71879,5.76888-.34512,11.32118l28.35472.19359C265.58573,219.3407,262.86606,209.63506,259.51907,207.82894Z"/><path class="cls-2" d="M148.44256,197.54656c-8.019,9.54141,7.52126,4.89306,11.05277,13.65151-6.32868-1.98482-13.90394-9.15358-19.98818-.00854-2.70393,4.06417-3.58347,7.45772-5.19161,14.2526h29.14472c-.284-3.89559-1.00061-9.86233-.01458-13.78051a6.676,6.676,0,0,1,.73806-1.74237,30.15658,30.15658,0,0,0,3.51968-11.20966c.5095-3.90112-5.65045-19.17051-7.43137-21.745A65.74163,65.74163,0,0,1,148.44256,197.54656Z"/></svg>