<svg width="77" height="24" viewBox="0 0 77 24" fill="none" xmlns="http://www.w3.org/2000/svg">
<g clip-path="url(#clip0_5513_214383)">
<path d="M51.5543 10.8508C52.1699 10.1143 52.8545 9.8969 53.6479 9.9491C54.6192 10.0126 55.2616 10.5498 55.3134 11.5732C55.3908 13.1103 55.3691 14.6521 55.3883 16.1926C55.3947 16.7096 55.0229 16.5618 54.7484 16.5886C54.4266 16.62 54.2641 16.511 54.2685 16.1324C54.2833 14.83 54.2769 13.527 54.2724 12.2247C54.2692 11.2882 53.9736 10.9692 53.1309 10.9712C52.1154 10.9738 51.555 11.4408 51.5543 12.2856C51.5537 13.533 51.5402 14.7812 51.5614 16.028C51.5684 16.4481 51.4653 16.6186 51.0322 16.6012C50.6547 16.5859 50.4647 16.533 50.4678 16.0601C50.4883 13.3264 50.4883 10.5926 50.4678 7.85881C50.464 7.36583 50.6931 7.34777 51.0507 7.33439C51.4462 7.32035 51.5703 7.47019 51.5607 7.8762C51.5383 8.8207 51.5543 9.76717 51.5543 10.8508Z" fill="white"/>
<path d="M60.5441 12.7073C60.8007 11.4451 60.4481 10.9407 59.3226 10.9802C58.8223 10.9976 58.3136 11.1033 57.8331 11.2538C57.4997 11.3581 57.3628 11.2825 57.2239 10.9762C57.0793 10.6578 57.1229 10.4779 57.437 10.3301C58.4422 9.85846 59.4826 9.81699 60.523 10.1073C61.2499 10.31 61.6274 10.9213 61.6466 11.6719C61.6882 13.2819 61.6594 14.8946 61.6594 16.512C60.8212 16.7233 60.7143 16.6645 60.5531 15.7929C59.9478 16.7147 59.0865 16.6959 58.2132 16.6077C57.2265 16.5087 56.595 15.6899 56.6251 14.5715C56.6551 13.4518 57.2284 12.7969 58.2528 12.7314C58.638 12.7067 59.0251 12.7107 59.4109 12.7073C59.7936 12.7039 60.1755 12.7073 60.5441 12.7073ZM60.5793 13.6351C59.864 13.6351 59.1832 13.621 58.5037 13.6397C58.0033 13.6538 57.7486 13.9535 57.714 14.4759C57.6622 15.2611 57.9476 15.5869 58.7084 15.5936C60.2958 15.607 60.7598 15.1387 60.5793 13.6351Z" fill="white"/>
<path d="M31.5278 13.8035C31.5278 14.075 31.4695 14.3493 31.5425 14.5787C31.6359 14.8744 31.7767 15.2122 31.9993 15.3934C32.5138 15.8122 33.876 15.6817 34.3047 15.1687C34.6202 14.7908 34.8415 14.95 35.0891 15.18C35.3976 15.467 35.0681 15.6242 34.9433 15.8074C34.2548 16.8208 32.7179 16.7834 31.7914 16.4744C30.8892 16.1734 30.4234 15.3306 30.4138 14.1192C30.4081 13.4229 30.3952 12.7246 30.4356 12.0296C30.5066 10.8115 31.3205 10.0035 32.4837 9.95469C32.7639 9.94263 33.0455 9.94329 33.3258 9.95396C34.2855 9.99009 35.0841 10.6523 35.2811 11.6369C35.3732 12.0978 35.3572 12.5828 35.388 13.057C35.42 13.5406 35.2242 13.7546 34.7391 13.744C33.7224 13.7226 32.7051 13.7419 31.6877 13.7466C31.6551 13.7466 31.6231 13.7687 31.5278 13.8035ZM31.5476 12.7841C32.4715 12.7841 33.3379 12.7841 34.1972 12.7841C34.347 12.0209 34.2068 11.439 33.8197 11.1567C33.4659 10.8985 32.3756 10.8831 32.0006 11.1533C31.4484 11.5506 31.5053 12.1446 31.5476 12.7841Z" fill="white"/>
<path d="M72.2051 14.7848C72.6921 14.7314 73.1528 14.5407 73.4344 15.1875C73.5167 15.3755 73.8083 15.536 74.0254 15.5722C74.4012 15.6344 74.7974 15.6216 75.1798 15.5815C75.6359 15.5334 75.911 15.2484 75.9327 14.748C75.9537 14.2524 75.7313 13.9387 75.2607 13.8544C74.7599 13.7648 74.2518 13.7193 73.753 13.623C72.6506 13.4103 72.1906 12.8002 72.261 11.6792C72.3275 10.6183 72.8876 10.0317 73.9649 9.98425C74.5197 9.96011 75.0962 9.96885 75.6326 10.0992C76.4809 10.3053 76.8915 11.0029 76.8192 11.9019C76.1104 12.112 76.0031 12.0404 75.6523 11.4665C75.52 11.2498 75.2397 11.0705 74.9949 11.0056C74.698 10.9274 74.3644 10.9581 74.0524 10.9962C73.6556 11.0444 73.3647 11.2397 73.3384 11.724C73.3127 12.2083 73.5207 12.5066 73.957 12.6022C74.4539 12.7113 74.9633 12.7568 75.4608 12.8638C76.6935 13.1294 77.1403 13.811 76.9626 15.118C76.8527 15.93 76.2861 16.5039 75.4239 16.5875C74.8849 16.6397 74.3348 16.6424 73.7964 16.5895C72.8481 16.4972 72.2742 15.8424 72.2051 14.7848Z" fill="white"/>
<path d="M67.1944 10.7181C67.7656 10.0673 68.4843 9.88197 69.2911 9.95557C70.123 10.0312 70.6863 10.4853 70.8134 11.3542C70.9134 12.0372 70.9022 12.7402 70.914 13.4344C70.9285 14.3328 70.8989 15.2324 70.9246 16.13C70.9397 16.623 70.6567 16.5809 70.3448 16.5929C70.0124 16.6056 69.8262 16.5434 69.8341 16.1214C69.8564 14.8933 69.8525 13.6639 69.8367 12.4351C69.8295 11.892 69.8676 11.296 69.2358 11.0432C68.6442 10.8064 67.6643 11.0358 67.2885 11.5301C67.1733 11.6813 67.1305 11.9288 67.1285 12.1328C67.1141 13.3983 67.1114 14.6638 67.1272 15.9287C67.1331 16.3521 67.0943 16.6083 66.5751 16.6063C66.0835 16.6043 65.9926 16.4036 65.9972 15.9534C66.0143 14.1749 66.0058 12.3956 66.0038 10.6164C66.0032 10.274 65.9722 9.96431 66.4731 9.97497C66.9087 9.98437 67.2069 10.0385 67.1305 10.593C67.1272 10.6178 67.1582 10.6486 67.1944 10.7181Z" fill="white"/>
<path d="M48.1332 11.9002C47.7186 11.0105 46.8951 10.6955 46.0185 11.0948C45.5904 11.2894 45.4369 11.6734 45.4254 12.1149C45.4056 12.9042 45.4023 13.6948 45.4247 14.4841C45.4446 15.1798 45.8304 15.565 46.4901 15.5911C47.1606 15.6179 47.8197 15.65 48.3066 14.9898C48.553 14.656 48.7884 15.0139 48.9554 15.1731C49.0386 15.252 49.0463 15.5476 48.9708 15.6567C48.5612 16.2466 48.0251 16.6333 47.2892 16.6212C46.9559 16.6159 46.6219 16.636 46.2898 16.6119C45.2308 16.535 44.4611 15.765 44.3421 14.6554C44.2935 14.2005 44.2897 13.7403 44.2646 13.274C44.2902 12.8038 44.2864 12.3236 44.3478 11.8526C44.4656 10.953 44.934 10.2768 45.7907 10.0934C46.4101 9.96104 47.0864 9.95771 47.7122 10.0607C48.4883 10.1884 48.9561 10.7824 49.1326 11.5804" fill="white"/>
<path d="M26.9298 14.994C27.3367 13.578 27.7418 12.162 28.1506 10.746C28.3938 9.90248 28.47 9.86102 29.4054 10.073C29.3683 10.2269 29.3401 10.3814 29.2934 10.5292C28.7189 12.3539 28.1385 14.1766 27.5671 16.0026C27.4564 16.3558 27.34 16.6033 26.892 16.6066C26.4237 16.6093 26.3111 16.3552 26.1927 15.9772C25.6379 14.204 25.0627 12.4376 24.4984 10.6684C24.4395 10.4831 24.3986 10.2918 24.3506 10.1065C25.1676 9.82422 25.3615 9.91922 25.5784 10.6744C25.9899 12.1078 26.4007 13.5418 26.8114 14.9759C26.8505 14.982 26.8901 14.988 26.9298 14.994Z" fill="white"/>
<path d="M37.775 10.8265C38.5185 9.98237 39.3144 9.85457 40.1635 9.9997C40.3299 10.0285 40.6127 10.3315 40.5928 10.3716C40.4496 10.6566 40.4917 11.1582 39.9447 11.0559C39.6209 10.9957 39.2799 10.9642 38.9548 11.0017C38.1474 11.0947 37.7846 11.5428 37.7846 12.3702C37.7839 13.5816 37.7686 14.7936 37.7923 16.0043C37.8012 16.4618 37.6541 16.6003 37.2177 16.6036C36.7608 16.607 36.6559 16.425 36.6604 15.9876C36.6783 14.2445 36.6591 12.5 36.6757 10.7569C36.6783 10.4612 36.4787 10.0191 37.0583 9.98237C37.5504 9.95024 37.9016 10.0245 37.775 10.8265Z" fill="white"/>
<path d="M42.8733 13.2546C42.8733 14.2078 42.8586 15.1616 42.8797 16.1142C42.8886 16.5309 42.6974 16.6051 42.3627 16.5918C42.0582 16.579 41.7529 16.6359 41.7549 16.1496C41.7625 14.2433 41.7625 12.3362 41.7549 10.4299C41.7529 9.89475 42.1055 10.0058 42.4107 9.98442C42.7435 9.96035 42.8861 10.0794 42.8791 10.45C42.8618 11.3844 42.8733 12.3202 42.8733 13.2546Z" fill="white"/>
<path d="M64.3958 13.3278C64.3958 14.2623 64.3798 15.1968 64.4028 16.1305C64.4138 16.564 64.1956 16.5988 63.8763 16.592C63.5634 16.5854 63.2934 16.6202 63.2979 16.1312C63.3164 14.2262 63.3145 12.3205 63.2992 10.4155C63.2953 9.95464 63.5551 9.98344 63.8481 9.9861C64.138 9.98877 64.4118 9.95197 64.4022 10.4155C64.3818 11.3854 64.3958 12.3566 64.3958 13.3278Z" fill="white"/>
<path d="M42.783 8.53078H41.8526C41.7931 8.53078 41.7451 8.48065 41.7451 8.41845V7.44587C41.7451 7.38366 41.7931 7.3335 41.8526 7.3335H42.783C42.8425 7.3335 42.8904 7.38366 42.8904 7.44587V8.41845C42.8898 8.48065 42.8418 8.53078 42.783 8.53078Z" fill="white"/>
<path d="M64.3025 8.53078H63.3715C63.312 8.53078 63.2646 8.48065 63.2646 8.41912V7.44587C63.2646 7.38366 63.3126 7.3335 63.3715 7.3335H64.3025C64.362 7.3335 64.41 7.38366 64.41 7.44587V8.41912C64.41 8.48065 64.362 8.53078 64.3025 8.53078Z" fill="white"/>
<path d="M10.9112 14.6064C10.7071 14.6064 10.5476 14.6064 10.3355 14.6064C10.3355 14.4917 10.3355 14.3797 10.3355 14.2677C10.3355 12.8151 10.332 11.3625 10.3395 9.91023C10.3406 9.71576 10.299 9.6131 10.0957 9.53843C7.13402 8.4495 4.17662 7.34922 1.21807 6.25286C1.14948 6.22758 1.07659 6.21318 0.97665 6.18596C0.97665 6.31275 0.97665 6.41698 0.97665 6.5216C0.97665 9.87523 0.979394 13.2289 0.970378 16.5826C0.969595 16.821 1.03857 16.9353 1.26 17.031C2.76769 17.6816 4.26558 18.354 5.77405 19.0028C6.02291 19.1097 6.14677 19.2303 6.1495 19.5111C6.15186 19.76 6.22593 20.0082 6.27688 20.3068C5.72467 20.0727 5.21401 19.8568 4.70374 19.6398C3.2325 19.014 1.76283 18.3832 0.287665 17.766C0.0795594 17.6789 -0.000390479 17.5774 1.43314e-06 17.3452C0.00783972 13.4257 0.00784005 9.50576 0.000393729 5.58625C1.81586e-06 5.35756 0.0701536 5.25489 0.287273 5.17283C3.61971 3.91118 6.94783 2.63746 10.2807 1.37698C10.4233 1.32292 10.622 1.31747 10.7635 1.37076C14.0963 2.63124 17.424 3.90573 20.7569 5.1666C20.9881 5.25411 21.0602 5.36028 21.0598 5.60219C21.052 9.51123 21.054 13.4202 21.0552 17.3292C21.0552 17.5027 21.063 17.6462 20.8474 17.7368C18.8784 18.5641 16.9153 19.4045 14.9499 20.2403C14.9111 20.2566 14.8676 20.2625 14.7982 20.28C14.8469 19.9234 14.8778 19.5788 14.9503 19.2431C14.9683 19.1603 15.1117 19.0864 15.2125 19.0417C16.7237 18.3724 18.2373 17.7088 19.75 17.0434C19.8574 16.996 19.9641 16.9462 20.0667 16.8995C20.0667 13.3564 20.0667 9.82623 20.0667 6.24974C19.678 6.39364 19.3182 6.52665 18.9584 6.65928C16.3808 7.61057 13.8039 8.56456 11.2232 9.5073C10.9849 9.59443 10.901 9.70216 10.9038 9.96156C10.9191 11.3819 10.9108 12.8026 10.9108 14.223C10.9112 14.3388 10.9112 14.4548 10.9112 14.6064ZM1.53121 5.72898C1.65231 5.77954 1.7107 5.80638 1.77027 5.82854C4.64926 6.89146 7.52744 7.95671 10.4104 9.0091C10.5507 9.06043 10.747 9.0379 10.8932 8.98503C13.1319 8.17063 15.3669 7.34572 17.6024 6.52198C18.2886 6.26919 18.9737 6.01211 19.7019 5.74142C19.6027 5.69436 19.5557 5.6687 19.5063 5.64964C16.612 4.53656 13.7181 3.42152 10.8199 2.31855C10.689 2.26877 10.5025 2.28666 10.3673 2.338C8.68165 2.97699 7.00075 3.62843 5.31786 4.27559C4.07629 4.7528 2.83471 5.22844 1.53121 5.72898Z" fill="white"/>
<path d="M13.7223 19.372C13.7215 18.6221 13.5503 18.3845 12.8503 18.157C12.6681 16.4181 11.932 15.543 10.6105 15.5185C10.0548 15.508 9.5563 15.6904 9.12714 16.0494C8.46046 16.6071 8.27198 17.3492 8.32173 18.1648C7.64334 18.3468 7.43011 18.619 7.42781 19.2891C7.42544 20.0467 7.42465 20.804 7.4282 21.5616C7.43169 22.3168 7.77108 22.6599 8.5322 22.6626C9.8976 22.6676 11.2631 22.668 12.6281 22.6622C13.3677 22.6591 13.7165 22.3095 13.7211 21.581C13.7259 20.8444 13.7231 20.1082 13.7223 19.372ZM11.947 18.2422C11.0275 18.2422 10.1312 18.2422 9.21763 18.2422C9.12358 17.5428 9.2839 16.9692 9.90622 16.6223C10.3816 16.3574 10.877 16.3753 11.3379 16.6837C11.898 17.0579 11.9908 17.6136 11.947 18.2422Z" fill="white"/>
</g>
<defs>
<clipPath id="clip0_5513_214383">
<rect width="77" height="24" fill="white"/>
</clipPath>
</defs>
</svg>
